<?xml version="1.0" encoding="utf-8"?>
<!-- Generator: Adobe Illustrator 16.0.0, SVG Export Plug-In . SVG Version: 6.00 Build 0)  -->
<!DOCTYPE svg PUBLIC "-//W3C//DTD SVG 1.1//EN" "http://www.w3.org/Graphics/SVG/1.1/DTD/svg11.dtd">
<svg version="1.1" id="Layer_1" xmlns="http://www.w3.org/2000/svg" xmlns:xlink="http://www.w3.org/1999/xlink" x="0px" y="0px"
	 width="736.463px" height="307.485px" viewBox="0 0 736.463 307.485" enable-background="new 0 0 736.463 307.485"
	 xml:space="preserve">
<g>
	<path fill="#033F69" d="M365.793,112.527c3.55,0,6.126-1.034,7.825-3.111c1.684-2.095,2.498-4.785,2.498-8.168
		c0-3.97-0.798-6.8-2.4-8.518c-1.684-1.656-4.329-2.472-8.071-2.472h-4.733v22.269H365.793L365.793,112.527z M374.724,72.457
		c4.688,0,8.684,0.609,11.953,1.87c3.339,1.219,6.02,2.98,8.114,5.215c2.068,2.274,3.559,4.96,4.506,8.036
		c0.92,3.107,1.385,6.45,1.385,10.096c0,6.388-1.263,11.489-3.822,15.389c-2.549,3.9-6.642,6.27-12.269,7.159v0.281
		c5.907,0.539,9.902,2.62,12.11,6.235c2.209,3.624,3.287,8.632,3.287,14.99v8.071v3.874c0,1.34,0.044,2.585,0.141,3.812
		c0.088,1.184,0.219,2.274,0.412,3.199c0.157,0.998,0.386,1.762,0.666,2.282c0.342,0.527,0.691,1.035,1.052,1.517
		c0.377,0.49,0.92,0.955,1.726,1.416v1.322h-26.141c-0.614-1.226-1.096-2.689-1.376-4.39c-0.324-1.674-0.527-3.365-0.641-5.026
		c-0.167-1.7-0.255-3.326-0.28-4.851c-0.043-1.564-0.087-2.817-0.087-3.807v-6.349c0-2.647-0.123-4.882-0.368-6.635
		c-0.281-1.766-0.736-3.19-1.376-4.197c-0.666-1.008-1.553-1.701-2.542-2.121c-1.026-0.398-2.287-0.596-3.785-0.596h-6.477v37.972
		h-24.67V72.457H374.724z"/>
	<path fill="#033F69" d="M442.702,91.836l-6.757,40.19h13.794l-6.765-40.19H442.702L442.702,91.836z M458.337,72.457l23.074,94.764
		h-26.247l-2.506-16.606h-19.641l-2.522,16.606h-25.845l22.646-94.764H458.337z"/>
	<rect x="484.083" y="72.456" fill="#033F69" width="24.67" height="94.765"/>
	<path fill="#033F69" d="M555.138,90.259c-1.023-1.963-2.776-2.936-5.144-2.936c-1.857,0-3.365,0.491-4.46,1.455
		c-1.078,0.982-1.955,2.686-2.523,5.179c-0.554,2.481-0.922,5.82-1.113,10c-0.175,4.206-0.272,9.534-0.272,15.875
		c0,6.358,0.098,11.669,0.272,15.858c0.191,4.197,0.56,7.549,1.113,10.029c0.568,2.463,1.445,4.207,2.523,5.162
		c1.095,0.969,2.603,1.482,4.46,1.482c1.49,0,2.708-0.4,3.699-1.126c0.972-0.763,1.726-2.047,2.252-3.799
		c0.524-1.776,0.901-4.116,1.131-7.095c0.227-2.971,0.341-6.726,0.341-11.226h23.864v7.046c0,6.634-0.895,12.068-2.664,16.291
		c-1.771,4.269-4.084,7.624-7.03,10.049c-2.927,2.423-6.238,4.069-10.008,4.898c-3.767,0.863-7.632,1.279-11.585,1.279
		c-6.897,0-12.558-0.855-16.965-2.528c-4.444-1.669-7.888-4.486-10.369-8.439c-2.505-3.943-4.188-9-5.1-15.257
		c-0.92-6.239-1.401-13.772-1.401-22.623c0-9.022,0.569-16.664,1.673-22.969c1.121-6.271,2.989-11.38,5.635-15.249
		c2.664-3.887,6.136-6.705,10.455-8.431c4.356-1.743,9.701-2.589,16.072-2.589c5.548,0,10.28,0.701,14.154,2.125
		c3.89,1.406,7.062,3.409,9.5,6.042c2.443,2.599,4.206,5.754,5.318,9.395c1.096,3.698,1.631,7.826,1.631,12.422v5.974h-23.872
		v-5.302C556.726,95.842,556.2,92.192,555.138,90.259z"/>
	<polygon fill="#033F69" points="645.702,72.456 645.702,92.625 614.319,92.625 614.319,108.803 643.749,108.803 643.749,128.201 
		614.319,128.201 614.319,147.047 646.92,147.047 646.92,167.221 589.633,167.221 589.633,72.456 	"/>
	<path fill="#033F69" d="M692.253,97.524c0-2.804-0.542-5.223-1.727-7.221c-1.129-1.998-2.891-2.98-5.31-2.98
		c-2.639,0-4.592,0.833-5.812,2.568c-1.244,1.744-1.84,3.663-1.84,5.793c0,3.085,0.964,5.556,2.962,7.365
		c1.981,1.793,4.479,3.361,7.502,4.698c3.006,1.327,6.223,2.699,9.658,4.053c3.47,1.363,6.704,3.172,9.692,5.381
		c3.006,2.217,5.495,5.087,7.492,8.684c1.981,3.589,2.997,8.26,2.997,13.996c0,10.104-2.899,17.426-8.64,21.97
		c-5.732,4.578-14.048,6.849-24.933,6.849c-5.102,0-9.657-0.416-13.584-1.28c-3.936-0.828-7.247-2.273-9.955-4.351
		c-2.691-2.111-4.733-4.819-6.16-8.181c-1.403-3.36-2.113-7.514-2.113-12.466v-3.325h23.864v2.247c0,4.075,0.727,6.942,2.269,8.567
		c1.499,1.652,3.452,2.463,5.837,2.463c2.532,0,4.539-0.872,5.871-2.664c1.386-1.801,2.069-3.931,2.069-6.499
		c0-3.076-0.974-5.547-2.831-7.366c-1.911-1.817-4.33-3.36-7.168-4.652c-2.902-1.271-6.013-2.582-9.333-3.904
		c-3.411-1.332-6.503-3.068-9.387-5.188c-2.849-2.095-5.258-4.899-7.151-8.369c-1.91-3.427-2.875-7.945-2.875-13.505
		c0-9.666,2.604-16.993,7.704-22.045c5.127-5.053,12.944-7.567,23.354-7.567c10.788,0,18.605,2.335,23.391,6.984
		c4.854,4.636,7.257,12.032,7.257,22.216h-23.103V97.524z"/>
	<path fill="#033F69" d="M353.183,203.936c2.068,0,3.567-0.582,4.505-1.783c0.99-1.196,1.463-2.752,1.463-4.697
		c0-2.278-0.473-3.905-1.419-4.869c-0.938-0.964-2.453-1.464-4.601-1.464h-2.734v12.813H353.183L353.183,203.936z M358.354,180.927
		c2.664,0,4.959,0.351,6.852,1.072c1.912,0.71,3.471,1.728,4.646,3.011c1.191,1.263,2.042,2.814,2.595,4.606
		c0.534,1.783,0.788,3.715,0.788,5.788c0,3.653-0.719,6.599-2.191,8.86c-1.446,2.217-3.82,3.584-7.037,4.088v0.162
		c3.357,0.289,5.68,1.498,6.941,3.589c1.297,2.081,1.91,4.956,1.91,8.604v4.633v2.207c0,0.772,0.026,1.499,0.069,2.192
		c0.07,0.71,0.142,1.317,0.255,1.892c0.097,0.527,0.185,0.951,0.367,1.288c0.212,0.298,0.387,0.579,0.597,0.855
		c0.211,0.281,0.525,0.548,0.991,0.793v0.78H360.15c-0.368-0.72-0.649-1.564-0.833-2.52c-0.167-0.96-0.298-1.924-0.342-2.896
		c-0.097-0.965-0.141-1.91-0.167-2.791c-0.018-0.898-0.043-1.616-0.043-2.144v-3.671c0-1.524-0.062-2.809-0.229-3.817
		c-0.14-1.038-0.412-1.817-0.806-2.404c-0.367-0.583-0.851-1-1.445-1.22c-0.571-0.219-1.29-0.346-2.165-0.346h-3.725v21.809h-14.153
		v-54.422H358.354z"/>
	<polygon fill="#033F69" points="411.846,180.927 411.846,192.504 393.801,192.504 393.801,201.792 410.699,201.792 
		410.699,212.922 393.801,212.922 393.801,223.738 412.538,223.738 412.538,235.349 379.614,235.349 379.614,180.927 	"/>
	<path fill="#033F69" d="M435.167,192.048l-3.893,23.083h7.914l-3.917-23.083H435.167L435.167,192.048z M444.148,180.927
		l13.243,54.422h-15.075l-1.454-9.534h-11.288l-1.444,9.534h-14.828l13.013-54.422H444.148z"/>
	<polygon fill="#033F69" points="473.594,180.927 473.594,223.738 491.042,223.738 491.042,235.349 459.458,235.349 
		459.458,180.927 	"/>
	<path fill="#033F69" d="M562.106,194.494c0-1.652-0.342-2.997-0.989-4.149c-0.631-1.17-1.656-1.727-3.032-1.727
		c-1.534,0-2.638,0.508-3.356,1.468c-0.711,1.02-1.078,2.111-1.078,3.339c0,1.771,0.596,3.189,1.743,4.231
		c1.131,1.034,2.551,1.93,4.304,2.699c1.718,0.772,3.566,1.543,5.538,2.327c2.008,0.802,3.812,1.819,5.539,3.089
		c1.778,1.254,3.198,2.929,4.328,4.979c1.141,2.055,1.7,4.74,1.7,8.053c0,5.793-1.638,10-4.941,12.611
		c-3.313,2.625-8.071,3.934-14.303,3.934c-2.963,0-5.564-0.262-7.816-0.727c-2.236-0.482-4.163-1.318-5.723-2.516
		c-1.517-1.2-2.69-2.772-3.516-4.688c-0.832-1.946-1.217-4.329-1.217-7.16v-1.919h13.696v1.305c0,2.358,0.438,3.971,1.279,4.916
		c0.876,0.938,1.981,1.412,3.365,1.412c1.473,0,2.604-0.508,3.401-1.516c0.779-1.039,1.147-2.275,1.147-3.747
		c0-1.792-0.525-3.19-1.604-4.237c-1.078-1.06-2.462-1.94-4.146-2.65c-1.62-0.755-3.426-1.509-5.354-2.253
		c-1.93-0.767-3.726-1.758-5.355-2.972c-1.655-1.217-3.041-2.826-4.136-4.814c-1.079-1.989-1.639-4.562-1.639-7.773
		c0-5.538,1.473-9.745,4.434-12.646c2.945-2.889,7.406-4.352,13.417-4.352c6.178,0,10.666,1.336,13.417,4.027
		c2.761,2.642,4.163,6.905,4.163,12.756h-13.269V194.494z"/>
	<polygon fill="#033F69" points="578.178,192.154 578.178,180.069 613.513,180.069 613.513,192.154 602.848,192.154 
		602.848,234.521 588.687,234.521 588.687,192.154 	"/>
	<path fill="#033F69" d="M629.955,191.243l-3.865,23.068h7.914l-3.893-23.068H629.955L629.955,191.243z M638.945,180.069
		l13.261,54.451h-15.082L635.677,225h-11.262l-1.454,9.521h-14.847l13.023-54.451H638.945z"/>
	<polygon fill="#033F69" points="646.71,192.154 646.71,180.069 682.07,180.069 682.07,192.154 671.379,192.154 671.379,234.521 
		657.244,234.521 657.244,192.154 	"/>
	<polygon fill="#033F69" points="717.151,180.069 717.151,191.654 699.098,191.654 699.098,200.964 716.022,200.964 
		716.022,212.104 699.098,212.104 699.098,222.926 717.871,222.926 717.871,234.521 684.946,234.521 684.946,180.069 	"/>
	<polygon fill="#033F69" points="535.211,180.069 535.211,191.654 517.167,191.654 517.167,200.964 534.054,200.964 
		534.054,212.104 517.167,212.104 517.167,222.926 535.876,222.926 535.876,234.521 503.004,234.521 503.004,180.069 	"/>
	<path fill="#033F69" d="M160.322,104.75l22.207,40.536c35.563,4.386,69.469,8.615,101.412,12.576
		c0.044-1.648,0.106-3.265,0.106-4.873c0-0.762-0.044-1.507-0.062-2.252l-82.237-69.25L160.322,104.75z"/>
	<path fill="#033F69" d="M204.386,185.2c25.572,0.98,50.68,1.963,75.095,2.888c1.349-5.075,2.384-10.276,3.137-15.582
		c-30.014-3.725-60.713-7.541-91.395-11.331L204.386,185.2z"/>
	<path fill="#033F69" d="M183.949,284.67L19.938,201.811c19.657,51.337,69.347,87.828,127.582,87.828
		C160.122,289.639,172.32,287.878,183.949,284.67z"/>
	<path fill="#033F69" d="M147.52,16.294c-0.141,0-0.255,0.009-0.395,0.009l56.297,47.393l30.051-16.883
		C210.002,27.74,180.094,16.294,147.52,16.294z"/>
	<path fill="#033F69" d="M144.479,197.539c-36.686-1.489-73.448-2.979-109.178-4.436l167.736,84.724
		c9.517-4.261,18.491-9.535,26.694-15.793l-34.24-62.467C179.005,198.901,161.997,198.24,144.479,197.539z"/>
	<path fill="#033F69" d="M241.176,252.36c14.591-13.769,26.141-30.718,33.537-49.716c-19.787-0.745-40.461-1.578-62.09-2.397
		L241.176,252.36z"/>
	<path fill="#033F69" d="M11.648,139.077c-0.508,4.561-0.692,9.197-0.692,13.912c0,6.134,0.438,12.195,1.217,18.163l46.737-26.269
		c-13.426-1.652-26.571-3.261-39.33-4.842C16.933,139.721,14.294,139.388,11.648,139.077z"/>
	<path fill="#033F69" d="M215.428,73.801l66.647,56.1c-4.776-28.07-18.043-53.208-37.157-72.689L215.428,73.801z"/>
	<path fill="#033F69" d="M13.9,124.521c2.507,0.328,4.986,0.618,7.493,0.933c20.051,2.476,39.743,4.881,59.154,7.292l59.908-33.697
		L99.836,24.892C56.544,41.026,23.619,78.499,13.9,124.521z"/>
	<path fill="#033F69" d="M164.572,143.069l-17.027-31.102l-42.381,23.785C125.399,138.24,145.188,140.685,164.572,143.069z"/>
	<path fill="#033F69" d="M189.75,71.4l-63.482-53.436c-4.111,0.635-8.16,1.455-12.138,2.462l39.138,71.454L189.75,71.4z"/>
	<path fill="#033F69" d="M29.71,178.159c52.214,2.138,105.602,4.314,157.561,6.36l-13.988-25.553
		c-30.488-3.76-60.626-7.476-89.747-11.078L29.71,178.159z"/>
</g>
</svg>
