<svg version="1.2" xmlns="http://www.w3.org/2000/svg" viewBox="0 0 600 600" width="600" height="600">
<style>.a{fill:#fff}.b{fill:#ff6c0e}</style>
<rect class="b" x="0" y="0" width="600" height="600" rx="150" ry="150"/>
<path class="a" d="m503.1 325.2l-101.9-124.5c-0.9-1-2.2-1.6-3.5-1.6h-79.7c-2.6 0-4.7 2.1-4.7 4.7v44.4c0 0 0 0 0 0.1 0 4-5.5 5.6-8.1 2.4l-40.5-49.5c-0.9-1-2.2-1.6-3.5-1.6h-79.7c-2.6 0-4.7 2.1-4.7 4.7v44.3c0 3.9-3.2 7.1-7.1 7.1h-68.5c-2.6 0-4.6 2.1-4.6 4.7v138.5c0 2.6 2 4.7 4.6 4.7h71.8c2.6 0 4.7-2.1 4.7-4.7v-134.9c0-3.9 3.2-7.1 7.1-7.1h50.4c1.4 0 2.6 0.6 3.5 1.6l84.8 105c1.7 1.9 4.6 2.1 6.6 0.4l36-31.6c2-1.7 2.2-4.7 0.5-6.6l-49.6-60.6c-2.2-2.7-1.4-7.1 1.9-8.2q1.1-0.5 2.3-0.5h50.5c1.4 0 2.6 0.6 3.5 1.6l84.8 105c1.7 2 4.6 2.2 6.6 0.5l36-31.7c2-1.7 2.2-4.6 0.5-6.6z"/>
</svg>
