<svg xmlns="http://www.w3.org/2000/svg" xmlns:xlink="http://www.w3.org/1999/xlink" viewBox="9 288 792 169" width="792" height="169" preserveAspectRatio="xMidYMid meet" version="1.0"><defs><g/><clipPath id="49e0a70cf3"><path d="M 0 0 L 810 0 L 810 810 L 0 810 Z M 0 0 " clip-rule="nonzero"/></clipPath><clipPath id="699958663b"><rect x="0" width="810" y="0" height="810"/></clipPath><clipPath id="099110e7f3"><path d="M 15.714844 295.355469 L 237.222656 295.355469 L 237.222656 406.558594 L 15.714844 406.558594 Z M 15.714844 295.355469 " clip-rule="nonzero"/></clipPath><clipPath id="18222d36a4"><path d="M 236.484375 363.832031 L 181.148438 296.21875 C 180.667969 295.671875 179.976562 295.355469 179.242188 295.355469 L 135.960938 295.355469 C 134.558594 295.355469 133.421875 296.488281 133.421875 297.894531 L 133.421875 322.042969 C 133.394531 324.25 130.449219 325.085938 129.050781 323.378906 L 107.027344 296.464844 C 106.542969 295.917969 105.851562 295.601562 105.117188 295.601562 L 61.835938 295.601562 C 60.4375 295.601562 59.296875 296.738281 59.296875 298.140625 L 59.296875 322.238281 C 59.296875 324.359375 57.578125 326.074219 55.460938 326.074219 L 18.253906 326.074219 C 16.847656 326.074219 15.714844 327.214844 15.714844 328.613281 L 15.714844 403.839844 C 15.714844 405.246094 16.847656 406.378906 18.253906 406.378906 L 57.238281 406.378906 C 58.640625 406.378906 59.777344 405.246094 59.777344 403.839844 L 59.777344 330.5625 C 59.777344 328.441406 61.496094 326.726562 63.613281 326.726562 L 91.023438 326.726562 C 91.753906 326.726562 92.449219 327.039062 92.933594 327.585938 L 138.964844 384.605469 C 139.890625 385.660156 141.488281 385.765625 142.542969 384.839844 L 162.125 367.660156 C 163.175781 366.734375 163.285156 365.132812 162.359375 364.082031 L 135.414062 331.15625 C 134.214844 329.691406 134.664062 327.34375 136.445312 326.703125 C 136.851562 326.554688 137.285156 326.476562 137.738281 326.476562 L 165.148438 326.476562 C 165.878906 326.476562 166.574219 326.789062 167.058594 327.34375 L 213.089844 384.359375 C 214.011719 385.410156 215.617188 385.515625 216.667969 384.59375 L 236.25 367.414062 C 237.300781 366.492188 237.40625 364.886719 236.484375 363.832031 Z M 236.484375 363.832031 " clip-rule="nonzero"/></clipPath><clipPath id="295738c7f0"><path d="M 0.714844 0.355469 L 222.222656 0.355469 L 222.222656 111.558594 L 0.714844 111.558594 Z M 0.714844 0.355469 " clip-rule="nonzero"/></clipPath><clipPath id="a97ffabdba"><path d="M 221.484375 68.832031 L 166.148438 1.21875 C 165.667969 0.671875 164.976562 0.355469 164.242188 0.355469 L 120.960938 0.355469 C 119.558594 0.355469 118.421875 1.488281 118.421875 2.894531 L 118.421875 27.042969 C 118.394531 29.25 115.449219 30.085938 114.050781 28.378906 L 92.027344 1.464844 C 91.542969 0.917969 90.851562 0.601562 90.117188 0.601562 L 46.835938 0.601562 C 45.4375 0.601562 44.296875 1.738281 44.296875 3.140625 L 44.296875 27.238281 C 44.296875 29.359375 42.578125 31.074219 40.460938 31.074219 L 3.253906 31.074219 C 1.847656 31.074219 0.714844 32.214844 0.714844 33.613281 L 0.714844 108.839844 C 0.714844 110.246094 1.847656 111.378906 3.253906 111.378906 L 42.238281 111.378906 C 43.640625 111.378906 44.777344 110.246094 44.777344 108.839844 L 44.777344 35.5625 C 44.777344 33.441406 46.496094 31.726562 48.613281 31.726562 L 76.023438 31.726562 C 76.753906 31.726562 77.449219 32.039062 77.933594 32.585938 L 123.964844 89.605469 C 124.890625 90.660156 126.488281 90.765625 127.542969 89.839844 L 147.125 72.660156 C 148.175781 71.734375 148.285156 70.132812 147.359375 69.082031 L 120.414062 36.15625 C 119.214844 34.691406 119.664062 32.34375 121.445312 31.703125 C 121.851562 31.554688 122.285156 31.476562 122.738281 31.476562 L 150.148438 31.476562 C 150.878906 31.476562 151.574219 31.789062 152.058594 32.34375 L 198.089844 89.359375 C 199.011719 90.410156 200.617188 90.515625 201.667969 89.59375 L 221.25 72.414062 C 222.300781 71.492188 222.40625 69.886719 221.484375 68.832031 Z M 221.484375 68.832031 " clip-rule="nonzero"/></clipPath><clipPath id="381dd88f0d"><rect x="0" width="223" y="0" height="112"/></clipPath><clipPath id="de4cb73523"><path d="M 283.0625 316.140625 L 409.632812 316.140625 L 409.632812 406.570312 L 283.0625 406.570312 Z M 283.0625 316.140625 " clip-rule="nonzero"/></clipPath><clipPath id="4e7d6f099c"><path d="M 283.0625 406.5 L 283.0625 318.074219 L 298 318.074219 L 299.761719 327.214844 L 300.640625 327.214844 C 302.863281 324.402344 305.96875 321.882812 309.957031 319.65625 C 313.9375 317.429688 318.277344 316.320312 322.964844 316.320312 C 329.058594 316.320312 334.363281 317.785156 338.875 320.710938 C 343.382812 323.644531 346.523438 326.863281 348.277344 330.378906 L 349.15625 330.378906 C 351.5 326.75 355.222656 323.496094 360.320312 320.621094 C 365.417969 317.753906 371.132812 316.320312 377.460938 316.320312 C 383.554688 316.320312 389.035156 317.8125 393.894531 320.800781 C 398.761719 323.789062 402.601562 327.917969 405.414062 333.191406 C 408.226562 338.46875 409.632812 344.503906 409.632812 351.300781 L 409.632812 406.5 L 392.226562 406.5 L 392.226562 352.355469 C 392.226562 346.261719 390.613281 341.457031 387.390625 337.941406 C 384.167969 334.425781 379.863281 332.664062 374.472656 332.664062 C 369.199219 332.664062 364.628906 334.574219 360.757812 338.378906 C 356.894531 342.1875 354.960938 346.847656 354.960938 352.355469 L 354.960938 406.5 L 337.730469 406.5 L 337.730469 352.355469 C 337.730469 346.378906 336.089844 341.605469 332.808594 338.027344 C 329.527344 334.453125 325.1875 332.664062 319.800781 332.664062 C 314.527344 332.664062 309.984375 334.574219 306.179688 338.378906 C 302.367188 342.1875 300.464844 346.847656 300.464844 352.355469 L 300.464844 406.5 Z M 283.0625 406.5 " clip-rule="nonzero"/></clipPath><clipPath id="3a229454df"><path d="M 0.0625 0.140625 L 126.632812 0.140625 L 126.632812 90.558594 L 0.0625 90.558594 Z M 0.0625 0.140625 " clip-rule="nonzero"/></clipPath><clipPath id="4d68dfabf8"><path d="M 0.0625 90.5 L 0.0625 2.074219 L 15 2.074219 L 16.761719 11.214844 L 17.640625 11.214844 C 19.863281 8.402344 22.96875 5.882812 26.957031 3.65625 C 30.9375 1.429688 35.277344 0.320312 39.964844 0.320312 C 46.058594 0.320312 51.363281 1.785156 55.875 4.710938 C 60.382812 7.644531 63.523438 10.863281 65.277344 14.378906 L 66.15625 14.378906 C 68.5 10.75 72.222656 7.496094 77.320312 4.621094 C 82.417969 1.753906 88.132812 0.320312 94.460938 0.320312 C 100.554688 0.320312 106.035156 1.8125 110.894531 4.800781 C 115.761719 7.789062 119.601562 11.917969 122.414062 17.191406 C 125.226562 22.46875 126.632812 28.503906 126.632812 35.300781 L 126.632812 90.5 L 109.226562 90.5 L 109.226562 36.355469 C 109.226562 30.261719 107.613281 25.457031 104.390625 21.941406 C 101.167969 18.425781 96.863281 16.664062 91.472656 16.664062 C 86.199219 16.664062 81.628906 18.574219 77.757812 22.378906 C 73.894531 26.1875 71.960938 30.847656 71.960938 36.355469 L 71.960938 90.5 L 54.730469 90.5 L 54.730469 36.355469 C 54.730469 30.378906 53.089844 25.605469 49.808594 22.027344 C 46.527344 18.453125 42.1875 16.664062 36.800781 16.664062 C 31.527344 16.664062 26.984375 18.574219 23.179688 22.378906 C 19.367188 26.1875 17.464844 30.847656 17.464844 36.355469 L 17.464844 90.5 Z M 0.0625 90.5 " clip-rule="nonzero"/></clipPath><clipPath id="bc871e0f98"><rect x="0" width="127" y="0" height="91"/></clipPath><clipPath id="3cf17c7fe1"><path d="M 432.664062 318.078125 L 511.59375 318.078125 L 511.59375 408.335938 L 432.664062 408.335938 Z M 432.664062 318.078125 " clip-rule="nonzero"/></clipPath><clipPath id="f8327e19d8"><path d="M 449.804688 403.59375 C 444.472656 400.492188 440.316406 396.125 437.324219 390.5 C 434.335938 384.875 432.84375 378.433594 432.84375 371.164062 L 432.84375 318.078125 L 450.242188 318.078125 L 450.242188 369.757812 C 450.242188 376.085938 452.292969 381.359375 456.398438 385.574219 C 460.496094 389.796875 465.597656 391.90625 471.691406 391.90625 C 475.792969 391.90625 479.570312 390.914062 483.027344 388.921875 C 486.484375 386.925781 489.207031 384.234375 491.203125 380.832031 C 493.195312 377.4375 494.191406 373.742188 494.191406 369.757812 L 494.191406 318.078125 L 511.59375 318.078125 L 511.59375 406.496094 L 496.652344 406.496094 L 494.894531 397.355469 L 494.015625 397.355469 C 491.554688 400.285156 488.039062 402.835938 483.46875 405 C 478.898438 407.171875 473.738281 408.257812 468 408.257812 C 461.199219 408.257812 455.136719 406.703125 449.804688 403.59375 Z M 449.804688 403.59375 " clip-rule="nonzero"/></clipPath><clipPath id="e0466a5542"><path d="M 0.71875 0.078125 L 79.59375 0.078125 L 79.59375 90.335938 L 0.71875 90.335938 Z M 0.71875 0.078125 " clip-rule="nonzero"/></clipPath><clipPath id="22b81e326b"><path d="M 17.804688 85.59375 C 12.472656 82.492188 8.316406 78.125 5.324219 72.5 C 2.335938 66.875 0.84375 60.433594 0.84375 53.164062 L 0.84375 0.078125 L 18.242188 0.078125 L 18.242188 51.757812 C 18.242188 58.085938 20.292969 63.359375 24.398438 67.574219 C 28.496094 71.796875 33.597656 73.90625 39.691406 73.90625 C 43.792969 73.90625 47.570312 72.914062 51.027344 70.921875 C 54.484375 68.925781 57.207031 66.234375 59.203125 62.832031 C 61.195312 59.4375 62.191406 55.742188 62.191406 51.757812 L 62.191406 0.078125 L 79.59375 0.078125 L 79.59375 88.496094 L 64.652344 88.496094 L 62.894531 79.355469 L 62.015625 79.355469 C 59.554688 82.285156 56.039062 84.835938 51.46875 87 C 46.898438 89.171875 41.738281 90.257812 36 90.257812 C 29.199219 90.257812 23.136719 88.703125 17.804688 85.59375 Z M 17.804688 85.59375 " clip-rule="nonzero"/></clipPath><clipPath id="72b0fe79f3"><rect x="0" width="80" y="0" height="91"/></clipPath><clipPath id="8100a3f47e"><path d="M 524.386719 318 L 612.753906 318 L 612.753906 406.554688 L 524.386719 406.554688 Z M 524.386719 318 " clip-rule="nonzero"/></clipPath><clipPath id="632076d3c7"><path d="M 581.25 406.554688 L 555.726562 406.554688 L 524.566406 318.007812 L 542.875 318.007812 L 566.816406 386.835938 L 570.335938 386.835938 L 594.277344 318.007812 L 612.585938 318.007812 Z M 581.25 406.554688 " clip-rule="nonzero"/></clipPath><clipPath id="e17c3f9c99"><path d="M 0.398438 0 L 88.71875 0 L 88.71875 88.554688 L 0.398438 88.554688 Z M 0.398438 0 " clip-rule="nonzero"/></clipPath><clipPath id="e25c089abb"><path d="M 57.25 88.554688 L 31.726562 88.554688 L 0.566406 0.0078125 L 18.875 0.0078125 L 42.816406 68.835938 L 46.335938 68.835938 L 70.277344 0.0078125 L 88.585938 0.0078125 Z M 57.25 88.554688 " clip-rule="nonzero"/></clipPath><clipPath id="4f876461ed"><rect x="0" width="89" y="0" height="89"/></clipPath><clipPath id="3778f6bc3f"><path d="M 618.445312 316.296875 L 703.945312 316.296875 L 703.945312 408.546875 L 618.445312 408.546875 Z M 618.445312 316.296875 " clip-rule="nonzero"/></clipPath><clipPath id="f2eccb6a4f"><path d="M 708.433594 318 L 794.417969 318 L 794.417969 406.507812 L 708.433594 406.507812 Z M 708.433594 318 " clip-rule="nonzero"/></clipPath><clipPath id="6113b91c70"><path d="M 728.492188 406.507812 L 708.433594 406.507812 L 738.34375 361.289062 L 709.667969 318.007812 L 729.546875 318.007812 L 749.605469 348.792969 L 753.125 348.792969 L 773.003906 318.007812 L 793.0625 318.007812 L 764.386719 361.289062 L 794.296875 406.507812 L 774.0625 406.507812 L 753.125 373.957031 L 749.605469 373.957031 Z M 728.492188 406.507812 " clip-rule="nonzero"/></clipPath><clipPath id="4d8fb2eb68"><path d="M 0.433594 0 L 86.398438 0 L 86.398438 88.507812 L 0.433594 88.507812 Z M 0.433594 0 " clip-rule="nonzero"/></clipPath><clipPath id="fecd1eff5f"><path d="M 20.492188 88.507812 L 0.433594 88.507812 L 30.34375 43.289062 L 1.667969 0.0078125 L 21.546875 0.0078125 L 41.605469 30.792969 L 45.125 30.792969 L 65.003906 0.0078125 L 85.0625 0.0078125 L 56.386719 43.289062 L 86.296875 88.507812 L 66.0625 88.507812 L 45.125 55.957031 L 41.605469 55.957031 Z M 20.492188 88.507812 " clip-rule="nonzero"/></clipPath><clipPath id="f791ae515c"><rect x="0" width="87" y="0" height="89"/></clipPath></defs><g clip-path="url(#099110e7f3)"><g clip-path="url(#18222d36a4)"><g transform="matrix(1, 0, 0, 1, 15, 295)"><g clip-path="url(#381dd88f0d)"><g clip-path="url(#295738c7f0)"><g clip-path="url(#a97ffabdba)"><path fill="#ff6c11" d="M 0.714844 0.355469 L 222.042969 0.355469 L 222.042969 111.378906 L 0.714844 111.378906 Z M 0.714844 0.355469 " fill-opacity="1" fill-rule="nonzero"/></g></g></g></g></g></g><g clip-path="url(#de4cb73523)"><g clip-path="url(#4e7d6f099c)"><g transform="matrix(1, 0, 0, 1, 283, 316)"><g clip-path="url(#bc871e0f98)"><g clip-path="url(#3a229454df)"><g clip-path="url(#4d68dfabf8)"><path fill="#ffffff" d="M 0.0625 0.320312 L 126.632812 0.320312 L 126.632812 90.570312 L 0.0625 90.570312 Z M 0.0625 0.320312 " fill-opacity="1" fill-rule="nonzero"/></g></g></g></g></g></g><g clip-path="url(#3cf17c7fe1)"><g clip-path="url(#f8327e19d8)"><g transform="matrix(1, 0, 0, 1, 432, 318)"><g clip-path="url(#72b0fe79f3)"><g clip-path="url(#e0466a5542)"><g clip-path="url(#22b81e326b)"><path fill="#ffffff" d="M 0.84375 0.078125 L 79.59375 0.078125 L 79.59375 90.335938 L 0.84375 90.335938 Z M 0.84375 0.078125 " fill-opacity="1" fill-rule="nonzero"/></g></g></g></g></g></g><g clip-path="url(#8100a3f47e)"><g clip-path="url(#632076d3c7)"><g transform="matrix(1, 0, 0, 1, 524, 318)"><g clip-path="url(#4f876461ed)"><g clip-path="url(#e17c3f9c99)"><g clip-path="url(#e25c089abb)"><path fill="#ffffff" d="M 0.566406 0.0078125 L 88.574219 0.0078125 L 88.574219 88.554688 L 0.566406 88.554688 Z M 0.566406 0.0078125 " fill-opacity="1" fill-rule="nonzero"/></g></g></g></g></g></g><g clip-path="url(#3778f6bc3f)"><path fill="#ffffff" d="M 686.703125 355.605469 C 686.121094 348.554688 683.550781 342.734375 679.003906 338.152344 C 674.453125 333.570312 668.792969 331.28125 662.027344 331.28125 C 655.027344 331.28125 649.132812 333.570312 644.351562 338.152344 C 639.5625 342.734375 636.707031 348.554688 635.773438 355.605469 Z M 639.800781 402.585938 C 633.148438 398.648438 627.925781 393.179688 624.136719 386.191406 C 620.339844 379.199219 618.449219 371.234375 618.449219 362.304688 C 618.449219 353.488281 620.339844 345.589844 624.136719 338.59375 C 627.925781 331.605469 633.148438 326.140625 639.800781 322.203125 C 646.449219 318.265625 653.859375 316.296875 662.027344 316.296875 C 669.839844 316.296875 676.929688 318.179688 683.289062 321.9375 C 689.648438 325.699219 694.667969 330.867188 698.339844 337.449219 C 702.015625 344.035156 703.855469 351.433594 703.855469 359.660156 C 703.855469 363.773438 703.5625 366.886719 702.980469 369 L 635.773438 369 C 636.589844 376.171875 639.449219 382.019531 644.351562 386.542969 C 649.253906 391.070312 655.140625 393.328125 662.027344 393.328125 C 666.925781 393.328125 671.242188 392.214844 674.976562 389.980469 C 678.710938 387.75 681.511719 384.871094 683.378906 381.339844 L 701.40625 381.339844 C 698.71875 389.214844 693.992188 395.710938 687.230469 400.820312 C 680.460938 405.929688 672.058594 408.492188 662.027344 408.492188 C 653.859375 408.492188 646.449219 406.519531 639.800781 402.585938 " fill-opacity="1" fill-rule="nonzero"/></g><g clip-path="url(#f2eccb6a4f)"><g clip-path="url(#6113b91c70)"><g transform="matrix(1, 0, 0, 1, 708, 318)"><g clip-path="url(#f791ae515c)"><g clip-path="url(#4d8fb2eb68)"><g clip-path="url(#fecd1eff5f)"><path fill="#ffffff" d="M 0.433594 0.0078125 L 86.238281 0.0078125 L 86.238281 88.507812 L 0.433594 88.507812 Z M 0.433594 0.0078125 " fill-opacity="1" fill-rule="nonzero"/></g></g></g></g></g></g><g fill="#ffffff" fill-opacity="1"><g transform="translate(16.231502, 449.601741)"><g><path d="M 23.609375 0 L 23.578125 -15.96875 L 15.65625 -2.65625 L 14.21875 -2.65625 L 6.296875 -15.875 L 6.296875 0 L 3.28125 0 L 3.28125 -21.921875 L 5.859375 -21.921875 L 15 -6.515625 L 24.015625 -21.921875 L 26.578125 -21.921875 L 26.609375 0 Z M 23.609375 0 "/></g></g></g><g fill="#ffffff" fill-opacity="1"><g transform="translate(49.222998, 449.601741)"><g><path d="M 12.375 0.25 C 9.445312 0.25 7.164062 -0.582031 5.53125 -2.25 C 3.90625 -3.925781 3.09375 -6.328125 3.09375 -9.453125 L 3.09375 -21.921875 L 6.234375 -21.921875 L 6.234375 -9.578125 C 6.234375 -4.878906 8.289062 -2.53125 12.40625 -2.53125 C 14.40625 -2.53125 15.9375 -3.109375 17 -4.265625 C 18.0625 -5.429688 18.59375 -7.203125 18.59375 -9.578125 L 18.59375 -21.921875 L 21.640625 -21.921875 L 21.640625 -9.453125 C 21.640625 -6.304688 20.820312 -3.898438 19.1875 -2.234375 C 17.5625 -0.578125 15.289062 0.25 12.375 0.25 Z M 12.375 0.25 "/></g></g></g><g fill="#ffffff" fill-opacity="1"><g transform="translate(77.081166, 449.601741)"><g><path d="M 3.28125 -21.921875 L 12.53125 -21.921875 C 14.84375 -21.921875 16.894531 -21.457031 18.6875 -20.53125 C 20.488281 -19.613281 21.882812 -18.328125 22.875 -16.671875 C 23.863281 -15.015625 24.359375 -13.109375 24.359375 -10.953125 C 24.359375 -8.804688 23.863281 -6.898438 22.875 -5.234375 C 21.882812 -3.578125 20.488281 -2.289062 18.6875 -1.375 C 16.894531 -0.457031 14.84375 0 12.53125 0 L 3.28125 0 Z M 12.34375 -2.71875 C 14.113281 -2.71875 15.671875 -3.0625 17.015625 -3.75 C 18.359375 -4.445312 19.394531 -5.414062 20.125 -6.65625 C 20.863281 -7.894531 21.234375 -9.328125 21.234375 -10.953125 C 21.234375 -12.585938 20.863281 -14.023438 20.125 -15.265625 C 19.394531 -16.503906 18.359375 -17.46875 17.015625 -18.15625 C 15.671875 -18.84375 14.113281 -19.1875 12.34375 -19.1875 L 6.421875 -19.1875 L 6.421875 -2.71875 Z M 12.34375 -2.71875 "/></g></g></g><g fill="#ffffff" fill-opacity="1"><g transform="translate(106.034854, 449.601741)"><g><path d="M 17.25 -5.484375 L 5.609375 -5.484375 L 3.1875 0 L -0.03125 0 L 9.890625 -21.921875 L 13 -21.921875 L 22.953125 0 L 19.671875 0 Z M 16.15625 -7.984375 L 11.421875 -18.71875 L 6.703125 -7.984375 Z M 16.15625 -7.984375 "/></g></g></g><g fill="#ffffff" fill-opacity="1"><g transform="translate(132.046266, 449.601741)"><g><path d="M 22.140625 -21.921875 L 22.140625 0 L 19.5625 0 L 6.421875 -16.34375 L 6.421875 0 L 3.28125 0 L 3.28125 -21.921875 L 5.859375 -21.921875 L 19 -5.578125 L 19 -21.921875 Z M 22.140625 -21.921875 "/></g></g></g><g fill="#ffffff" fill-opacity="1"><g transform="translate(160.561748, 449.601741)"><g><path d="M 19.671875 -2.71875 L 19.671875 0 L 1.34375 0 L 1.34375 -2.125 L 15.125 -19.1875 L 1.5625 -19.1875 L 1.5625 -21.921875 L 19.25 -21.921875 L 19.25 -19.796875 L 5.546875 -2.71875 Z M 19.671875 -2.71875 "/></g></g></g><g fill="#ffffff" fill-opacity="1"><g transform="translate(184.2256, 449.601741)"><g><path d="M 17.25 -5.484375 L 5.609375 -5.484375 L 3.1875 0 L -0.03125 0 L 9.890625 -21.921875 L 13 -21.921875 L 22.953125 0 L 19.671875 0 Z M 16.15625 -7.984375 L 11.421875 -18.71875 L 6.703125 -7.984375 Z M 16.15625 -7.984375 "/></g></g></g><g fill="#ffffff" fill-opacity="1"><g transform="translate(210.237001, 449.601741)"><g><path d="M 9.671875 0.25 C 8.023438 0.25 6.429688 -0.00390625 4.890625 -0.515625 C 3.359375 -1.023438 2.15625 -1.6875 1.28125 -2.5 L 2.4375 -4.953125 C 3.269531 -4.191406 4.335938 -3.578125 5.640625 -3.109375 C 6.953125 -2.640625 8.296875 -2.40625 9.671875 -2.40625 C 11.492188 -2.40625 12.851562 -2.710938 13.75 -3.328125 C 14.644531 -3.953125 15.09375 -4.773438 15.09375 -5.796875 C 15.09375 -6.546875 14.847656 -7.15625 14.359375 -7.625 C 13.867188 -8.09375 13.257812 -8.453125 12.53125 -8.703125 C 11.8125 -8.953125 10.796875 -9.234375 9.484375 -9.546875 C 7.835938 -9.941406 6.507812 -10.335938 5.5 -10.734375 C 4.488281 -11.128906 3.617188 -11.738281 2.890625 -12.5625 C 2.171875 -13.394531 1.8125 -14.507812 1.8125 -15.90625 C 1.8125 -17.070312 2.117188 -18.125 2.734375 -19.0625 C 3.347656 -20.007812 4.28125 -20.765625 5.53125 -21.328125 C 6.789062 -21.890625 8.347656 -22.171875 10.203125 -22.171875 C 11.503906 -22.171875 12.78125 -22.003906 14.03125 -21.671875 C 15.28125 -21.335938 16.351562 -20.859375 17.25 -20.234375 L 16.21875 -17.71875 C 15.300781 -18.300781 14.316406 -18.742188 13.265625 -19.046875 C 12.222656 -19.347656 11.203125 -19.5 10.203125 -19.5 C 8.429688 -19.5 7.101562 -19.175781 6.21875 -18.53125 C 5.332031 -17.882812 4.890625 -17.050781 4.890625 -16.03125 C 4.890625 -15.28125 5.140625 -14.671875 5.640625 -14.203125 C 6.140625 -13.734375 6.757812 -13.367188 7.5 -13.109375 C 8.238281 -12.847656 9.242188 -12.570312 10.515625 -12.28125 C 12.171875 -11.875 13.5 -11.472656 14.5 -11.078125 C 15.5 -10.679688 16.359375 -10.078125 17.078125 -9.265625 C 17.796875 -8.453125 18.15625 -7.359375 18.15625 -5.984375 C 18.15625 -4.835938 17.84375 -3.785156 17.21875 -2.828125 C 16.59375 -1.878906 15.644531 -1.128906 14.375 -0.578125 C 13.101562 -0.0234375 11.535156 0.25 9.671875 0.25 Z M 9.671875 0.25 "/></g></g></g><g fill="#ffffff" fill-opacity="1"><g transform="translate(232.774033, 449.601741)"><g/></g></g><g fill="#ffffff" fill-opacity="1"><g transform="translate(244.293152, 449.601741)"><g><path d="M 1.78125 -9.890625 L 10.203125 -9.890625 L 10.203125 -7.296875 L 1.78125 -7.296875 Z M 1.78125 -9.890625 "/></g></g></g><g fill="#ffffff" fill-opacity="1"><g transform="translate(259.380584, 449.601741)"><g/></g></g><g fill="#ffffff" fill-opacity="1"><g transform="translate(270.899702, 449.601741)"><g><path d="M 3.28125 -21.921875 L 6.421875 -21.921875 L 6.421875 -2.71875 L 18.28125 -2.71875 L 18.28125 0 L 3.28125 0 Z M 3.28125 -21.921875 "/></g></g></g><g fill="#ffffff" fill-opacity="1"><g transform="translate(292.591588, 449.601741)"><g><path d="M 13.1875 0.25 C 10.96875 0.25 8.972656 -0.234375 7.203125 -1.203125 C 5.429688 -2.171875 4.035156 -3.507812 3.015625 -5.21875 C 2.003906 -6.9375 1.5 -8.847656 1.5 -10.953125 C 1.5 -13.066406 2.003906 -14.976562 3.015625 -16.6875 C 4.035156 -18.394531 5.429688 -19.734375 7.203125 -20.703125 C 8.972656 -21.679688 10.96875 -22.171875 13.1875 -22.171875 C 15.375 -22.171875 17.351562 -21.679688 19.125 -20.703125 C 20.90625 -19.734375 22.296875 -18.398438 23.296875 -16.703125 C 24.296875 -15.003906 24.796875 -13.085938 24.796875 -10.953125 C 24.796875 -8.828125 24.296875 -6.910156 23.296875 -5.203125 C 22.296875 -3.503906 20.90625 -2.171875 19.125 -1.203125 C 17.351562 -0.234375 15.375 0.25 13.1875 0.25 Z M 13.1875 -2.53125 C 14.789062 -2.53125 16.234375 -2.894531 17.515625 -3.625 C 18.796875 -4.363281 19.804688 -5.375 20.546875 -6.65625 C 21.296875 -7.9375 21.671875 -9.367188 21.671875 -10.953125 C 21.671875 -12.546875 21.296875 -13.984375 20.546875 -15.265625 C 19.804688 -16.546875 18.796875 -17.550781 17.515625 -18.28125 C 16.234375 -19.007812 14.789062 -19.375 13.1875 -19.375 C 11.570312 -19.375 10.113281 -19.007812 8.8125 -18.28125 C 7.507812 -17.550781 6.488281 -16.546875 5.75 -15.265625 C 5.007812 -13.984375 4.640625 -12.546875 4.640625 -10.953125 C 4.640625 -9.367188 5.007812 -7.9375 5.75 -6.65625 C 6.488281 -5.375 7.507812 -4.363281 8.8125 -3.625 C 10.113281 -2.894531 11.570312 -2.53125 13.1875 -2.53125 Z M 13.1875 -2.53125 "/></g></g></g><g fill="#ffffff" fill-opacity="1"><g transform="translate(321.983494, 449.601741)"><g><path d="M 18.46875 -11.078125 L 21.484375 -11.078125 L 21.484375 -2.53125 C 20.398438 -1.632812 19.132812 -0.945312 17.6875 -0.46875 C 16.25 0.0078125 14.75 0.25 13.1875 0.25 C 10.96875 0.25 8.972656 -0.234375 7.203125 -1.203125 C 5.429688 -2.171875 4.035156 -3.503906 3.015625 -5.203125 C 2.003906 -6.910156 1.5 -8.828125 1.5 -10.953125 C 1.5 -13.085938 2.003906 -15.007812 3.015625 -16.71875 C 4.035156 -18.425781 5.4375 -19.757812 7.21875 -20.71875 C 9 -21.6875 11.007812 -22.171875 13.25 -22.171875 C 15 -22.171875 16.585938 -21.882812 18.015625 -21.3125 C 19.453125 -20.738281 20.671875 -19.894531 21.671875 -18.78125 L 19.734375 -16.84375 C 17.972656 -18.53125 15.851562 -19.375 13.375 -19.375 C 11.695312 -19.375 10.195312 -19.015625 8.875 -18.296875 C 7.550781 -17.578125 6.515625 -16.578125 5.765625 -15.296875 C 5.015625 -14.015625 4.640625 -12.566406 4.640625 -10.953125 C 4.640625 -9.367188 5.015625 -7.9375 5.765625 -6.65625 C 6.515625 -5.375 7.550781 -4.363281 8.875 -3.625 C 10.195312 -2.894531 11.6875 -2.53125 13.34375 -2.53125 C 15.300781 -2.53125 17.007812 -3.003906 18.46875 -3.953125 Z M 18.46875 -11.078125 "/></g></g></g><g fill="#ffffff" fill-opacity="1"><g transform="translate(349.246935, 449.601741)"><g><path d="M 3.28125 -21.921875 L 6.421875 -21.921875 L 6.421875 0 L 3.28125 0 Z M 3.28125 -21.921875 "/></g></g></g><g fill="#ffffff" fill-opacity="1"><g transform="translate(362.049394, 449.601741)"><g><path d="M 9.671875 0.25 C 8.023438 0.25 6.429688 -0.00390625 4.890625 -0.515625 C 3.359375 -1.023438 2.15625 -1.6875 1.28125 -2.5 L 2.4375 -4.953125 C 3.269531 -4.191406 4.335938 -3.578125 5.640625 -3.109375 C 6.953125 -2.640625 8.296875 -2.40625 9.671875 -2.40625 C 11.492188 -2.40625 12.851562 -2.710938 13.75 -3.328125 C 14.644531 -3.953125 15.09375 -4.773438 15.09375 -5.796875 C 15.09375 -6.546875 14.847656 -7.15625 14.359375 -7.625 C 13.867188 -8.09375 13.257812 -8.453125 12.53125 -8.703125 C 11.8125 -8.953125 10.796875 -9.234375 9.484375 -9.546875 C 7.835938 -9.941406 6.507812 -10.335938 5.5 -10.734375 C 4.488281 -11.128906 3.617188 -11.738281 2.890625 -12.5625 C 2.171875 -13.394531 1.8125 -14.507812 1.8125 -15.90625 C 1.8125 -17.070312 2.117188 -18.125 2.734375 -19.0625 C 3.347656 -20.007812 4.28125 -20.765625 5.53125 -21.328125 C 6.789062 -21.890625 8.347656 -22.171875 10.203125 -22.171875 C 11.503906 -22.171875 12.78125 -22.003906 14.03125 -21.671875 C 15.28125 -21.335938 16.351562 -20.859375 17.25 -20.234375 L 16.21875 -17.71875 C 15.300781 -18.300781 14.316406 -18.742188 13.265625 -19.046875 C 12.222656 -19.347656 11.203125 -19.5 10.203125 -19.5 C 8.429688 -19.5 7.101562 -19.175781 6.21875 -18.53125 C 5.332031 -17.882812 4.890625 -17.050781 4.890625 -16.03125 C 4.890625 -15.28125 5.140625 -14.671875 5.640625 -14.203125 C 6.140625 -13.734375 6.757812 -13.367188 7.5 -13.109375 C 8.238281 -12.847656 9.242188 -12.570312 10.515625 -12.28125 C 12.171875 -11.875 13.5 -11.472656 14.5 -11.078125 C 15.5 -10.679688 16.359375 -10.078125 17.078125 -9.265625 C 17.796875 -8.453125 18.15625 -7.359375 18.15625 -5.984375 C 18.15625 -4.835938 17.84375 -3.785156 17.21875 -2.828125 C 16.59375 -1.878906 15.644531 -1.128906 14.375 -0.578125 C 13.101562 -0.0234375 11.535156 0.25 9.671875 0.25 Z M 9.671875 0.25 "/></g></g></g><g fill="#ffffff" fill-opacity="1"><g transform="translate(384.586403, 449.601741)"><g><path d="M 7.640625 -19.1875 L 0.125 -19.1875 L 0.125 -21.921875 L 18.25 -21.921875 L 18.25 -19.1875 L 10.734375 -19.1875 L 10.734375 0 L 7.640625 0 Z M 7.640625 -19.1875 "/></g></g></g><g fill="#ffffff" fill-opacity="1"><g transform="translate(406.05918, 449.601741)"><g><path d="M 3.28125 -21.921875 L 6.421875 -21.921875 L 6.421875 0 L 3.28125 0 Z M 3.28125 -21.921875 "/></g></g></g><g fill="#ffffff" fill-opacity="1"><g transform="translate(418.861639, 449.601741)"><g><path d="M 13.09375 0.25 C 10.894531 0.25 8.914062 -0.234375 7.15625 -1.203125 C 5.394531 -2.171875 4.007812 -3.503906 3 -5.203125 C 2 -6.910156 1.5 -8.828125 1.5 -10.953125 C 1.5 -13.085938 2 -15.003906 3 -16.703125 C 4.007812 -18.398438 5.398438 -19.734375 7.171875 -20.703125 C 8.941406 -21.679688 10.925781 -22.171875 13.125 -22.171875 C 14.832031 -22.171875 16.394531 -21.882812 17.8125 -21.3125 C 19.238281 -20.738281 20.453125 -19.882812 21.453125 -18.75 L 19.40625 -16.78125 C 17.757812 -18.507812 15.707031 -19.375 13.25 -19.375 C 11.613281 -19.375 10.140625 -19.007812 8.828125 -18.28125 C 7.515625 -17.550781 6.488281 -16.546875 5.75 -15.265625 C 5.007812 -13.984375 4.640625 -12.546875 4.640625 -10.953125 C 4.640625 -9.367188 5.007812 -7.9375 5.75 -6.65625 C 6.488281 -5.375 7.515625 -4.363281 8.828125 -3.625 C 10.140625 -2.894531 11.613281 -2.53125 13.25 -2.53125 C 15.6875 -2.53125 17.738281 -3.410156 19.40625 -5.171875 L 21.453125 -3.1875 C 20.453125 -2.0625 19.234375 -1.207031 17.796875 -0.625 C 16.367188 -0.0390625 14.800781 0.25 13.09375 0.25 Z M 13.09375 0.25 "/></g></g></g><g fill="#ffffff" fill-opacity="1"><g transform="translate(444.591343, 449.601741)"><g><path d="M 17.25 -5.484375 L 5.609375 -5.484375 L 3.1875 0 L -0.03125 0 L 9.890625 -21.921875 L 13 -21.921875 L 22.953125 0 L 19.671875 0 Z M 16.15625 -7.984375 L 11.421875 -18.71875 L 6.703125 -7.984375 Z M 16.15625 -7.984375 "/></g></g></g><g fill="#ffffff" fill-opacity="1"><g transform="translate(470.602756, 449.601741)"><g/></g></g><g fill="#ffffff" fill-opacity="1"><g transform="translate(482.12192, 449.601741)"><g><path d="M 1.78125 -9.890625 L 10.203125 -9.890625 L 10.203125 -7.296875 L 1.78125 -7.296875 Z M 1.78125 -9.890625 "/></g></g></g><g fill="#ffffff" fill-opacity="1"><g transform="translate(497.209306, 449.601741)"><g/></g></g><g fill="#ffffff" fill-opacity="1"><g transform="translate(508.728425, 449.601741)"><g><path d="M 23.609375 0 L 23.578125 -15.96875 L 15.65625 -2.65625 L 14.21875 -2.65625 L 6.296875 -15.875 L 6.296875 0 L 3.28125 0 L 3.28125 -21.921875 L 5.859375 -21.921875 L 15 -6.515625 L 24.015625 -21.921875 L 26.578125 -21.921875 L 26.609375 0 Z M 23.609375 0 "/></g></g></g><g fill="#ffffff" fill-opacity="1"><g transform="translate(541.719909, 449.601741)"><g><path d="M 12.375 0.25 C 9.445312 0.25 7.164062 -0.582031 5.53125 -2.25 C 3.90625 -3.925781 3.09375 -6.328125 3.09375 -9.453125 L 3.09375 -21.921875 L 6.234375 -21.921875 L 6.234375 -9.578125 C 6.234375 -4.878906 8.289062 -2.53125 12.40625 -2.53125 C 14.40625 -2.53125 15.9375 -3.109375 17 -4.265625 C 18.0625 -5.429688 18.59375 -7.203125 18.59375 -9.578125 L 18.59375 -21.921875 L 21.640625 -21.921875 L 21.640625 -9.453125 C 21.640625 -6.304688 20.820312 -3.898438 19.1875 -2.234375 C 17.5625 -0.578125 15.289062 0.25 12.375 0.25 Z M 12.375 0.25 "/></g></g></g><g fill="#ffffff" fill-opacity="1"><g transform="translate(569.578122, 449.601741)"><g><path d="M 3.28125 -21.921875 L 6.421875 -21.921875 L 6.421875 -2.71875 L 18.28125 -2.71875 L 18.28125 0 L 3.28125 0 Z M 3.28125 -21.921875 "/></g></g></g><g fill="#ffffff" fill-opacity="1"><g transform="translate(591.269985, 449.601741)"><g><path d="M 7.640625 -19.1875 L 0.125 -19.1875 L 0.125 -21.921875 L 18.25 -21.921875 L 18.25 -19.1875 L 10.734375 -19.1875 L 10.734375 0 L 7.640625 0 Z M 7.640625 -19.1875 "/></g></g></g><g fill="#ffffff" fill-opacity="1"><g transform="translate(612.742762, 449.601741)"><g><path d="M 3.28125 -21.921875 L 6.421875 -21.921875 L 6.421875 0 L 3.28125 0 Z M 3.28125 -21.921875 "/></g></g></g><g fill="#ffffff" fill-opacity="1"><g transform="translate(625.545221, 449.601741)"><g><path d="M 9.671875 0.25 C 8.023438 0.25 6.429688 -0.00390625 4.890625 -0.515625 C 3.359375 -1.023438 2.15625 -1.6875 1.28125 -2.5 L 2.4375 -4.953125 C 3.269531 -4.191406 4.335938 -3.578125 5.640625 -3.109375 C 6.953125 -2.640625 8.296875 -2.40625 9.671875 -2.40625 C 11.492188 -2.40625 12.851562 -2.710938 13.75 -3.328125 C 14.644531 -3.953125 15.09375 -4.773438 15.09375 -5.796875 C 15.09375 -6.546875 14.847656 -7.15625 14.359375 -7.625 C 13.867188 -8.09375 13.257812 -8.453125 12.53125 -8.703125 C 11.8125 -8.953125 10.796875 -9.234375 9.484375 -9.546875 C 7.835938 -9.941406 6.507812 -10.335938 5.5 -10.734375 C 4.488281 -11.128906 3.617188 -11.738281 2.890625 -12.5625 C 2.171875 -13.394531 1.8125 -14.507812 1.8125 -15.90625 C 1.8125 -17.070312 2.117188 -18.125 2.734375 -19.0625 C 3.347656 -20.007812 4.28125 -20.765625 5.53125 -21.328125 C 6.789062 -21.890625 8.347656 -22.171875 10.203125 -22.171875 C 11.503906 -22.171875 12.78125 -22.003906 14.03125 -21.671875 C 15.28125 -21.335938 16.351562 -20.859375 17.25 -20.234375 L 16.21875 -17.71875 C 15.300781 -18.300781 14.316406 -18.742188 13.265625 -19.046875 C 12.222656 -19.347656 11.203125 -19.5 10.203125 -19.5 C 8.429688 -19.5 7.101562 -19.175781 6.21875 -18.53125 C 5.332031 -17.882812 4.890625 -17.050781 4.890625 -16.03125 C 4.890625 -15.28125 5.140625 -14.671875 5.640625 -14.203125 C 6.140625 -13.734375 6.757812 -13.367188 7.5 -13.109375 C 8.238281 -12.847656 9.242188 -12.570312 10.515625 -12.28125 C 12.171875 -11.875 13.5 -11.472656 14.5 -11.078125 C 15.5 -10.679688 16.359375 -10.078125 17.078125 -9.265625 C 17.796875 -8.453125 18.15625 -7.359375 18.15625 -5.984375 C 18.15625 -4.835938 17.84375 -3.785156 17.21875 -2.828125 C 16.59375 -1.878906 15.644531 -1.128906 14.375 -0.578125 C 13.101562 -0.0234375 11.535156 0.25 9.671875 0.25 Z M 9.671875 0.25 "/></g></g></g><g fill="#ffffff" fill-opacity="1"><g transform="translate(648.082253, 449.601741)"><g><path d="M 19.1875 -2.71875 L 19.1875 0 L 3.28125 0 L 3.28125 -21.921875 L 18.75 -21.921875 L 18.75 -19.1875 L 6.421875 -19.1875 L 6.421875 -12.46875 L 17.40625 -12.46875 L 17.40625 -9.796875 L 6.421875 -9.796875 L 6.421875 -2.71875 Z M 19.1875 -2.71875 "/></g></g></g><g fill="#ffffff" fill-opacity="1"><g transform="translate(672.153022, 449.601741)"><g><path d="M 17.9375 0 L 13.21875 -6.734375 C 12.632812 -6.691406 12.175781 -6.671875 11.84375 -6.671875 L 6.421875 -6.671875 L 6.421875 0 L 3.28125 0 L 3.28125 -21.921875 L 11.84375 -21.921875 C 14.675781 -21.921875 16.90625 -21.238281 18.53125 -19.875 C 20.164062 -18.519531 20.984375 -16.65625 20.984375 -14.28125 C 20.984375 -12.582031 20.5625 -11.140625 19.71875 -9.953125 C 18.882812 -8.765625 17.695312 -7.898438 16.15625 -7.359375 L 21.359375 0 Z M 11.734375 -9.328125 C 13.722656 -9.328125 15.238281 -9.753906 16.28125 -10.609375 C 17.320312 -11.472656 17.84375 -12.695312 17.84375 -14.28125 C 17.84375 -15.863281 17.320312 -17.078125 16.28125 -17.921875 C 15.238281 -18.765625 13.722656 -19.1875 11.734375 -19.1875 L 6.421875 -19.1875 L 6.421875 -9.328125 Z M 11.734375 -9.328125 "/></g></g></g><g fill="#ffffff" fill-opacity="1"><g transform="translate(698.007925, 449.601741)"><g><path d="M 22.328125 -21.921875 L 12.71875 0 L 9.609375 0 L -0.03125 -21.921875 L 3.34375 -21.921875 L 11.234375 -3.90625 L 19.1875 -21.921875 Z M 22.328125 -21.921875 "/></g></g></g><g fill="#ffffff" fill-opacity="1"><g transform="translate(723.393345, 449.601741)"><g><path d="M 3.28125 -21.921875 L 6.421875 -21.921875 L 6.421875 0 L 3.28125 0 Z M 3.28125 -21.921875 "/></g></g></g><g fill="#ffffff" fill-opacity="1"><g transform="translate(736.195804, 449.601741)"><g><path d="M 13.09375 0.25 C 10.894531 0.25 8.914062 -0.234375 7.15625 -1.203125 C 5.394531 -2.171875 4.007812 -3.503906 3 -5.203125 C 2 -6.910156 1.5 -8.828125 1.5 -10.953125 C 1.5 -13.085938 2 -15.003906 3 -16.703125 C 4.007812 -18.398438 5.398438 -19.734375 7.171875 -20.703125 C 8.941406 -21.679688 10.925781 -22.171875 13.125 -22.171875 C 14.832031 -22.171875 16.394531 -21.882812 17.8125 -21.3125 C 19.238281 -20.738281 20.453125 -19.882812 21.453125 -18.75 L 19.40625 -16.78125 C 17.757812 -18.507812 15.707031 -19.375 13.25 -19.375 C 11.613281 -19.375 10.140625 -19.007812 8.828125 -18.28125 C 7.515625 -17.550781 6.488281 -16.546875 5.75 -15.265625 C 5.007812 -13.984375 4.640625 -12.546875 4.640625 -10.953125 C 4.640625 -9.367188 5.007812 -7.9375 5.75 -6.65625 C 6.488281 -5.375 7.515625 -4.363281 8.828125 -3.625 C 10.140625 -2.894531 11.613281 -2.53125 13.25 -2.53125 C 15.6875 -2.53125 17.738281 -3.410156 19.40625 -5.171875 L 21.453125 -3.1875 C 20.453125 -2.0625 19.234375 -1.207031 17.796875 -0.625 C 16.367188 -0.0390625 14.800781 0.25 13.09375 0.25 Z M 13.09375 0.25 "/></g></g></g><g fill="#ffffff" fill-opacity="1"><g transform="translate(761.925508, 449.601741)"><g><path d="M 19.1875 -2.71875 L 19.1875 0 L 3.28125 0 L 3.28125 -21.921875 L 18.75 -21.921875 L 18.75 -19.1875 L 6.421875 -19.1875 L 6.421875 -12.46875 L 17.40625 -12.46875 L 17.40625 -9.796875 L 6.421875 -9.796875 L 6.421875 -2.71875 Z M 19.1875 -2.71875 "/></g></g></g></svg>