<svg xmlns:xlink="http://www.w3.org/1999/xlink" xmlns="http://www.w3.org/2000/svg" width="100" height="60" viewBox="0 0 100 60" fill="none"><rect x="0.5" y="0.5" width="99" height="59" rx="9.5" fill="white"/><rect x="0.5" y="0.5" width="99" height="59" rx="9.5" stroke="#CACACA"/><g clip-path="url(#clip0_3123_3126)"><path d="M25.4883 44.3587V32.0859H38.7603L40.1843 33.9041L41.6563 32.0859H89.8003V43.5124C89.8003 43.5124 88.5443 44.3431 87.0883 44.3587H60.4243L58.8163 42.423V44.3587H53.5603V41.0515C53.5603 41.0515 52.8403 41.5139 51.2883 41.5139H49.4963V44.3587H41.5363L40.1123 42.5014L38.6723 44.3587H25.4883Z" fill="white"/><path d="M10 22.8302L12.992 15.9963H18.168L19.864 19.8208V15.9963H26.296L27.304 18.7628L28.28 15.9963H57.152V17.3835C57.152 17.3835 58.672 15.9963 61.16 15.9963L70.528 16.0277L72.2 19.8051V15.9963H77.584L79.064 18.1672V15.9963H84.496V28.277H79.064L77.648 26.0983V28.277H69.744L68.952 26.3412H66.824L66.04 28.277H60.68C58.536 28.277 57.16 26.9133 57.16 26.9133V28.277H49.064L47.456 26.3412V28.277H17.4L16.608 26.3412H14.488L13.696 28.277H10V22.8302Z" fill="white"/><path d="M14.0476 17.5168L10.0156 26.7097H12.6396L13.3836 24.868H17.7116L18.4556 26.7097H21.1436L17.1116 17.5168H14.0476ZM15.5436 19.6485L16.8636 22.8617H14.2236L15.5436 19.6485Z" fill="#016FD0"/><path d="M21.416 26.7019V17.509L25.152 17.5247L27.32 23.4495L29.44 17.509H33.144V26.7019H30.8V19.9307L28.312 26.7019H26.256L23.76 19.9307V26.7019H21.416Z" fill="#016FD0"/><path d="M34.752 26.7019V17.509H42.408V19.5623H37.128V21.1376H42.28V23.0733H37.12V24.7034H42.4V26.7019H34.752Z" fill="#016FD0"/><path d="M43.7598 17.5168V26.7097H46.1038V23.4417H47.0878L49.9038 26.7097H52.7678L49.6798 23.3241C50.9438 23.2222 52.2558 22.1564 52.2558 20.5028C52.2558 18.567 50.7038 17.5247 48.9758 17.5247L43.7598 17.5168ZM46.1038 19.5702H48.7838C49.4238 19.5702 49.8958 20.0639 49.8958 20.5341C49.8958 21.1454 49.2878 21.4981 48.8158 21.4981H46.1038V19.5702Z" fill="#016FD0"/><path d="M55.6088 26.7019H53.2168V17.509H55.6088V26.7019Z" fill="#016FD0"/><path d="M61.2879 26.7021H60.7679C58.2639 26.7021 56.752 24.7742 56.752 22.1488C56.752 19.4607 58.2559 17.5171 61.4079 17.5171H64V19.6958H61.32C60.04 19.6958 59.1279 20.6754 59.1279 22.1723C59.1279 23.9513 60.168 24.6958 61.656 24.6958H62.272L61.2879 26.7021Z" fill="#016FD0"/><path d="M66.3914 17.5169L62.3594 26.7019H64.9834L65.7274 24.8602H70.0554L70.7994 26.7019H73.4794L69.4474 17.509L66.3914 17.5169ZM67.8794 19.6486L69.1994 22.8617H66.5594L67.8794 19.6486Z" fill="#016FD0"/><path d="M73.752 26.7019V17.509H76.736L80.544 23.2849V17.509H82.8879V26.7019H80L76.096 20.7771V26.7019H73.752Z" fill="#016FD0"/><path d="M27.0957 42.7837V33.5908H34.7517V35.6441H29.4717V37.2194H34.6317V39.1551H29.4717V40.7852H34.7517V42.7837H27.0957Z" fill="#016FD0"/><path d="M64.5918 42.7837V33.5908H72.2478V35.6441H66.9678V37.2194H72.1038V39.1551H66.9678V40.7852H72.2478V42.7837H64.5918Z" fill="#016FD0"/><path d="M35.0489 42.7837L38.7769 38.246L34.9609 33.5908H37.9129L40.1849 36.467L42.4649 33.5908H45.3049L41.5369 38.1833L45.2729 42.7758H42.3209L40.1129 39.9467L37.9609 42.7758L35.0489 42.7837Z" fill="#016FD0"/><path d="M45.5527 33.5986V42.7915H47.9607V39.8918H50.4327C52.5207 39.8918 54.1047 38.8024 54.1047 36.6943C54.1047 34.9466 52.8647 33.6065 50.7367 33.6065H45.5527V33.5986ZM47.9607 35.6755H50.5607C51.2327 35.6755 51.7207 36.083 51.7207 36.7335C51.7207 37.3447 51.2407 37.7915 50.5527 37.7915H47.9607V35.6755Z" fill="#016FD0"/><path d="M55.1133 33.5908V42.7837H57.4573V39.5156H58.4413L61.2573 42.7837H64.1213L61.0333 39.3981C62.2973 39.2962 63.6093 38.2304 63.6093 36.5767C63.6093 34.641 62.0573 33.5987 60.3293 33.5987L55.1133 33.5908ZM57.4653 35.652H60.1453C60.7853 35.652 61.2573 36.1457 61.2573 36.6159C61.2573 37.2272 60.6493 37.5799 60.1773 37.5799H57.4653V35.652Z" fill="#016FD0"/><path d="M73.3351 42.7836V40.7852H78.0311C78.7271 40.7852 79.0231 40.4169 79.0231 40.0172C79.0231 39.6332 78.7271 39.2413 78.0311 39.2413H75.9111C74.0711 39.2413 73.0391 38.1441 73.0391 36.4905C73.0391 35.0171 73.9831 33.5986 76.7191 33.5986H81.2871L80.3031 35.6676H76.3511C75.5991 35.6676 75.3671 36.0595 75.3671 36.4278C75.3671 36.8118 75.6551 37.2272 76.2311 37.2272H78.4551C80.5111 37.2272 81.3991 38.3714 81.3991 39.8683C81.3991 41.4749 80.4071 42.7915 78.3431 42.7915H73.3351V42.7836Z" fill="#016FD0"/><path d="M81.9444 42.7836V40.7852H86.6404C87.3364 40.7852 87.6324 40.4169 87.6324 40.0172C87.6324 39.6332 87.3364 39.2413 86.6404 39.2413H84.5204C82.6804 39.2413 81.6484 38.1441 81.6484 36.4905C81.6484 35.0171 82.5924 33.5986 85.3284 33.5986H89.8964L88.9124 35.6676H84.9604C84.2084 35.6676 83.9764 36.0595 83.9764 36.4278C83.9764 36.8118 84.2644 37.2272 84.8404 37.2272H87.0644C89.1204 37.2272 90.0084 38.3714 90.0084 39.8683C90.0084 41.4749 89.0164 42.7915 86.9524 42.7915H81.9444V42.7836Z" fill="#016FD0"/></g><defs><clipPath id="clip0_3123_3126"><rect width="80" height="28.3544" fill="white" transform="translate(10 16)"/></clipPath></defs></svg>