<svg xmlns:xlink="http://www.w3.org/1999/xlink" xmlns="http://www.w3.org/2000/svg" width="100" height="60" viewBox="0 0 100 60" fill="none"><rect x="0.5" y="0.5" width="99" height="59" rx="9.5" fill="white"/><rect x="0.5" y="0.5" width="99" height="59" rx="9.5" stroke="#CACACA"/><path d="M75.2413 15.0708C83.3701 15.0708 90 21.726 90 29.8856C90 37.9745 83.3701 44.6296 75.2413 44.6296C69.7752 44.6296 65.0672 41.6737 62.4752 37.2311C59.9537 41.6206 55.1752 44.6296 49.762 44.6296C44.5074 44.6296 39.8523 41.8153 37.2603 37.5674C34.6683 41.7445 30.0132 44.5588 24.7586 44.5588C16.6299 44.5588 10 37.9037 10 29.8148C10 21.6552 16.6299 15 24.7586 15C30.0132 15 34.6683 17.8143 37.2603 22.0623C39.8523 17.8851 44.5074 15.0708 49.762 15.0708C55.2281 15.0708 59.9361 18.0267 62.5281 22.4694C65.0672 18.0798 69.8457 15.0708 75.2413 15.0708Z" fill="#034694"/><path fill-rule="evenodd" clip-rule="evenodd" d="M61.3844 22.0801C61.3844 22.0801 63.0595 23.1775 63.0771 23.1598L63.2182 23.1952C64.6817 20.2039 67.2561 17.8498 70.5711 16.7347C72.1933 16.186 73.9389 15.9382 75.7199 15.9382C78.6822 15.9559 81.1155 16.8763 83.1256 18.2569L83.6899 18.8233C81.6268 17.4073 78.8938 16.4869 75.9138 16.4869C74.5032 16.4869 73.1278 16.6816 71.823 17.0887C67.8027 18.3454 64.8052 21.2836 63.2887 24.4165C63.2887 24.4165 62.7068 23.62 62.0015 22.8412C61.2962 22.0801 61.3844 22.0801 61.3844 22.0801Z" fill="#5F5AA2"/><path d="M34.1784 34.5055C34.1079 34.5055 32.3975 34.594 31.6569 32.5763C31.269 30.5939 32.468 29.3195 33.9844 29.1071H36.8762V30.6116H35.0248C34.055 30.8771 33.7728 31.4612 34.0902 32.3462C34.3547 32.771 34.7426 33.0542 35.2011 33.0542L37.4405 33.0718V27.7973C37.4228 27.3548 37.2112 27.3548 36.8762 27.3548H32.4856V25.7972H38.5866C39.3624 25.8503 39.8385 26.3459 39.9972 26.9831V34.5232L34.1784 34.5055ZM41.0552 34.5055V25.7795H47.0503C47.9143 25.8149 49.5189 26.1866 49.6247 28.3991V34.5055H47.0327V27.9743C47.0503 27.5318 46.3627 27.0716 45.7631 27.1778H43.5767V34.5232H41.0552V34.5055ZM67.4162 34.5055V27.107C67.4162 26.5052 68.0334 25.7795 68.6152 25.7795H71.7363V27.107H70.2904C69.6732 27.3017 69.7614 27.6557 69.7614 27.9389V34.5055H67.4162ZM20.1074 34.5055V22.8413H27.6895C28.3067 22.8413 28.818 23.1599 29.1178 23.2838C30.9163 24.629 30.8634 26.5229 30.4226 27.3725C30.1757 28.169 29.682 28.3814 29.6644 28.5761C30.9692 29.4611 31.0927 30.6824 30.9869 31.9037C30.546 33.5143 29.4528 34.24 28.3419 34.5055H23.8279V32.9126H26.4905C27.4779 32.6294 27.7424 32.0807 27.9188 31.6913C28.1656 30.7001 27.8306 29.6381 26.4552 29.3195H23.8103V27.7442H26.2965C27.7424 27.2309 27.8306 25.6556 27.284 25.0715C26.8255 24.5759 26.6316 24.452 26.2084 24.3458H22.9463V34.5055H20.1074ZM60.6276 34.5055C60.5571 34.5055 58.8467 34.594 58.1061 32.5763C57.7182 30.5939 58.9172 29.3195 60.4336 29.1071H63.3254V30.6116H61.474C60.5042 30.8771 60.222 31.4612 60.5394 32.3462C60.8039 32.771 61.1918 33.0542 61.6503 33.0542H63.8897V27.7973C63.872 27.3548 63.6604 27.3548 63.3254 27.3548H58.9348H55.3378C54.315 27.1424 52.252 28.169 52.3402 30.2576C52.4989 32.1338 53.5921 32.6294 54.6853 32.9834H57.2774V34.5232H53.6097C53.31 34.5232 52.5341 34.2223 51.917 33.9214C50.718 32.9834 49.7482 31.7975 49.8892 29.762C50.0655 27.3371 52.2344 25.7972 53.8742 25.7972H59.7283H65.0358C65.8116 25.8503 66.2877 26.3282 66.4464 26.9831V34.5232L60.6276 34.5055ZM77.2201 27.3194V25.7972H75.9152C75.5449 25.7972 74.7162 26.045 74.5751 26.0981C73.2174 26.6645 71.8773 27.8681 71.7363 29.7443C71.6128 31.5497 72.4416 33.0719 73.8698 33.9037C74.2754 34.1515 74.9983 34.5055 75.4568 34.5055H78.2604H80.9935V23.4254H78.2604V32.9657H76.55C75.4391 32.6117 74.3459 32.1161 74.1872 30.2399C74.1167 28.7354 75.1747 27.7619 76.1621 27.4256C76.5676 27.284 76.9379 27.284 77.2201 27.3194Z" fill="white"/><path fill-rule="evenodd" clip-rule="evenodd" d="M40.8558 31.9386C39.2865 35.0891 37.5761 37.0361 35.9362 37.7795C34.8254 38.2751 33.9085 38.0096 33.3795 37.16C32.6213 35.9033 32.6565 33.5669 33.979 30.7527C35.178 28.1862 36.4652 26.7702 36.906 26.5755C37.1353 26.4693 37.294 26.5047 37.4174 26.7171C37.6466 27.0888 37.4879 28.4871 36.43 30.4341L36.1831 30.1686C34.7901 32.0448 34.4198 33.3545 34.6314 33.7262C34.8959 34.151 35.7423 34.4342 36.1655 34.2572C36.5358 34.0979 37.6642 32.8235 38.5812 30.5757C39.4275 28.5048 39.551 26.9472 38.9338 25.9383C38.493 25.2126 37.6642 25.0002 36.7297 25.425C35.3191 26.0622 33.6969 27.7614 32.0923 30.5757C30.1527 34.0094 29.9411 36.8414 30.9462 38.5052C31.916 40.0805 33.8908 40.5584 35.901 39.6557C37.9816 38.7176 39.9212 36.3104 41.3142 32.5049L40.8558 31.9386Z" fill="#DBA41F"/><path fill-rule="evenodd" clip-rule="evenodd" d="M48.9159 29.5846C48.2987 31.1953 47.7521 32.098 47.2937 32.3104C47.0997 32.3989 46.8529 32.3458 46.7471 32.1688C46.5355 31.8148 46.6589 31.0006 46.941 29.6731C47.0644 29.1244 47.1173 28.8058 47.0292 28.6642C46.8705 28.3987 46.0594 28.1686 45.7773 28.2925C45.3188 28.5049 44.3314 30.1864 43.291 33.4078L42.956 32.6467C44.7193 26.5933 45.0543 23.2657 44.8251 22.894C44.7369 22.7524 44.2432 22.6462 43.9082 22.7878C43.6084 22.9294 42.6034 24.9295 41.9509 28.558C41.5983 30.5404 41.4925 31.8856 41.6159 32.6113C41.6864 33.16 41.9157 33.5671 42.1802 33.9918C42.2507 34.098 42.3212 34.2219 42.3918 34.3281C42.9207 35.1954 43.291 35.6379 43.7671 35.4078C44.4019 35.1246 44.3137 33.2662 45.6009 30.4342C45.3893 32.0626 45.3364 33.16 45.7067 33.744C46.0594 34.3281 46.606 34.5051 47.0997 34.2927C47.9285 33.921 48.6514 32.5228 49.3391 30.151L48.9159 29.5846Z" fill="#DBA41F"/><path fill-rule="evenodd" clip-rule="evenodd" d="M49.821 29.2305C49.8387 27.4251 50.9319 26.2039 51.3727 26.0092C51.4609 25.9738 51.5138 25.9915 51.5843 26.1154C51.8488 26.5225 51.2845 27.6375 49.821 29.2305ZM50.1384 29.8854C52.5188 28.1154 53.2065 26.0269 52.7128 25.2127C52.4483 24.7879 51.937 24.7525 51.1258 25.1242C50.0855 25.6021 49.2391 26.4871 48.7278 27.7614C48.2164 29.0181 48.2517 30.1155 48.8159 31.0536C49.5918 32.328 50.685 32.6643 51.9017 32.1156C53.2241 31.5138 54.0705 30.0978 54.7935 27.7614L54.4055 27.1243C53.665 29.0358 52.7481 30.1686 51.937 30.5226C51.3022 30.8058 50.5969 30.6288 50.1913 29.9739C50.156 29.9208 50.156 29.9208 50.1384 29.8854Z" fill="#DBA41F"/><path fill-rule="evenodd" clip-rule="evenodd" d="M59.8113 24.6639C59.0531 26.5224 58.2244 27.6906 57.2193 28.1331C56.5669 28.4163 55.9674 28.2393 55.5971 27.6198C55.5618 27.5844 55.5442 27.5313 55.5089 27.4782C55.5971 26.8056 55.9498 26.0445 56.5845 25.1595C56.8138 25.4958 57.0077 25.602 57.2369 25.4958C57.713 25.2834 58.242 23.6373 57.7307 22.8054C57.4838 22.3806 57.1312 22.3275 56.5845 22.5576C56.0379 22.8054 55.1034 23.6727 54.4862 24.9648C53.8691 26.2215 53.8691 27.3366 54.3981 28.2216C55.1563 29.4606 56.7256 30.0624 57.6425 29.6553C58.5947 29.2305 59.4763 27.7614 60.1993 25.2834L59.8113 24.6639Z" fill="#DBA41F"/><path fill-rule="evenodd" clip-rule="evenodd" d="M62.2108 24.363C62.8103 22.5045 63.5332 21.4957 63.7801 21.3895C63.833 21.3718 63.8682 21.3718 63.9035 21.4249C64.1151 21.7789 63.7801 22.6461 63.0219 24.1506L62.2108 24.363ZM62.0168 25.3542C63.445 26.2746 64.362 26.6286 65.1554 26.2746C65.9313 25.9206 66.6013 24.5223 67.3066 22.0621L66.9011 21.4426C66.1429 23.4957 65.4728 24.5931 64.9967 24.8055C64.7851 24.9117 64.362 24.8232 63.7272 24.54C64.9086 22.4514 65.6315 21.301 65.0144 20.2921C64.7146 19.7965 64.0446 19.5487 63.639 19.7434C62.9866 20.0266 61.8405 21.9205 60.7296 25.4427L60.518 24.894C62.2813 19.1239 62.8279 15.8671 62.4929 15.3184C62.3518 15.106 62.105 15.0352 61.8934 15.1237C61.5407 15.283 60.5004 17.0353 59.7422 20.1505C59.0545 22.9824 58.9663 24.7701 59.9009 26.2923C60.5356 27.3366 60.9765 27.7791 61.2938 27.6198C61.6465 27.4428 61.6641 26.6994 62.0168 25.3542Z" fill="#DBA41F"/><path fill-rule="evenodd" clip-rule="evenodd" d="M11.5853 34.629L13.2075 37.7264C11.9556 35.6202 11.2326 33.1599 11.2326 30.5403C11.2326 22.8054 17.4746 16.5397 25.1802 16.5397C28.742 16.5397 31.9864 17.8849 34.4727 20.0796L32.9386 18.5398C30.6287 16.8406 27.7898 15.8494 24.7217 15.8494C17.0162 15.8494 10.7742 22.1151 10.7742 29.85C10.7565 31.5315 11.0563 33.1422 11.5853 34.629Z" fill="#5F5AA2"/><path fill-rule="evenodd" clip-rule="evenodd" d="M58.5573 19.0356C56.2827 17.4603 53.5319 16.5399 50.552 16.5399C44.9624 16.5399 40.131 19.7967 37.8388 24.5226C37.8388 24.5226 37.2921 23.6907 36.481 22.8057C35.6699 21.9207 35.6699 21.8499 35.6699 21.8499L37.5566 23.1243L37.7153 23.1597C40.0076 18.4338 44.5745 15.885 50.1641 15.885C53.144 15.885 55.6655 16.8054 57.9401 18.3807L58.5573 19.0356Z" fill="#034694"/><path fill-rule="evenodd" clip-rule="evenodd" d="M35.762 21.9385C35.762 21.9385 37.5781 23.1598 37.5781 23.1421L37.7192 23.1775C39.2356 20.0446 41.8276 17.7967 45.0897 16.6993C46.659 16.1683 48.3694 15.9028 50.1856 15.9205C53.1479 15.9205 55.6518 16.8409 57.8382 18.3631L58.4554 18.9826C56.2513 17.4604 53.5006 16.54 50.5206 16.54C49.11 16.54 47.7523 16.7524 46.4651 17.1418C42.5859 18.3277 39.5001 21.1066 37.8426 24.5227C37.8426 24.5227 37.2784 23.7085 36.5025 22.8589C35.7267 21.9739 35.762 21.9385 35.762 21.9385Z" fill="#939598"/><path fill-rule="evenodd" clip-rule="evenodd" d="M35.8309 22.0092C35.8309 22.0092 37.5766 23.1596 37.5766 23.1419L37.7177 23.1773C39.2164 20.1153 41.7908 17.8143 45.0882 16.7169C46.6927 16.1859 48.4208 15.9204 50.2017 15.9381C53.164 15.9558 55.6326 16.8585 57.7309 18.3276C57.7309 18.3276 58.3304 18.9294 58.3128 18.9117C56.1792 17.4426 53.4461 16.5222 50.4662 16.5222C49.0555 16.5222 47.6802 16.7346 46.393 17.124C42.4432 18.3453 39.3928 21.2127 37.8234 24.4694C37.8234 24.4694 37.2592 23.6552 36.501 22.841C35.778 22.0269 35.8309 22.0092 35.8309 22.0092Z" fill="#37368C"/><path fill-rule="evenodd" clip-rule="evenodd" d="M35.9195 22.0801C35.9195 22.0801 37.5947 23.1775 37.6123 23.1598L37.7534 23.1952C39.2169 20.2039 41.7913 17.8498 45.1062 16.7347C46.7284 16.186 48.4741 15.9382 50.255 15.9382C53.2173 15.9559 55.6506 16.8763 57.6608 18.2569L58.225 18.8233C56.162 17.4073 53.4289 16.4869 50.449 16.4869C49.0383 16.4869 47.663 16.6816 46.3582 17.0887C42.3379 18.3454 39.3403 21.2836 37.8239 24.4165C37.8239 24.4165 37.242 23.62 36.5367 22.8412C35.8314 22.0801 35.9195 22.0801 35.9195 22.0801Z" fill="#5F5AA2"/><path fill-rule="evenodd" clip-rule="evenodd" d="M37.7874 25.3897C37.7874 25.3897 37.0292 25.0888 35.3894 26.5756C33.7495 28.0624 31.9686 30.7528 31.5278 31.9564C31.087 33.16 30.752 34.0804 30.752 34.0804C30.752 34.0804 32.6034 28.912 35.742 26.5756C37.1703 25.5136 37.3114 25.5667 38.0167 25.6375C38.722 25.7083 39.0217 26.5402 39.0217 26.5402C39.0217 26.5402 38.8807 25.8145 38.5104 25.5667C38.1048 25.3543 37.7874 25.3897 37.7874 25.3897Z" fill="#E1CA4F"/></svg>