<svg xmlns:xlink="http://www.w3.org/1999/xlink" xmlns="http://www.w3.org/2000/svg" width="100" height="60" viewBox="0 0 100 60" fill="none"><rect x="0.5" y="0.5" width="99" height="59" rx="9.5" fill="white"/><rect x="0.5" y="0.5" width="99" height="59" rx="9.5" stroke="#CACACA"/><g clip-path="url(#clip0_3123_3142)"><path fill-rule="evenodd" clip-rule="evenodd" d="M24.5515 22.174C25.4103 21.8942 26.3082 21.7524 27.2115 21.754C31.2715 21.754 34.6605 24.578 35.4365 28.334L41.1895 27.184C39.8695 20.801 34.1145 16 27.2125 16C25.6305 16 24.1125 16.252 22.6895 16.718L24.5515 22.174Z" fill="#FFCA05"/><path fill-rule="evenodd" clip-rule="evenodd" d="M17.872 40.6669L21.81 36.3139C20.052 34.7909 18.943 32.5689 18.943 30.0939C18.943 27.6189 20.05 25.3979 21.807 23.8769L17.87 19.5239C14.884 22.1099 13 25.8869 13 30.0939C13 34.3019 14.884 38.0799 17.872 40.6669Z" fill="#00A4DF"/><path fill-rule="evenodd" clip-rule="evenodd" d="M35.4375 31.8569C34.6585 35.6119 31.2735 38.4339 27.2175 38.4339C26.3126 38.4358 25.4132 38.293 24.5535 38.0109L22.6895 43.4729C24.1115 43.9389 25.6335 44.1899 27.2165 44.1899C34.1105 44.1899 39.8645 39.3929 41.1895 33.0139L35.4375 31.8569Z" fill="#EE4123"/><path fill-rule="evenodd" clip-rule="evenodd" d="M57.4763 34.7249L57.4723 34.7289L57.3093 34.6189C56.8393 35.3829 56.1093 36.0029 55.1843 36.4049C53.4273 37.1719 51.7993 36.9749 50.6303 35.9449L50.5233 36.1089C50.5213 36.1069 50.5213 36.1059 50.5193 36.1059L48.5253 39.1019C49.0212 39.448 49.5525 39.7403 50.1103 39.9739C52.3133 40.8939 54.5663 40.8509 56.7863 39.8809C58.3933 39.1819 59.6523 38.1159 60.5143 36.7649L57.4763 34.7249ZM51.2513 27.3319C49.3963 28.1319 48.4393 29.8809 48.6363 31.9309L56.4963 28.5329C55.1443 26.9369 53.3863 26.4089 51.2513 27.3319ZM46.0333 36.4599C45.8104 36.0886 45.6114 35.7035 45.4373 35.3069C44.5303 33.1919 44.4873 31.0039 45.2523 28.9029C46.0943 26.5989 47.7023 24.8349 49.7813 23.9369C52.3943 22.8069 55.2833 23.0299 57.7873 24.5229C59.3783 25.4389 60.5063 26.8549 61.3623 28.8559C61.4723 29.1119 61.5673 29.3859 61.6613 29.6189L46.0333 36.4599ZM67.1233 19.5239V36.1829L69.7023 37.2329L68.2373 40.6669L65.3913 39.4769C64.7523 39.1979 64.3173 38.7729 63.9883 38.2929C63.6733 37.8029 63.4383 37.1329 63.4383 36.2279V19.5239H67.1233ZM73.8033 31.9389C73.8019 32.6107 73.944 33.2751 74.2199 33.8876C74.4958 34.5001 74.8992 35.0468 75.4033 35.4909L72.7613 38.4569C71.8408 37.6384 71.1047 36.6337 70.6017 35.5094C70.0986 34.385 69.8401 33.1667 69.8433 31.9349C69.8422 30.7038 70.1026 29.4865 70.6071 28.3636C71.1117 27.2406 71.849 26.2376 72.7703 25.4209L75.4153 28.3839C74.9086 28.8272 74.5026 29.3738 74.2246 29.987C73.9465 30.6001 73.8029 31.2657 73.8033 31.9389ZM78.5033 36.6669C80.7753 36.6689 82.6713 35.0519 83.1133 32.9009L86.9963 33.6969C86.1863 37.6659 82.6883 40.6509 78.4993 40.6469C77.5642 40.6466 76.6354 40.4943 75.7493 40.1959L77.0133 36.4229C77.4813 36.5789 77.9833 36.6659 78.5033 36.6669ZM78.5153 23.2389C82.7073 23.2419 86.2013 26.2389 87.0003 30.2129L83.1163 31.0029C82.9033 29.9376 82.3284 28.9787 81.4891 28.2888C80.6498 27.599 79.5977 27.2206 78.5113 27.2179C78.0045 27.218 77.501 27.2997 77.0203 27.4599L75.7683 23.6829C76.6538 23.3871 77.5816 23.2372 78.5153 23.2389Z" fill="black"/></g><defs><clipPath id="clip0_3123_3142"><rect width="74" height="29" fill="white" transform="translate(13 16)"/></clipPath></defs></svg>