<svg xmlns:xlink="http://www.w3.org/1999/xlink" xmlns="http://www.w3.org/2000/svg" width="100" height="60" viewBox="0 0 100 60" fill="none"><rect x="0.5" y="0.5" width="99" height="59" rx="9.5" fill="white"/><rect x="0.5" y="0.5" width="99" height="59" rx="9.5" stroke="#CACACA"/><path d="M64.1728 30.8503C65.69 30.8834 67.2157 30.7833 68.7268 30.9023C70.2571 31.1883 70.6259 33.5083 69.2663 34.2681C68.3387 34.7687 67.2367 34.4546 66.2311 34.5428H64.1728V30.8503ZM69.604 26.6709C69.941 27.8624 68.7942 28.9322 67.6483 28.7681H64.1728C64.1972 27.6445 64.1252 26.4249 64.2081 25.3605C65.6004 25.3997 67.0055 25.2804 68.3897 25.4229C68.9845 25.5725 69.4822 26.0622 69.604 26.6709ZM77.9682 9.00155C78.0328 11.277 77.9775 13.6727 77.9961 15.9943C77.9918 25.433 78.0052 34.8715 77.9887 44.3108C77.9276 47.8482 74.7973 50.9219 71.2894 50.9925C67.7783 51.0068 64.2665 50.9947 60.7548 50.9986V36.7292C64.581 36.7094 68.4091 36.7694 72.2337 36.6993C74.0079 36.5878 75.9513 35.4154 76.0339 33.4601C76.2427 31.4963 74.394 30.138 72.6387 29.9234C71.964 29.9059 71.9838 29.7265 72.6387 29.6482C74.3129 29.2858 75.6275 27.5506 75.1349 25.8128C74.7152 23.985 72.6979 23.2776 71.0201 23.2811C67.5988 23.2578 64.177 23.2779 60.7556 23.2711C60.7777 20.6072 60.7095 17.9404 60.7924 15.2784C61.0634 11.8049 64.2727 8.94031 67.7311 9.00246C71.1439 9.00194 74.5562 9.00194 77.9682 9.00181V9.00155Z" fill="url(#paint0_linear_3123_3140)"/><path d="M22.091 15.6378C22.1784 12.106 25.3221 9.05752 28.8254 9.0059C32.3236 8.99511 35.8223 9.00434 39.3205 9.00122C39.3109 20.8179 39.3395 32.6358 39.3061 44.4518C39.1714 47.9407 36.0619 50.9311 32.5968 50.9928C29.0919 51.0056 25.5867 50.9947 22.0818 50.9982V36.2477C25.4863 37.0531 29.0564 37.396 32.5295 36.8618C34.6056 36.5272 36.8771 35.5062 37.5799 33.3492C38.0972 31.5041 37.806 29.5623 37.883 27.6686V23.2708H31.8723C31.8453 26.1794 31.9276 29.0931 31.8288 31.9982C31.6668 33.7839 29.901 34.9184 28.2194 34.8578C26.1338 34.8799 22.001 33.3441 22.001 33.3441C21.9906 27.8946 22.0615 21.0698 22.091 15.6384V15.6378Z" fill="url(#paint1_linear_3123_3140)"/><path d="M41.5608 25.0448C41.2445 25.112 41.4972 23.9655 41.4163 23.5306C41.4379 20.7808 41.3713 18.0279 41.4531 15.28C41.7234 11.7917 44.9573 8.92005 48.4298 9.0017H58.656C58.6464 20.8183 58.6748 32.6363 58.6416 44.4523C58.5067 47.9412 55.397 50.9314 51.9317 50.9933C48.4268 51.0066 44.9214 50.9954 41.4162 50.9988V34.8376C43.8101 36.8046 47.0637 37.1108 50.0461 37.1162C52.2945 37.1154 54.5297 36.7682 56.7131 36.2489V33.2882C54.2525 34.5163 51.36 35.2964 48.6323 34.5908C46.7295 34.1165 45.3483 32.275 45.3791 30.3084C45.1586 28.2634 46.3556 26.1043 48.3624 25.4964C50.8539 24.7152 53.5694 25.3127 55.9048 26.3282C56.4052 26.5906 56.9131 26.916 56.713 26.0785V23.7513C52.807 22.8206 48.6502 22.4781 44.726 23.4906C43.5902 23.8115 42.4835 24.2981 41.5608 25.0451V25.0448Z" fill="url(#paint2_linear_3123_3140)"/><defs><linearGradient id="paint0_linear_3123_3140" x1="60.6371" y1="29.1021" x2="77.8873" y2="29.1021" gradientUnits="userSpaceOnUse"><stop stop-color="#007B40"/><stop offset="1" stop-color="#55B330"/></linearGradient><linearGradient id="paint1_linear_3123_3140" x1="21.715" y1="30.4019" x2="39.0379" y2="30.4019" gradientUnits="userSpaceOnUse"><stop stop-color="#1D2970"/><stop offset="1" stop-color="#006DBA"/></linearGradient><linearGradient id="paint2_linear_3123_3140" x1="41.3909" y1="29.5091" x2="58.6528" y2="29.5091" gradientUnits="userSpaceOnUse"><stop stop-color="#6E2B2F"/><stop offset="1" stop-color="#E30138"/></linearGradient></defs></svg>