<svg xmlns:xlink="http://www.w3.org/1999/xlink" xmlns="http://www.w3.org/2000/svg" width="100" height="60" viewBox="0 0 100 60" fill="none"><rect x="0.5" y="0.5" width="99" height="59" rx="9.5" fill="white"/><rect x="0.5" y="0.5" width="99" height="59" rx="9.5" stroke="#CACACA"/><path fill-rule="evenodd" clip-rule="evenodd" d="M57.686 24.1437C57.7066 23.2765 58.5168 22.3511 60.2915 22.1178C61.1708 21.9997 63.5971 21.91 66.3465 23.2003L67.4239 18.072C65.9472 17.5263 64.0463 17 61.6786 17C55.6105 17 51.3404 20.2893 51.3023 24.9929C51.2626 28.4766 54.351 30.4188 56.6761 31.573C59.0717 32.7556 59.8732 33.5196 59.8644 34.5782C59.8482 36.2004 57.9561 36.9166 56.1888 36.9465C53.1905 36.9915 51.4119 36.1456 50.0046 35.4763L49.8828 35.4185L48.7687 40.7157C50.2043 41.387 52.8538 41.9701 55.5987 42C62.05 42 66.2701 38.7556 66.2907 33.7275C66.3065 29.9083 63.201 28.2485 60.7168 26.9209C59.0494 26.0298 57.6619 25.2882 57.686 24.1437ZM34.4041 17.9829L28.013 34.1721L25.4251 20.3138C25.1242 18.7514 23.9264 17.9829 22.5936 17.9829H12.1439L12 18.4135C14.1446 18.8874 16.5812 19.5213 18.0564 20.3377C18.9621 20.8356 19.2204 21.3439 19.517 22.5325L24.4123 41.9049H30.9047L40.8539 17.9829H34.4041ZM77.7998 17.9829H83.0415L88 41.9049H82.3194L81.5795 37.4195H73.7L72.42 41.9049H65.9717L75.1855 19.6275C75.6273 18.5495 76.6196 17.9829 77.7998 17.9829ZM75.4674 32.9341L78.7011 23.8557L80.5609 32.9341H75.4674ZM38.411 41.9048L43.4913 17.9828H49.6284L44.5526 41.9048H38.411Z" fill="url(#paint0_linear_3123_3122)"/><defs><linearGradient id="paint0_linear_3123_3122" x1="16.7096" y1="41.2254" x2="87.9999" y2="41.2254" gradientUnits="userSpaceOnUse"><stop stop-color="#1A1E5A"/><stop offset="1" stop-color="#122D98"/></linearGradient></defs></svg>