<svg xmlns:xlink="http://www.w3.org/1999/xlink" xmlns="http://www.w3.org/2000/svg" width="100" height="60" viewBox="0 0 100 60" fill="none"><rect x="0.5" y="0.5" width="99" height="59" rx="9.5" fill="white"/><rect x="0.5" y="0.5" width="99" height="59" rx="9.5" stroke="#CACACA"/><path fill-rule="evenodd" clip-rule="evenodd" d="M43.1792 29.9999C43.1792 24.2781 45.8343 19.1834 49.9679 15.8865C46.9198 13.4557 43.0692 12 38.8784 12C29.0045 12 21 20.0589 21 29.9999C21 39.9411 29.0045 48 38.8784 48C43.0692 48 46.9198 46.5443 49.9679 44.1132C45.8343 40.8163 43.1792 35.7219 43.1792 29.9999Z" fill="#E30E17"/><path fill-rule="evenodd" clip-rule="evenodd" d="M43.1777 29.9998C43.1777 35.7218 45.8328 40.8163 49.9664 44.1132C54.1003 40.8163 56.7553 35.7218 56.7553 29.9998C56.7553 24.2781 54.1003 19.1834 49.9664 15.8865C45.8328 19.1834 43.1777 24.2781 43.1777 29.9998Z" fill="#EA600A"/><path fill-rule="evenodd" clip-rule="evenodd" d="M61.0585 12C56.8677 12 53.0171 13.4557 49.9688 15.8865C54.1026 19.1834 56.7577 24.2781 56.7577 29.9999C56.7577 35.7219 54.1026 40.8161 49.9688 44.1132C53.0171 46.5443 56.8677 48 61.0585 48C70.9324 48 78.9369 39.9409 78.9369 29.9999C78.9369 20.0589 70.9324 12 61.0585 12Z" fill="#F59F00"/><path fill-rule="evenodd" clip-rule="evenodd" d="M78.844 39.7361V39.2699L78.694 39.6721H78.528L78.3781 39.2711V39.7361H78.2217V39.0645H78.4459L78.6115 39.4946L78.7761 39.0645H79.0004V39.7361H78.844ZM77.7234 39.7361V39.2092H77.5117V39.0645H78.0914V39.2092H77.8798V39.7361H77.7234Z" fill="#F59F00"/></svg>