<svg xmlns:xlink="http://www.w3.org/1999/xlink" xmlns="http://www.w3.org/2000/svg" width="100" height="60" viewBox="0 0 100 60" fill="none"><rect x="0.5" y="0.5" width="99" height="59" rx="9.5" fill="white"/><rect x="0.5" y="0.5" width="99" height="59" rx="9.5" stroke="#CACACA"/><path d="M40.1191 23.8233C41.5393 22.7791 43.339 22.1526 45.2856 22.1526C47.2322 22.1526 49.0197 22.7791 50.4521 23.8233H40.1191Z" fill="#153D8A"/><path fill-rule="evenodd" clip-rule="evenodd" d="M15.497 24.8184H17.6763L12.1915 35.0515H10L15.497 24.8184Z" fill="#153D8A"/><path d="M26.0125 24.8184H28.1917L22.7069 35.0515H21.7397H20.5277H19.7809L19.7074 27.3613L15.5816 35.0515H13.4023L18.8871 24.8184H19.6829H21.0786H21.6418L21.7275 32.8157L26.0125 24.8184Z" fill="#153D8A"/><path d="M29.4798 24.8184H51.6516C52.1413 25.3466 52.5453 26.01 52.8759 26.6488H30.6919L29.4186 29.032H34.4627L33.5077 30.7765H28.4882L26.1988 35.0515H24.0195L29.4798 24.8184Z" fill="#153D8A"/><path d="M82.2233 24.8184H84.4026H88.1244L87.1695 26.5628H83.4721L78.9178 35.0515H76.7386L81.2807 26.5628H69.6867L68.3645 29.032H73.3228L72.3556 30.7765H67.434L66.0751 33.3071H72.9555L72.0006 35.0515H65.1324H64.5937H62.9531L68.4379 24.8184H68.6828H70.6294H82.2233Z" fill="#153D8A"/><path d="M49.0923 29.462C48.9699 28.7986 48.6393 28.1966 48.1863 27.7175H53.3283C53.512 28.2826 53.6344 28.86 53.6834 29.462H49.0923ZM36.8984 29.462C36.9474 28.86 37.0698 28.2826 37.2535 27.7175H42.3955C41.9302 28.1966 41.6119 28.7986 41.4895 29.462H36.8984Z" fill="#153D8A"/><path d="M48.3196 32.2874C48.7358 31.796 49.0297 31.1941 49.1154 30.543H53.6819C53.6452 31.1449 53.535 31.7223 53.3636 32.2874H48.3196ZM41.4513 30.543C41.5493 31.1941 41.8309 31.796 42.2471 32.2874H37.2031C37.0317 31.7223 36.9215 31.1449 36.8848 30.543H41.4513Z" fill="#153D8A"/><path d="M64.8247 24.8184H67.0039L61.5191 35.0515H60.8458H59.3399H58.8869L58.8012 26.7716L54.357 35.0515L38.7719 35.0393C38.3067 34.511 37.9272 33.9214 37.6211 33.2948H43.7792C44.2445 33.4791 44.7464 33.5774 45.2851 33.5774C45.8238 33.5774 46.3258 33.4791 46.791 33.2948H53.1328L57.6749 24.8306H58.789H59.8541H60.7478L60.8213 32.2998L64.8247 24.8184Z" fill="#153D8A"/><path d="M50.5489 36.2556C49.1042 37.349 47.2801 38.0001 45.2845 38.0001C43.2889 38.0001 41.4525 37.349 40.0078 36.2556H50.5489Z" fill="#153D8A"/><path fill-rule="evenodd" clip-rule="evenodd" d="M88.623 23.4293V22.3367H89.1125C89.2103 22.3367 89.2837 22.3489 89.3327 22.3735C89.3816 22.3981 89.4183 22.4226 89.455 22.4717C89.4795 22.5208 89.504 22.5822 89.504 22.6313C89.504 22.705 89.4795 22.7786 89.4306 22.8277C89.3816 22.8769 89.3082 22.9137 89.1981 22.926C89.2348 22.9382 89.2715 22.9628 89.2837 22.9751C89.3327 23.0119 89.3694 23.061 89.4061 23.1224L89.5896 23.4293H89.4061L89.2593 23.1961C89.2226 23.1347 89.1859 23.0856 89.1614 23.0487C89.1369 23.0119 89.1124 22.9874 89.088 22.9751C89.0635 22.9628 89.039 22.9505 89.0268 22.9505C89.0146 22.9505 88.9901 22.9505 88.9412 22.9505H88.7699V23.4416H88.623V23.4293ZM88.7699 22.8155H89.0757C89.1369 22.8155 89.1981 22.8155 89.2348 22.7909C89.2715 22.7786 89.296 22.7541 89.3204 22.7295C89.3449 22.705 89.3449 22.6681 89.3449 22.6313C89.3449 22.5822 89.3204 22.5454 89.2837 22.5085C89.247 22.4717 89.1859 22.4594 89.1002 22.4594H88.7576V22.8155H88.7699Z" fill="#153D8A"/><path fill-rule="evenodd" clip-rule="evenodd" d="M89.0158 22.2805C88.6277 22.2805 88.3108 22.5985 88.3108 22.9879C88.3108 23.3799 88.6303 23.7076 89.0158 23.7076C89.4012 23.7076 89.7208 23.3799 89.7208 22.9879C89.7208 22.5985 89.4038 22.2805 89.0158 22.2805ZM88.0312 22.9879C88.0312 22.4436 88.4734 22 89.0158 22C89.5582 22 90.0003 22.4436 90.0003 22.9879C90.0003 23.5295 89.5608 23.9881 89.0158 23.9881C88.4708 23.9881 88.0312 23.5295 88.0312 22.9879Z" fill="#153D8A"/></svg>