<svg xmlns:xlink="http://www.w3.org/1999/xlink" xmlns="http://www.w3.org/2000/svg" width="100" height="60" viewBox="0 0 100 60" fill="none"><rect x="0.5" y="0.5" width="99" height="59" rx="9.5" fill="white"/><rect x="0.5" y="0.5" width="99" height="59" rx="9.5" stroke="#CACACA"/><g clip-path="url(#clip0_3123_3144)"><path d="M30.0968 9.00024H46.7888C49.1189 9.00024 50.5681 10.9051 50.0245 13.2499L42.2532 46.7149C41.7048 49.0515 39.3719 50.958 37.0402 50.958H20.3497C18.0229 50.958 16.5705 49.0515 17.114 46.7149L24.8886 13.2499C25.4322 10.9051 27.7639 9.00024 30.0968 9.00024Z" fill="#E21836"/><path d="M45.4004 9.00024H64.5958C66.9255 9.00024 65.875 10.9051 65.327 13.2499L57.5568 46.7149C57.0117 49.0515 57.1817 50.958 54.8472 50.958H35.6518C33.3172 50.958 31.8725 49.0515 32.4209 46.7149L40.1906 13.2499C40.7423 10.9051 43.0691 9.00024 45.4004 9.00024Z" fill="#00447C"/><path d="M63.8332 9.00024H80.5253C82.8586 9.00024 84.3078 10.9051 83.7598 13.2499L75.9897 46.7149C75.4412 49.0515 73.1067 50.958 70.7738 50.958H54.0894C51.7549 50.958 50.3069 49.0515 50.8537 46.7149L58.6251 13.2499C59.1686 10.9051 61.4987 9.00024 63.8332 9.00024Z" fill="#007B84"/><path d="M34.456 19.7249C32.7395 19.7424 32.2325 19.7249 32.0706 19.6865C32.0084 19.9832 30.85 25.3423 30.8468 25.3468C30.5974 26.4311 30.4159 27.204 29.7995 27.703C29.4496 27.9932 29.0412 28.1331 28.5676 28.1331C27.8064 28.1331 27.3629 27.754 27.2884 27.035L27.2742 26.7881C27.2742 26.7881 27.5061 25.3358 27.5061 25.3277C27.5061 25.3277 28.7218 20.4439 28.9394 19.7983C28.9508 19.7616 28.9541 19.7424 28.9569 19.7249C26.5907 19.7457 26.1712 19.7249 26.1423 19.6865C26.1264 19.7391 26.0679 20.0419 26.0679 20.0419L24.8265 25.5464L24.7199 26.0132L24.5137 27.5402C24.5137 27.9932 24.6024 28.3629 24.7789 28.6755C25.3445 29.6667 26.9577 29.8152 27.8702 29.8152C29.046 29.8152 30.149 29.5646 30.8944 29.1072C32.1882 28.3404 32.5267 27.1419 32.8286 26.0769L32.9685 25.5305C32.9685 25.5305 34.2208 20.4582 34.4336 19.7983C34.4418 19.7616 34.445 19.7424 34.456 19.7249ZM38.7169 23.8167C38.415 23.8167 37.8633 23.8902 37.3677 24.1338C37.1879 24.2264 37.0178 24.3334 36.8384 24.4399L37.0003 23.8535L36.9117 23.7547C35.8607 23.9681 35.6256 23.9967 34.6548 24.1338L34.5735 24.1881C34.4608 25.1254 34.3607 25.8302 33.9428 27.6726C33.7837 28.3516 33.6186 29.0372 33.453 29.7146L33.4977 29.8007C34.4925 29.748 34.7944 29.748 35.6589 29.7623L35.7289 29.686C35.8388 29.1216 35.853 28.9894 36.0963 27.8464C36.2106 27.3045 36.4491 26.1138 36.5666 25.6898C36.7827 25.5894 36.9959 25.4906 37.1993 25.4906C37.6839 25.4906 37.6249 25.9146 37.6062 26.0836C37.5854 26.3672 37.4088 27.2935 37.2278 28.0888L37.1069 28.6022C37.0227 28.9813 36.9304 29.3498 36.8461 29.7256L36.8828 29.8007C37.8633 29.748 38.1623 29.748 38.9996 29.7623L39.0981 29.686C39.2494 28.8046 39.2938 28.5687 39.5623 27.2853L39.6974 26.6957C39.9598 25.5416 40.0916 24.9565 39.8931 24.4799C39.6831 23.9457 39.1795 23.8167 38.7169 23.8167ZM43.4767 25.025C42.9556 25.1254 42.6232 25.1923 42.2928 25.2356C41.9653 25.2882 41.6459 25.3359 41.1422 25.4061L41.1023 25.4424L41.0657 25.4714C41.0132 25.8477 40.9766 26.1729 40.9071 26.5553C40.8481 26.9507 40.7573 27.4 40.6096 28.0455C40.4953 28.5397 40.4363 28.7119 40.3712 28.8857C40.3078 29.0596 40.2378 29.2285 40.1092 29.7145L40.1393 29.7594L40.1645 29.8006C40.6353 29.7782 40.9433 29.7623 41.2598 29.7594C41.5759 29.748 41.9034 29.7594 42.4104 29.7623L42.4547 29.726L42.5023 29.686C42.5756 29.2477 42.5865 29.1298 42.6313 28.9159C42.6756 28.6866 42.7521 28.3691 42.9397 27.5212C43.0284 27.1229 43.1273 26.7258 43.2192 26.3194C43.3148 25.9146 43.4149 25.5159 43.5101 25.1176L43.4959 25.0695L43.4767 25.025ZM43.4879 23.3959C43.0143 23.1156 42.1831 23.2045 41.6236 23.5918C41.0658 23.9713 41.0024 24.5099 41.4743 24.7939C41.9398 25.0665 42.7742 24.9853 43.3288 24.5948C43.8854 24.2071 43.9549 23.6734 43.4879 23.3959ZM46.3519 29.8885C47.3101 29.8885 48.2922 29.6237 49.0315 28.8377C49.6002 28.2003 49.861 27.2519 49.9514 26.8614C50.2455 25.567 50.0165 24.9627 49.7288 24.5946C49.2918 24.0335 48.5196 23.8535 47.7185 23.8535C47.2368 23.8535 46.0895 23.9013 45.1932 24.7301C44.5495 25.3279 44.2521 26.1391 44.0727 26.9169C43.8917 27.7094 43.6833 29.136 44.9914 29.6669C45.395 29.8407 45.9768 29.8885 46.3519 29.8885ZM46.2771 26.9761C46.498 25.9959 46.7588 25.1732 47.4244 25.1732C47.946 25.1732 47.9838 25.7853 47.7519 26.7688C47.7104 26.9871 47.52 27.7988 47.2625 28.1444C47.0826 28.3994 46.8698 28.5541 46.6347 28.5541C46.5647 28.5541 46.1485 28.5541 46.142 27.9342C46.1387 27.6282 46.201 27.3156 46.2771 26.9761ZM52.3465 29.7624L52.4214 29.6861C52.5276 29.1218 52.5451 28.9891 52.7802 27.8465C52.8978 27.3046 53.1411 26.1139 53.2554 25.6899C53.4719 25.5891 53.6814 25.4904 53.8913 25.4904C54.3727 25.4904 54.3141 25.9143 54.2949 26.0833C54.2775 26.3673 54.1009 27.2932 53.9166 28.0885L53.8022 28.6019C53.7148 28.9814 53.6196 29.3495 53.5353 29.7257L53.572 29.8008C54.5557 29.7482 54.8434 29.7482 55.6856 29.7624L55.7873 29.6861C55.935 28.8043 55.9749 28.5684 56.2515 27.2855L56.3833 26.6954C56.647 25.5414 56.7804 24.9566 56.5851 24.48C56.3691 23.9458 55.8622 23.8169 55.4061 23.8169C55.1038 23.8169 54.5492 23.8899 54.0565 24.1339C53.8804 24.2266 53.7038 24.3331 53.5305 24.44L53.6814 23.8536L53.6004 23.7544C52.5499 23.9683 52.3099 23.9968 51.3404 24.1339L51.2659 24.1882C51.1483 25.1255 51.0527 25.8299 50.6349 27.6727C50.4758 28.3517 50.3106 29.0373 50.1454 29.7147L50.1898 29.8008C51.1862 29.7482 51.4836 29.7482 52.3465 29.7624ZM59.5745 29.8006C59.6363 29.4978 60.0037 27.7031 60.007 27.7031C60.007 27.7031 60.3199 26.3863 60.339 26.3385C60.339 26.3385 60.4374 26.2014 60.5359 26.1471H60.6807C62.0474 26.1471 63.5906 26.1471 64.8002 25.2547C65.6232 24.6426 66.1859 23.7387 66.4369 22.6402C66.502 22.3709 66.55 22.0505 66.55 21.7302C66.55 21.3095 66.4658 20.8932 66.2225 20.568C65.6057 19.7025 64.3774 19.6866 62.9595 19.6801C62.9551 19.6801 62.2606 19.6866 62.2606 19.6866C60.4456 19.709 59.7177 19.7025 59.4187 19.6658C59.3935 19.7984 59.3459 20.0343 59.3459 20.0343C59.3459 20.0343 58.6957 23.0564 58.6957 23.0613C58.6957 23.0613 57.1399 29.4868 57.0667 29.7896C58.6514 29.7704 59.3011 29.7704 59.5745 29.8006ZM60.7792 24.432C60.7792 24.432 61.4705 21.416 61.4672 21.4274L61.4896 21.2727L61.4993 21.1548L61.7756 21.1834C61.7756 21.1834 63.2012 21.3062 63.2346 21.3095C63.7973 21.5278 64.0292 22.0905 63.8672 22.825C63.7195 23.4963 63.2854 24.0607 62.7276 24.3333C62.2683 24.5642 61.7056 24.5834 61.1258 24.5834H60.7507L60.7792 24.432ZM65.0831 27.032C64.9004 27.813 64.6905 29.2396 65.992 29.7481C66.407 29.9252 66.7789 29.9778 67.1568 29.9586C67.556 29.937 67.9258 29.7362 68.2683 29.4473C68.2374 29.5661 68.2065 29.6848 68.1756 29.804L68.2346 29.8803C69.1708 29.8407 69.4613 29.8407 70.4755 29.8485L70.5675 29.7783C70.7156 28.905 70.8551 28.057 71.24 26.3864C71.4276 25.5862 71.6147 24.7937 71.8072 23.9967L71.7771 23.909C70.7298 24.1037 70.4499 24.1453 69.4425 24.2885L69.366 24.3509C69.3559 24.4321 69.3453 24.5101 69.3355 24.588C69.1789 24.3342 68.9519 24.1175 68.6016 23.9825C68.1536 23.8058 67.1015 24.0335 66.1971 24.8594C65.5615 25.4491 65.2564 26.257 65.0831 27.032ZM67.2825 27.0797C67.5067 26.1171 67.7643 25.3026 68.4315 25.3026C68.8534 25.3026 69.0756 25.6931 69.0304 26.3591C68.9946 26.5251 68.9559 26.7002 68.91 26.8981C68.8432 27.1842 68.7708 27.4678 68.7004 27.7518C68.6288 27.946 68.5454 28.1293 68.4539 28.2513C68.2822 28.4953 67.8737 28.6467 67.6385 28.6467C67.5718 28.6467 67.1601 28.6467 67.1458 28.0379C67.1426 27.7347 67.2048 27.4225 67.2825 27.0797ZM78.7683 23.9012L78.6873 23.8086C77.651 24.0191 77.4635 24.0526 76.5114 24.1816L76.4415 24.2517C76.4382 24.2632 76.4354 24.2807 76.4305 24.2966L76.4272 24.2807C75.7185 25.9207 75.7392 25.5669 75.1623 26.8581C75.1591 26.7993 75.1591 26.7626 75.1558 26.7002L75.0114 23.9012L74.9206 23.8086C73.8351 24.0191 73.8095 24.0526 72.807 24.1816L72.7289 24.2517C72.7179 24.2852 72.7179 24.3219 72.7114 24.3619L72.7179 24.3762C72.8432 25.0185 72.8131 24.8753 72.9388 25.8889C72.9974 26.3864 73.0756 26.8866 73.1341 27.378C73.233 28.2002 73.2883 28.605 73.4092 29.8598C72.7322 30.9804 72.5719 31.4044 71.9201 32.3878L71.9246 32.3976L71.4656 33.1256C71.4131 33.2023 71.3655 33.255 71.2988 33.2774C71.2256 33.3137 71.1304 33.3203 70.9981 33.3203H70.7439L70.3659 34.5812L71.6625 34.6037C72.4238 34.6004 72.9022 34.2433 73.1598 33.7634L73.9751 32.3621H73.9621L74.0479 32.2634C74.5964 31.0792 78.7683 23.9012 78.7683 23.9012Z" fill="#FEFEFE"/></g><defs><clipPath id="clip0_3123_3144"><rect width="67" height="42" fill="white" transform="translate(17 9)"/></clipPath></defs></svg>