<svg xmlns:xlink="http://www.w3.org/1999/xlink" xmlns="http://www.w3.org/2000/svg" width="100" height="60" viewBox="0 0 100 60" fill="none"><rect x="0.5" y="0.5" width="99" height="59" rx="9.5" fill="white"/><rect x="0.5" y="0.5" width="99" height="59" rx="9.5" stroke="#CACACA"/><path d="M25.329 40.4879C30.9948 40.5147 36.1662 35.9212 36.1662 30.333C36.1662 24.222 30.9948 19.998 25.329 20H20.453C14.7193 19.998 10 24.2232 10 30.333C10 35.9224 14.7193 40.5147 20.453 40.4879H25.329Z" fill="#0079BE"/><path d="M20.4743 20.8467C15.235 20.8483 10.9895 25.0455 10.9883 30.2256C10.9895 35.4049 15.235 39.6016 20.4743 39.6033C25.7147 39.6016 29.9611 35.4049 29.9619 30.2256C29.9611 25.0455 25.7147 20.8483 20.4743 20.8467ZM14.4614 30.2256C14.4663 27.6943 16.0659 25.5358 18.3215 24.678V35.772C16.0659 34.9147 14.4663 32.7573 14.4614 30.2256ZM22.6262 35.7744V24.6776C24.8827 25.5333 26.4847 27.6931 26.4888 30.2256C26.4847 32.7589 24.8827 34.9171 22.6262 35.7744Z" fill="white"/><path d="M39.4879 24.4076C39.4879 23.4385 38.9766 23.5023 38.4864 23.4918V23.2117C38.9112 23.2324 39.3468 23.2324 39.7726 23.2324C40.2304 23.2324 40.8518 23.2117 41.6588 23.2117C44.4812 23.2117 46.0182 25.0751 46.0182 26.9832C46.0182 28.0503 45.3865 30.7328 41.5276 30.7328C40.9719 30.7328 40.459 30.7116 39.9469 30.7116C39.4566 30.7116 38.9766 30.7222 38.4863 30.7328V30.4531C39.1399 30.388 39.4566 30.3665 39.4879 29.6336V24.4076H39.4879ZM40.5565 29.4617C40.5565 30.2913 41.1566 30.3881 41.6905 30.3881C44.0456 30.3881 44.8189 28.6316 44.8189 27.0259C44.8189 25.0116 43.5105 23.5572 41.4071 23.5572C40.9596 23.5572 40.754 23.5889 40.5566 23.6003L40.5565 29.4617Z" fill="#211E1F"/><path d="M46.4004 30.4534H46.6069C46.9116 30.4534 47.1301 30.4534 47.1301 30.0969V27.1774C47.1301 26.7038 46.9668 26.638 46.5633 26.4237V26.251C47.0754 26.0989 47.6866 25.8957 47.7294 25.8632C47.8063 25.8201 47.8713 25.8087 47.926 25.8087C47.9799 25.8087 48.0025 25.8737 48.0025 25.9603V30.0969C48.0025 30.4534 48.2423 30.4534 48.5475 30.4534H48.7325V30.7335C48.3615 30.7335 47.9799 30.712 47.5883 30.712C47.1959 30.712 46.8031 30.7226 46.4004 30.7335V30.4534H46.4004ZM47.5664 24.1497C47.2827 24.1497 47.0326 23.8912 47.0326 23.6111C47.0326 23.3411 47.2942 23.0928 47.5664 23.0928C47.849 23.0928 48.1007 23.3201 48.1007 23.6111C48.1007 23.9021 47.8602 24.1497 47.5664 24.1497Z" fill="#211E1F"/><path d="M49.7683 27.2413C49.7683 26.8429 49.6477 26.7356 49.1365 26.5307V26.3263C49.605 26.1755 50.0513 26.0352 50.5748 25.8084C50.6074 25.8084 50.6394 25.8303 50.6394 25.9161V26.6169C51.2617 26.1755 51.796 25.8083 52.5273 25.8083C53.4527 25.8083 53.7797 26.4766 53.7797 27.3169V30.0966C53.7797 30.4531 54.0195 30.4531 54.3251 30.4531H54.5213V30.7332C54.1388 30.7332 53.7575 30.7117 53.366 30.7117C52.9731 30.7117 52.5803 30.7222 52.1883 30.7332V30.4531H52.3841C52.6901 30.4531 52.9069 30.4531 52.9069 30.0966V27.3067C52.9069 26.6916 52.5273 26.3904 51.9049 26.3904C51.5566 26.3904 51.0005 26.6705 50.6394 26.9079V30.0965C50.6394 30.453 50.8803 30.453 51.186 30.453H51.3818V30.7331C51.0005 30.7331 50.6184 30.7116 50.226 30.7116C49.834 30.7116 49.4408 30.7222 49.0488 30.7331V30.453H49.2454C49.5506 30.453 49.7682 30.453 49.7682 30.0965V27.2413H49.7683Z" fill="#211E1F"/><path d="M55.3529 27.7592C55.3303 27.8564 55.3303 28.0177 55.3529 28.3844C55.4171 29.4076 56.0838 30.2478 56.9545 30.2478C57.5546 30.2478 58.0243 29.9247 58.427 29.5263L58.5792 29.6775C58.0774 30.3344 57.4563 30.8946 56.563 30.8946C54.8293 30.8946 54.4805 29.2348 54.4805 28.5458C54.4805 26.4336 55.9192 25.8083 56.6818 25.8083C57.5653 25.8083 58.5142 26.3576 58.5245 27.4998C58.5245 27.5653 58.5245 27.6291 58.5142 27.6945L58.4155 27.7592H55.3529ZM57.2828 27.4141C57.5546 27.4141 57.5868 27.2738 57.5868 27.145C57.5868 26.5953 57.2491 26.1535 56.6383 26.1535C55.974 26.1535 55.5162 26.6376 55.3854 27.4141H57.2828Z" fill="#211E1F"/><path d="M58.7715 30.4531H59.066C59.3703 30.4531 59.5883 30.4531 59.5883 30.0966V27.0693C59.5883 26.7356 59.1857 26.6705 59.0216 26.5844V26.4234C59.8174 26.0888 60.2538 25.8083 60.3529 25.8083C60.4175 25.8083 60.4496 25.8409 60.4496 25.949V26.9185H60.4727C60.7445 26.4986 61.2031 25.8083 61.8674 25.8083C62.14 25.8083 62.4885 25.9913 62.4885 26.3795C62.4885 26.6705 62.282 26.9299 61.9768 26.9299C61.6375 26.9299 61.6375 26.6705 61.2566 26.6705C61.0711 26.6705 60.4612 26.9185 60.4612 27.5653V30.0966C60.4612 30.4531 60.6787 30.4531 60.9843 30.4531H61.5943V30.7332C60.9946 30.7222 60.5385 30.7117 60.0687 30.7117C59.6221 30.7117 59.1639 30.7222 58.7715 30.7332V30.4531H58.7715Z" fill="#211E1F"/><path d="M62.9701 29.2347C63.112 29.9461 63.5476 30.5498 64.3439 30.5498C64.9855 30.5498 65.2257 30.162 65.2257 29.7848C65.2257 28.5132 62.8499 28.9226 62.8499 27.188C62.8499 26.5844 63.341 25.8083 64.5396 25.8083C64.888 25.8083 65.3564 25.9059 65.7813 26.1218L65.8587 27.2198H65.6074C65.4988 26.5417 65.1175 26.1535 64.4191 26.1535C63.9831 26.1535 63.5693 26.4015 63.5693 26.8645C63.5693 28.1263 66.098 27.7373 66.098 29.4287C66.098 30.1397 65.5201 30.8946 64.2229 30.8946C63.7869 30.8946 63.2748 30.7438 62.8935 30.5287L62.7734 29.2893L62.9701 29.2347Z" fill="#211E1F"/><path d="M75.9387 25.1622H75.6668C75.4595 23.902 74.5546 23.3951 73.3343 23.3951C72.0798 23.3951 70.2594 24.2243 70.2594 26.8101C70.2594 28.9882 71.8301 30.55 73.5083 30.55C74.5871 30.55 75.4817 29.8174 75.6997 28.6858L75.9498 28.75L75.6997 30.3231C75.2419 30.604 74.01 30.8947 73.2898 30.8947C70.7397 30.8947 69.127 29.2675 69.127 26.8431C69.127 24.6341 71.1214 23.0496 73.2577 23.0496C74.1404 23.0496 74.9906 23.3309 75.8301 23.6219L75.9387 25.1622Z" fill="#211E1F"/><path d="M76.336 30.4534H76.5425C76.8481 30.4534 77.0669 30.4534 77.0669 30.0969V24.0961C77.0669 23.3952 76.9032 23.3737 76.4886 23.2554V23.083C76.9246 22.9432 77.3823 22.7489 77.6115 22.6192C77.7303 22.555 77.8183 22.5005 77.8504 22.5005C77.9171 22.5005 77.9388 22.5656 77.9388 22.6521V30.0969C77.9388 30.4534 78.1782 30.4534 78.4838 30.4534H78.6677V30.7335C78.2987 30.7335 77.9171 30.7119 77.5242 30.7119C77.1323 30.7119 76.7399 30.7226 76.3359 30.7335V30.4534H76.336Z" fill="#211E1F"/><path d="M83.3338 30.1399C83.3338 30.3347 83.4531 30.3452 83.6382 30.3452C83.7694 30.3452 83.9323 30.3347 84.0746 30.3347V30.5615C83.6053 30.6042 82.7115 30.8306 82.5042 30.8948L82.4495 30.8623V29.9904C81.7964 30.518 81.2941 30.8948 80.5196 30.8948C79.9311 30.8948 79.3208 30.518 79.3208 29.6135V26.8541C79.3208 26.574 79.2775 26.3045 78.668 26.2509V26.046C79.0608 26.0354 79.9311 25.9707 80.0734 25.9707C80.1944 25.9707 80.1944 26.046 80.1944 26.283V29.0622C80.1944 29.3862 80.1944 30.3126 81.142 30.3126C81.5126 30.3126 82.0028 30.0326 82.4603 29.6565V26.7565C82.4603 26.5419 81.9375 26.4236 81.5459 26.3154V26.1215C82.5257 26.0565 83.1372 25.9707 83.2454 25.9707C83.3338 25.9707 83.3338 26.0459 83.3338 26.165V30.1399H83.3338Z" fill="#211E1F"/><path d="M85.5031 26.5847C85.9387 26.2184 86.5272 25.8087 87.1273 25.8087C88.3921 25.8087 89.1543 26.8981 89.1543 28.0717C89.1543 29.4831 88.1083 30.8948 86.5486 30.8948C85.7424 30.8948 85.3175 30.6359 85.0337 30.518L84.7072 30.7651L84.4789 30.6473C84.5756 30.0115 84.6311 29.3863 84.6311 28.7294V24.096C84.6311 23.3952 84.4666 23.3737 84.0527 23.2554V23.083C84.49 22.9432 84.9465 22.7489 85.1756 22.6192C85.2957 22.555 85.3825 22.5005 85.4163 22.5005C85.4812 22.5005 85.503 22.5656 85.503 22.6521V26.5847H85.5031V26.5847ZM85.5031 29.5152C85.5031 29.925 85.8951 30.6152 86.6255 30.6152C87.792 30.6152 88.2823 29.4831 88.2823 28.5238C88.2823 27.3603 87.3893 26.3908 86.5388 26.3908C86.1344 26.3908 85.7971 26.6498 85.5031 26.8981V29.5152H85.5031Z" fill="#211E1F"/><path d="M38.4746 36.9981H38.5581C38.7712 36.9981 38.9966 36.9697 38.9966 36.6644V33.5928C38.9966 33.2871 38.7712 33.2583 38.5581 33.2583H38.4746V33.0823C38.7062 33.0823 39.062 33.1054 39.3536 33.1054C39.6497 33.1054 40.0051 33.0823 40.284 33.0823V33.2583H40.2005C39.9878 33.2583 39.762 33.2872 39.762 33.5928V36.6644C39.762 36.9697 39.9878 36.9981 40.2005 36.9981H40.284V37.175C39.9993 37.175 39.6427 37.1518 39.347 37.1518C39.0562 37.1518 38.7062 37.175 38.4746 37.175V36.9981Z" fill="#211E1F"/><path d="M40.284 37.1997C39.9973 37.1997 39.642 37.1761 39.3466 37.1761C39.0567 37.1761 38.7079 37.1997 38.4747 37.1997H38.4492V37.1745V36.9985V36.9729H38.4747H38.5578C38.7729 36.968 38.9687 36.9509 38.9708 36.6643V33.5927C38.9687 33.3062 38.7729 33.287 38.5578 33.283H38.4492V33.2582V33.0562H38.4747C38.7079 33.0562 39.0633 33.0793 39.3532 33.0793C39.6486 33.0793 40.0036 33.0562 40.284 33.0562H40.3104V33.083V33.283H40.284H40.2009C39.9858 33.287 39.7888 33.3062 39.7876 33.5927V36.6643C39.7888 36.9509 39.9858 36.968 40.2009 36.9729H40.3103V36.9985V37.1997H40.284ZM40.2585 37.1497V37.0245H40.201C39.9892 37.0245 39.737 36.9883 39.7357 36.6643V33.5927C39.737 33.2688 39.9891 33.2322 40.201 33.2322H40.2585V33.1078C39.9846 33.1078 39.6411 33.1305 39.3532 33.1305C39.0715 33.1305 38.7305 33.1094 38.501 33.1078V33.2322H38.5578C38.7692 33.2322 39.0221 33.2688 39.0221 33.5927V36.6643C39.0221 36.9883 38.7692 37.0245 38.5578 37.0245H38.501V37.1497C38.7305 37.1472 39.0657 37.1261 39.3466 37.1261C39.6354 37.1261 39.9788 37.148 40.2585 37.1497Z" fill="#211E1F"/><path d="M44.3596 36.0193L44.3715 36.0079V33.8096C44.3715 33.3283 44.0331 33.2583 43.8554 33.2583H43.7245V33.0823C44.0038 33.0823 44.2765 33.1054 44.555 33.1054C44.798 33.1054 45.0424 33.0823 45.285 33.0823V33.2583H45.1962C44.9465 33.2583 44.6677 33.305 44.6677 34.0026V36.671C44.6677 36.8759 44.6738 37.0807 44.703 37.2625H44.4772L41.4233 33.897V36.3129C41.4233 36.823 41.5232 36.9982 41.9806 36.9982H42.0809V37.1751C41.8264 37.1751 41.5717 37.1519 41.3163 37.1519C41.0502 37.1519 40.7771 37.1751 40.5098 37.1751V36.9982H40.5928C41.0021 36.9982 41.1264 36.7234 41.1264 36.2547V33.7852C41.1264 33.4572 40.8528 33.2584 40.5871 33.2584H40.5098V33.0824C40.7352 33.0824 40.9664 33.1055 41.1913 33.1055C41.3694 33.1055 41.5418 33.0824 41.7194 33.0824L44.3596 36.0193Z" fill="#211E1F"/><path d="M44.7021 37.2878L44.4574 37.2788L41.4474 33.963V36.3126C41.4544 36.8223 41.533 36.9671 41.9797 36.9728H42.1068V36.998V37.1996H42.0804C41.8238 37.1996 41.5684 37.176 41.3154 37.176C41.0497 37.176 40.7774 37.1996 40.5084 37.1996H40.4825V37.1744V36.9728H40.5084H40.5919C40.9838 36.9707 41.0957 36.7219 41.1002 36.2545V33.7853C41.0994 33.4731 40.8403 33.2837 40.5861 33.2829H40.4824V33.2569V33.0569H40.5083C40.735 33.0569 40.9674 33.0792 41.1899 33.0792C41.3663 33.0792 41.5383 33.0569 41.7381 33.0654L44.345 35.9659V33.8098C44.3417 33.3431 44.0271 33.287 43.8543 33.2829H43.6972V33.2569V33.0569H43.7235C44.0037 33.0569 44.2767 33.0792 44.554 33.0792C44.7954 33.0792 45.0385 33.0569 45.2836 33.0569H45.3095V33.0821V33.2829H45.2836H45.1952C44.9505 33.2898 44.6991 33.3109 44.6922 34.0024V36.6703C44.6922 36.8752 44.6983 37.08 44.7272 37.2577L44.7329 37.2878H44.7021V37.2878ZM44.4768 37.2361H44.6729C44.6463 37.0601 44.6417 36.865 44.6417 36.6703V34.0024C44.6417 33.2987 44.9399 33.2321 45.1953 33.2321H45.2578V33.1077C45.0242 33.1093 44.7898 33.1304 44.5541 33.1304C44.2827 33.1304 44.0186 33.1093 43.75 33.1077L43.7496 33.2321H43.8545C44.0367 33.2321 44.3966 33.3125 44.3966 33.8097L44.3884 36.0252L44.3764 36.0374L44.3563 36.0557L41.7186 33.1077C41.5426 33.1077 41.3706 33.1304 41.19 33.1304C40.9725 33.1304 40.7499 33.1093 40.5348 33.1077L40.5336 33.232H40.5862C40.8647 33.232 41.1505 33.4422 41.1505 33.7853V36.2544C41.1505 36.7231 41.0185 37.0231 40.592 37.0247L40.5348 37.0231V37.1495C40.7919 37.1471 41.0559 37.1259 41.3154 37.1259C41.5631 37.1259 41.8095 37.1471 42.0546 37.1495V37.0247H41.9797C41.5129 37.0231 41.3969 36.8223 41.3965 36.3125V33.8308L44.4768 37.2361ZM44.3587 36.0186L44.3776 36.0016L44.3587 36.0186ZM44.3451 36.0073V36.0053L44.3402 36.0012L44.3451 36.0073Z" fill="#211E1F"/><path d="M46.1726 33.3747C45.7272 33.3747 45.7103 33.4804 45.6215 33.908H45.4434C45.4668 33.7442 45.4964 33.5804 45.5145 33.4096C45.5383 33.2454 45.5498 33.0819 45.5498 32.9121H45.6926C45.7403 33.0881 45.8884 33.082 46.0492 33.082H49.1089C49.2693 33.082 49.4174 33.0763 49.4298 32.8999L49.5712 32.9235C49.5482 33.082 49.5243 33.2401 49.5062 33.3986C49.4955 33.5568 49.4955 33.7153 49.4955 33.873L49.317 33.9385C49.3047 33.7218 49.2751 33.3747 48.8781 33.3747H47.9054V36.4942C47.9054 36.9462 48.1132 36.9979 48.3969 36.9979H48.51V37.1747C48.2789 37.1747 47.8631 37.1515 47.5435 37.1515C47.1877 37.1515 46.7718 37.1747 46.5403 37.1747V36.9979H46.6534C46.9804 36.9979 47.1457 36.969 47.1457 36.5064V33.3747H46.1726Z" fill="#211E1F"/><path d="M48.5113 37.2C48.2776 37.2 47.8626 37.1764 47.5438 37.1764C47.1884 37.1764 46.7735 37.2 46.5406 37.2H46.516V37.1752V36.9731H46.5406H46.6537C46.9807 36.9654 47.1123 36.9614 47.1198 36.5068V33.4008H46.1729V33.3751V33.3491H47.1712V36.5068C47.1712 36.9772 46.9795 37.0247 46.6538 37.0251H46.5666V37.1487C46.8006 37.1475 47.1996 37.1264 47.5439 37.1264C47.8532 37.1264 48.2497 37.1475 48.4841 37.1487V37.0251H48.3973C48.1106 37.0247 47.8799 36.9552 47.8799 36.4946V33.3491H48.8785C49.2767 33.3507 49.3285 33.6853 49.3417 33.9028L49.4696 33.856C49.4696 33.7032 49.4704 33.5499 49.4811 33.3954C49.4984 33.2446 49.5202 33.095 49.5424 32.9454L49.4519 32.9304C49.4244 33.1011 49.2577 33.1097 49.1084 33.108H46.0495H46.0187C45.8793 33.108 45.7267 33.1015 45.6736 32.9378H45.5757C45.5748 33.1 45.5633 33.2573 45.5407 33.4133C45.5234 33.5743 45.4963 33.7292 45.4741 33.8841H45.6012C45.6793 33.4755 45.7304 33.343 46.1729 33.3491V33.3752V33.4008C45.7344 33.4085 45.7435 33.4817 45.6468 33.915L45.6423 33.9349H45.6218H45.4141L45.4174 33.9044C45.4412 33.7402 45.4713 33.5767 45.4889 33.406C45.5136 33.2434 45.5251 33.0808 45.5251 32.9125V32.8869H45.5502H45.7131L45.7172 32.9052C45.7579 33.0532 45.8677 33.054 46.0187 33.0564H46.0495H49.1084C49.2738 33.054 49.3939 33.0515 49.4042 32.8982L49.4066 32.8706L49.4334 32.8763L49.6008 32.9024L49.597 32.928C49.5732 33.0849 49.5498 33.2434 49.5325 33.4007C49.5206 33.5568 49.5206 33.7154 49.5206 33.8735V33.8918L49.5041 33.8983L49.2939 33.9739L49.2923 33.9397C49.2767 33.7194 49.2532 33.4007 48.8785 33.4007H47.9317V36.4946C47.937 36.9369 48.1147 36.9674 48.3972 36.9731H48.5363V36.9983V37.1999L48.5113 37.2Z" fill="#211E1F"/><path d="M49.7598 36.9981H49.8433C50.0564 36.9981 50.2821 36.9697 50.2821 36.6644V33.5928C50.2821 33.2871 50.0564 33.2583 49.8433 33.2583H49.7598V33.0823C50.1209 33.0823 50.7387 33.1054 51.2359 33.1054C51.7353 33.1054 52.351 33.0823 52.754 33.0823C52.7443 33.3339 52.7496 33.7217 52.7672 33.9791L52.5883 34.0262C52.5599 33.6453 52.4888 33.3409 51.8656 33.3409H51.0418V34.8762H51.7468C52.1025 34.8762 52.1803 34.6774 52.2153 34.36H52.393C52.3815 34.5896 52.3753 34.8181 52.3753 35.0466C52.3753 35.2698 52.3814 35.4921 52.393 35.7149L52.2153 35.7498C52.1803 35.3982 52.1623 35.1697 51.7526 35.1697H51.0419V36.5352C51.0419 36.9169 51.3845 36.9169 51.7645 36.9169C52.4765 36.9169 52.7903 36.8693 52.9684 36.2018L53.1346 36.2421C53.0569 36.5535 52.9861 36.8636 52.9335 37.175C52.5534 37.175 51.871 37.1518 51.338 37.1518C50.8033 37.1518 50.0979 37.175 49.7598 37.175V36.9981Z" fill="#211E1F"/><path d="M52.9327 37.1996C52.5518 37.1996 51.8698 37.1756 51.3372 37.1756C50.803 37.1756 50.0979 37.1996 49.7594 37.1996H49.7344V37.1748V36.998V36.9728H49.7594H49.8425C50.0576 36.9695 50.2526 36.9508 50.2555 36.6642V33.5926C50.2526 33.3064 50.0576 33.2873 49.8425 33.2829H49.7344V33.2581V33.0569H49.7594C50.1214 33.0569 50.7383 33.0792 51.2356 33.0792C51.7345 33.0792 52.3498 33.0569 52.7537 33.0569H52.7805L52.7792 33.0829C52.7751 33.1711 52.7735 33.2751 52.7735 33.3857C52.7735 33.5886 52.7792 33.8101 52.7912 33.9772L52.792 33.9984L52.7723 34.0041L52.5637 34.0577L52.5625 34.0277C52.5276 33.6472 52.4762 33.3712 51.8654 33.3655H51.0662L51.0654 34.8496H51.7465C52.088 34.8464 52.1492 34.6736 52.1895 34.3577L52.1916 34.3346H52.2146H52.4191L52.4186 34.361C52.4072 34.5894 52.3997 34.8179 52.3997 35.0463C52.3997 35.2683 52.4072 35.4906 52.4186 35.7138L52.4191 35.7346L52.3977 35.7394L52.1916 35.7801L52.1895 35.7524C52.1488 35.3947 52.1459 35.1988 51.7518 35.1943L51.0662 35.1939V36.5349C51.0667 36.891 51.3775 36.889 51.7642 36.891C52.4782 36.887 52.7645 36.8529 52.9434 36.1943L52.9492 36.1707L52.9743 36.1752L53.1644 36.2235L53.1586 36.248C53.0821 36.5585 53.0109 36.8683 52.9578 37.1788L52.9529 37.1996H52.9327ZM52.9109 37.1484C52.9623 36.8528 53.0301 36.5561 53.103 36.2609L52.9858 36.2317C52.8081 36.8878 52.4641 36.9463 51.7641 36.9419C51.3907 36.9419 51.0164 36.9419 51.0147 36.5349V35.1438H51.7518C52.1659 35.1394 52.2084 35.3865 52.2376 35.7203L52.3659 35.6939C52.3544 35.478 52.3491 35.2613 52.3491 35.0463C52.3491 34.8256 52.3544 34.6061 52.3659 34.3853H52.2376C52.2047 34.6906 52.108 34.9052 51.7465 34.9012H51.0147V33.3142H51.8654C52.4824 33.3101 52.5847 33.6247 52.6111 33.9934L52.739 33.9593C52.7287 33.7938 52.7217 33.5816 52.7217 33.3857C52.7217 33.2853 52.7242 33.1906 52.7275 33.1077C52.3244 33.1093 51.7239 33.1304 51.2356 33.1304C50.7482 33.1304 50.1482 33.1093 49.785 33.1077V33.232H49.8425C50.0539 33.232 50.3065 33.2686 50.3073 33.5926V36.6642C50.3065 36.9874 50.0539 37.0232 49.8425 37.0248H49.785V37.1484C50.1309 37.1479 50.8162 37.126 51.3372 37.126C51.8604 37.126 52.5283 37.1479 52.9109 37.1484Z" fill="#211E1F"/><path d="M53.9383 33.7033C53.9383 33.2757 53.7014 33.2582 53.5167 33.2582H53.4102V33.0818C53.6001 33.0818 53.9674 33.1054 54.3294 33.1054C54.6852 33.1054 54.9702 33.0818 55.2841 33.0818C56.031 33.0818 56.6961 33.2814 56.6961 34.1147C56.6961 34.6411 56.3404 34.9639 55.8718 35.1464L56.8857 36.6464C57.0518 36.8944 57.1699 36.9639 57.4611 36.998V37.1749C57.2653 37.1749 57.0753 37.1517 56.8799 37.1517C56.6961 37.1517 56.5056 37.1749 56.3225 37.1749C55.866 36.5826 55.4736 35.9493 55.0882 35.2745H54.698V36.5298C54.698 36.9818 54.9106 36.9981 55.1833 36.9981H55.2902V37.1749C54.9513 37.1749 54.6087 37.1518 54.2702 37.1518C53.9852 37.1518 53.7063 37.1749 53.4102 37.1749V36.9981H53.5167C53.7371 36.9981 53.9383 36.8997 53.9383 36.6822V33.7033ZM54.6979 35.0635H54.9875C55.581 35.0635 55.9005 34.8408 55.9005 34.1489C55.9005 33.6277 55.5629 33.2932 55.0344 33.2932C54.8563 33.2932 54.7806 33.3115 54.6978 33.3167V35.0635H54.6979Z" fill="#211E1F"/><path d="M57.4578 37.1996C57.2592 37.1996 57.0704 37.176 56.8754 37.176C56.6944 37.176 56.5052 37.1996 56.2984 37.1898C55.8434 36.6 55.4535 35.9703 55.0702 35.3004H54.7197V36.5289C54.7259 36.97 54.9052 36.9663 55.1796 36.9728H55.3124V36.998V37.1996H55.2861C54.9472 37.1996 54.6029 37.176 54.2661 37.176C53.9826 37.176 53.7046 37.1996 53.4068 37.1996H53.3809V37.1744V36.9728H53.4068H53.5133C53.7272 36.9716 53.9074 36.8797 53.9082 36.6821V33.7033C53.9037 33.287 53.6977 33.2894 53.5133 33.2834H53.3809V33.2582V33.0562H53.4068C53.5989 33.0562 53.965 33.0793 54.3261 33.0793C54.6802 33.0793 54.9653 33.0562 55.2812 33.0562C56.0285 33.0578 56.7171 33.2618 56.7191 34.1131C56.7191 34.6427 56.365 34.9732 55.9072 35.1578L56.9038 36.6325C57.0695 36.8756 57.1728 36.9363 57.4615 36.9728L57.4833 36.976V36.998V37.1996H57.4578V37.1996ZM54.6939 35.2491H55.0994L55.1064 35.2621C55.493 35.9357 55.8825 36.5682 56.3193 37.1495C56.5003 37.1495 56.6907 37.1256 56.8754 37.1256C57.065 37.1256 57.2476 37.1459 57.4323 37.1487V37.0203C57.1538 36.9861 57.0235 36.904 56.8614 36.6605L55.8295 35.134L55.8586 35.1223C56.3226 34.9418 56.6661 34.6284 56.6665 34.1129C56.6661 33.2995 56.0268 33.1109 55.2812 33.1077C54.9681 33.1077 54.6835 33.1308 54.3261 33.1308C53.9778 33.1308 53.626 33.1093 53.4319 33.1077V33.232H53.5133C53.6976 33.2325 53.96 33.2625 53.96 33.7032V36.6821C53.96 36.9174 53.7366 37.0247 53.5133 37.0252H53.4319V37.1487C53.7174 37.1479 53.9876 37.1256 54.2661 37.1256C54.5979 37.1256 54.9324 37.1479 55.2606 37.1487V37.0252H55.1796C54.9089 37.0247 54.6679 36.9914 54.6679 36.5288V35.2491H54.6938H54.6939ZM54.6939 35.0882H54.6679V33.293L54.6905 33.291C54.7716 33.2849 54.8518 33.2682 55.0311 33.2682C55.5716 33.2682 55.9228 33.6154 55.9236 34.1499C55.922 34.8499 55.5823 35.0877 54.9842 35.0881H54.6939V35.0882ZM54.9842 35.0378C55.5715 35.0329 55.8669 34.8313 55.8731 34.1499C55.8698 33.6377 55.5477 33.3199 55.0311 33.3178C54.8707 33.3178 54.7954 33.3325 54.7197 33.339V35.0378H54.9842Z" fill="#211E1F"/><path d="M61.4861 36.0193L61.4968 36.0079V33.8096C61.4968 33.3283 61.1592 33.2583 60.9815 33.2583H60.8515V33.0823C61.13 33.0823 61.4023 33.1054 61.6815 33.1054C61.925 33.1054 62.1673 33.0823 62.412 33.0823V33.2583H62.3227C62.0735 33.2583 61.7946 33.305 61.7946 34.0026V36.671C61.7946 36.8759 61.8004 37.0807 61.8296 37.2625H61.6046L58.5503 33.897V36.3129C58.5503 36.823 58.651 36.9982 59.1076 36.9982H59.2084V37.1751C58.9537 37.1751 58.6983 37.1519 58.4437 37.1519C58.1759 37.1519 57.9032 37.1751 57.6367 37.1751V36.9982H57.719C58.1287 36.9982 58.2533 36.7234 58.2533 36.2547V33.7852C58.2533 33.4572 57.9805 33.2584 57.7141 33.2584H57.6367V33.0824C57.8613 33.0824 58.0937 33.1055 58.3187 33.1055C58.4956 33.1055 58.6683 33.0824 58.8464 33.0824L61.4861 36.0193Z" fill="#211E1F"/><path d="M61.8313 37.2874L61.587 37.2793L58.5767 33.9631V36.3123C58.5837 36.8224 58.6618 36.9671 59.1093 36.9728H59.2348V36.998V37.1997H59.2088C58.9523 37.1997 58.698 37.1756 58.4438 37.1756C58.179 37.1756 57.905 37.1997 57.6381 37.1997H57.6113V37.1749V36.9728H57.6381H57.7203C58.1119 36.9712 58.2242 36.722 58.2279 36.2529V33.785C58.2275 33.4728 57.9688 33.2834 57.7154 33.2829H57.6113V33.2582V33.0562H57.6381C57.8643 33.0562 58.0963 33.0793 58.32 33.0793C58.4944 33.0793 58.6663 33.0562 58.8654 33.0642L61.4727 35.9659V33.809C61.471 33.3431 61.1552 33.2854 60.9829 33.283H60.8261V33.2582V33.0562H60.8521C61.1326 33.0562 61.4056 33.0793 61.6829 33.0793C61.9248 33.0793 62.1678 33.0562 62.4121 33.0562H62.438V33.0826V33.283H62.4121H62.324C62.0794 33.2895 61.8272 33.311 61.821 34.0025V36.6704C61.821 36.8752 61.8264 37.0785 61.8564 37.259L61.8597 37.2874H61.8313ZM61.6059 37.2362H61.8009C61.775 37.0602 61.7692 36.8651 61.7692 36.6704V34.0025C61.7696 33.2988 62.0699 33.2338 62.324 33.2317H62.3862V33.1077C62.1534 33.1094 61.9185 33.1305 61.6828 33.1305C61.4106 33.1305 61.146 33.1094 60.8775 33.1077V33.2317H60.9828C61.1654 33.2338 61.5249 33.3126 61.5249 33.809L61.5167 36.0252L61.5052 36.0374L61.4871 36.0561L58.8473 33.1078C58.6713 33.1078 58.4993 33.1305 58.3201 33.1305C58.1004 33.1305 57.8787 33.1094 57.6628 33.1078V33.2318H57.7154C57.9939 33.2338 58.2797 33.4415 58.2797 33.785V36.2529C58.2797 36.7236 58.1457 37.0232 57.7204 37.0248L57.6628 37.0244V37.1484C57.919 37.1472 58.1835 37.126 58.4439 37.126C58.6927 37.126 58.9391 37.1472 59.1842 37.1484V37.0248H59.1093C58.6421 37.0244 58.5253 36.8224 58.5245 36.3122V33.8317L61.6059 37.2362ZM61.4874 36.0187L61.5055 36.0021L61.4874 36.0187ZM61.4727 36.0078V36.0057L61.4681 36.0012L61.4727 36.0078Z" fill="#211E1F"/><path d="M63.366 36.336C63.306 36.5348 63.2344 36.6885 63.2344 36.793C63.2344 36.9694 63.484 36.9978 63.679 36.9978H63.7452V37.1747C63.5075 37.162 63.2652 37.1515 63.0263 37.1515C62.8128 37.1515 62.6006 37.1621 62.3867 37.1747V36.9978H62.4225C62.6536 36.9978 62.8499 36.8632 62.9374 36.6165L63.8875 33.9262C63.9641 33.7092 64.0718 33.4161 64.1077 33.1986C64.2965 33.1348 64.5342 33.0177 64.6465 32.947C64.665 32.941 64.6752 32.9348 64.6938 32.9348C64.7115 32.9348 64.7229 32.9348 64.7361 32.9531C64.7534 32.9994 64.7707 33.0527 64.7896 33.0994L65.8808 36.1661C65.9519 36.371 66.0222 36.5877 66.0992 36.7641C66.1708 36.9283 66.2958 36.9978 66.492 36.9978H66.5269V37.1747C66.2601 37.1621 65.9927 37.1515 65.7089 37.1515C65.4181 37.1515 65.1207 37.1621 64.8184 37.1747V36.9978H64.8842C65.02 36.9978 65.252 36.9751 65.252 36.8283C65.252 36.7523 65.1985 36.5942 65.1323 36.406L64.9015 35.7259H63.5553L63.366 36.336ZM64.2314 33.7385H64.2194L63.6679 35.3978H64.7764L64.2314 33.7385Z" fill="#211E1F"/><path d="M66.5258 37.1999C66.2588 37.1881 65.9919 37.1759 65.7093 37.1759C65.4185 37.1759 65.1232 37.1881 64.8196 37.1999L64.7929 37.2015V37.1751V36.9723H64.8189H64.8843C65.0216 36.9723 65.2256 36.9414 65.2256 36.8288C65.2273 36.7621 65.1738 36.6011 65.1084 36.4146L64.8826 35.7516H63.5742L63.39 36.3438C63.3299 36.5438 63.2588 36.6987 63.2592 36.7942C63.2612 36.9374 63.4829 36.9723 63.6795 36.9723H63.7708V36.9987V37.2015L63.7441 37.1999C63.5068 37.1881 63.2645 37.1759 63.028 37.1759C62.8154 37.1759 62.6015 37.1881 62.3889 37.1999L62.3613 37.2015V37.1751V36.9723H62.3872H62.4226C62.6434 36.9715 62.8278 36.8475 62.9133 36.6089L63.863 33.9182C63.9408 33.7008 64.0477 33.4085 64.0991 33.1747C64.285 33.1125 64.5231 32.9947 64.6375 32.9231C64.654 32.9178 64.6705 32.9097 64.6947 32.9097C64.7091 32.9093 64.7412 32.9129 64.7601 32.9439C64.777 32.9922 64.7954 33.0443 64.8135 33.0919L65.906 36.1582C65.976 36.3639 66.0467 36.5805 66.1241 36.7537C66.1927 36.9102 66.3017 36.9715 66.4925 36.9724H66.5531V36.9988V37.2016L66.5258 37.1999ZM64.8447 37.1475C65.1384 37.1373 65.4259 37.1259 65.7093 37.1259C65.9849 37.1259 66.2428 37.1373 66.5006 37.1475V37.0251H66.4924C66.2893 37.0263 66.149 36.9475 66.0761 36.7747C65.9989 36.5967 65.9265 36.3792 65.857 36.1739L64.7649 33.108C64.7469 33.0613 64.7296 33.008 64.7139 32.9666C64.709 32.9609 64.7102 32.9609 64.7053 32.9609H64.6946C64.6823 32.9609 64.6753 32.9645 64.66 32.9686C64.5457 33.0422 64.3076 33.1572 64.1319 33.2032C64.0953 33.4251 63.9888 33.7178 63.9115 33.9349L62.9622 36.6259C62.8717 36.8804 62.664 37.0255 62.4226 37.0251H62.4131V37.1475C62.6163 37.1373 62.8219 37.1259 63.028 37.1259C63.2571 37.1259 63.4915 37.1373 63.7177 37.1475V37.0251H63.6795C63.4866 37.0226 63.2168 37.0011 63.2094 36.7942C63.2098 36.6771 63.2826 36.5272 63.3405 36.3292L63.3665 36.3369L63.3405 36.3283L63.5359 35.7015H64.9188L65.1569 36.3983C65.2235 36.5865 65.2774 36.7426 65.2774 36.8288C65.2692 37.0089 65.0187 37.0215 64.8842 37.0251H64.8447V37.1475H64.8447ZM63.6322 35.4234L64.2002 33.7133H64.2199H64.2323V33.7389L64.2257 33.7401L64.2323 33.7389V33.7133H64.25L64.8131 35.4234H63.6322ZM63.7033 35.3726H64.7415L64.2253 33.8015L63.7033 35.3726ZM64.2064 33.7462L64.2199 33.7418L64.2064 33.7462Z" fill="#211E1F"/><path d="M66.7887 33.3747C66.3437 33.3747 66.326 33.4804 66.2367 33.908H66.0586C66.082 33.7442 66.1121 33.5804 66.1307 33.4096C66.1544 33.2454 66.1652 33.0819 66.1652 32.9121H66.3083C66.3556 33.0881 66.5045 33.082 66.6637 33.082H69.7251C69.8843 33.082 70.0324 33.0763 70.0447 32.8999L70.1866 32.9235C70.1639 33.082 70.1405 33.2401 70.1224 33.3986C70.1096 33.5568 70.1096 33.7153 70.1096 33.873L69.932 33.9385C69.9208 33.7218 69.8912 33.3747 69.4935 33.3747H68.5208V36.4942C68.5208 36.9462 68.7289 36.9979 69.0127 36.9979H69.1253V37.1747C68.8942 37.1747 68.4796 37.1515 68.1588 37.1515C67.8034 37.1515 67.3876 37.1747 67.1565 37.1747V36.9979H67.2687C67.5957 36.9979 67.7619 36.969 67.7619 36.5064V33.3747H66.7887Z" fill="#211E1F"/><path d="M69.1262 37.1999C68.8934 37.1999 68.4779 37.1764 68.1596 37.1764C67.805 37.1764 67.3896 37.1999 67.1572 37.1999H67.1309V37.1751V36.9731H67.1572H67.2695C67.5964 36.9654 67.7277 36.9613 67.7359 36.5068L67.7351 33.4007H66.7895V33.3751V33.3491H67.7873V36.5068C67.7873 36.9771 67.5952 37.0235 67.2695 37.0247H67.1823V37.1499C67.4171 37.1474 67.8153 37.1263 68.1596 37.1263C68.4693 37.1263 68.8658 37.1475 69.1002 37.1499V37.0247H69.0126C68.7275 37.0235 68.4964 36.9556 68.4956 36.4946V33.3491H69.4942C69.8924 33.3507 69.9446 33.6852 69.9558 33.9027L70.0853 33.856C70.0853 33.7031 70.0857 33.5499 70.0972 33.3962C70.1137 33.2454 70.1358 33.095 70.1577 32.9454L70.068 32.9303C70.0409 33.1011 69.8735 33.1104 69.7258 33.108H66.6644H66.6344C66.4946 33.1096 66.3432 33.1015 66.2893 32.9368H66.1923C66.1906 33.0994 66.1795 33.2572 66.156 33.4133C66.1404 33.5747 66.1112 33.73 66.089 33.884H66.2161C66.2947 33.4754 66.3461 33.3429 66.7894 33.3491V33.3751V33.4007C66.3498 33.408 66.3597 33.4816 66.2625 33.9149L66.258 33.9348H66.2375H66.0293L66.033 33.9055C66.0577 33.7401 66.0873 33.5767 66.1046 33.4072C66.1288 33.2433 66.1404 33.0807 66.1404 32.9124V32.8868H66.1658H66.3279L66.3328 32.9051C66.3744 33.0531 66.4825 33.0539 66.6343 33.0563L66.6643 33.0572H69.7258C69.8895 33.0539 70.0091 33.0515 70.0194 32.8987L70.0211 32.8706L70.049 32.8763L70.2173 32.9024L70.2128 32.928C70.1885 33.0849 70.1659 33.2434 70.1478 33.4007C70.1358 33.5568 70.1358 33.7158 70.1358 33.8735V33.8918L70.1191 33.8983L69.9088 33.9739L69.9076 33.9397C69.8924 33.7194 69.8689 33.4007 69.4942 33.4007H68.547V36.4946C68.5532 36.9369 68.7304 36.9674 69.0126 36.9731H69.1516V36.9983V37.1999L69.1262 37.1999Z" fill="#211E1F"/><path d="M70.4023 36.9981H70.4855C70.6997 36.9981 70.9238 36.9697 70.9238 36.6644V33.5928C70.9238 33.2871 70.6997 33.2583 70.4855 33.2583H70.4023V33.0823C70.634 33.0823 70.9893 33.1054 71.2792 33.1054C71.577 33.1054 71.9329 33.0823 72.2117 33.0823V33.2583H72.1286C71.9152 33.2583 71.689 33.2872 71.689 33.5928V36.6644C71.689 36.9697 71.9152 36.9981 72.1286 36.9981H72.2117V37.175C71.9266 37.175 71.5705 37.1518 71.2748 37.1518C70.9836 37.1518 70.634 37.175 70.4023 37.175V36.9981Z" fill="#211E1F"/><path d="M72.2141 37.1996C71.9275 37.1996 71.5725 37.1756 71.2768 37.1756C70.9868 37.1756 70.6364 37.1996 70.4048 37.1996H70.3789V37.1748V36.998V36.9728H70.4048H70.4879C70.7022 36.9695 70.8988 36.9512 70.8996 36.6642V33.5926C70.8988 33.3064 70.7022 33.2869 70.4879 33.2829H70.3789V33.2581V33.0569H70.4048C70.6364 33.0569 70.9926 33.0792 71.2817 33.0792C71.5775 33.0792 71.9332 33.0569 72.2141 33.0569H72.2392V33.082V33.2829H72.2141H72.131C71.9143 33.2869 71.7197 33.3064 71.7169 33.5926V36.6642C71.7197 36.9512 71.9143 36.9695 72.131 36.9728H72.2392V36.998V37.1996H72.2141ZM72.1874 37.1484V37.0243H72.131C71.9184 37.0243 71.6667 36.9874 71.6667 36.6642V33.5926C71.6667 33.2686 71.9184 33.232 72.131 33.232H72.1874V33.1077C71.9135 33.1093 71.5709 33.1304 71.2817 33.1304C71.0008 33.1304 70.6606 33.1093 70.4307 33.1077V33.232H70.4879C70.6989 33.232 70.9515 33.2686 70.9523 33.5926V36.6642C70.9514 36.9874 70.6989 37.0243 70.4879 37.0243H70.4307V37.1484C70.6595 37.1459 70.9951 37.126 71.2768 37.126C71.5643 37.126 71.9077 37.1471 72.1874 37.1484H72.1874Z" fill="#211E1F"/><path d="M74.5803 32.9944C75.8446 32.9944 76.8523 33.7692 76.8523 35.0176C76.8523 36.3664 75.8738 37.2627 74.6111 37.2627C73.3525 37.2627 72.3926 36.4183 72.3926 35.1578C72.3926 33.9387 73.3468 32.9944 74.5803 32.9944ZM74.6699 37.0046C75.8208 37.0046 76.0211 36.0013 76.0211 35.1464C76.0211 34.2895 75.5539 33.2521 74.5688 33.2521C73.5307 33.2521 73.2226 34.1667 73.2226 34.9517C73.2226 36.0013 73.7088 37.0046 74.6699 37.0046Z" fill="#211E1F"/><path d="M72.3652 35.1578C72.3677 33.9244 73.3335 32.9704 74.5793 32.9688V32.9944V33.0191C73.3602 33.0191 72.4167 33.9513 72.4155 35.1577C72.4183 36.4041 73.3648 37.2358 74.6102 37.2362C75.8605 37.2358 76.8251 36.3521 76.8271 35.0163C76.8259 33.7838 75.8334 33.0207 74.5794 33.0191V32.9944V32.9688C75.8536 32.9696 76.8749 33.7521 76.8773 35.0163C76.8761 36.3793 75.8848 37.285 74.6102 37.2874C73.3417 37.285 72.3677 36.4321 72.3653 35.1577H72.3652V35.1578ZM73.1962 34.9517C73.1978 34.1631 73.5095 33.2257 74.5682 33.2257C75.5751 33.2281 76.0452 34.2851 76.0468 35.1464C76.0452 36.0013 75.8417 37.029 74.6695 37.029V37.0046V36.9793C75.7973 36.9778 75.9926 36.0013 75.9954 35.1464C75.9954 34.2964 75.5323 33.279 74.5682 33.2777C73.5507 33.2789 73.2495 34.1708 73.2476 34.9517C73.2484 35.996 73.73 36.9769 74.6695 36.9793V37.0046V37.029C73.6848 37.0277 73.1978 36.0074 73.1962 34.9517Z" fill="#211E1F"/><path d="M80.8498 36.0193L80.8618 36.0079V33.8096C80.8618 33.3283 80.5229 33.2583 80.3448 33.2583H80.2164V33.0823C80.4945 33.0823 80.7672 33.1054 81.0452 33.1054C81.2891 33.1054 81.5322 33.0823 81.7757 33.0823V33.2583H81.686C81.4376 33.2583 81.1583 33.305 81.1583 34.0026V36.671C81.1583 36.8759 81.1641 37.0807 81.1941 37.2625H80.9691L77.9139 33.897V36.3129C77.9139 36.823 78.0143 36.9982 78.4708 36.9982H78.5724V37.1751C78.317 37.1751 78.0624 37.1519 77.8074 37.1519C77.5404 37.1519 77.2669 37.1751 77 37.1751V36.9982H77.0835C77.4936 36.9982 77.6165 36.7234 77.6165 36.2547V33.7852C77.6165 33.4572 77.345 33.2584 77.0773 33.2584H77V33.0824C77.2254 33.0824 77.4569 33.1055 77.682 33.1055C77.86 33.1055 78.0316 33.0824 78.2101 33.0824L80.8498 36.0193Z" fill="#211E1F"/><path d="M81.1943 37.2874L80.9488 37.2788L77.9392 33.9629V36.3126C77.9457 36.8223 78.0243 36.9667 78.4698 36.9719H78.5981V36.9984V37.1996H78.5722C78.3151 37.1996 78.0605 37.176 77.8071 37.176C77.541 37.176 77.2687 37.1996 76.9993 37.1996H76.9746V37.1744V36.9719H76.9993H77.0832C77.4744 36.9708 77.5867 36.722 77.5916 36.2545V33.7849C77.5907 33.4727 77.332 33.2833 77.077 33.2829H76.9746V33.2581V33.0569H76.9993C77.2268 33.0569 77.4579 33.0793 77.6816 33.0793C77.8577 33.0793 78.0288 33.0569 78.2295 33.0655L80.8356 35.9659V33.8098C80.8339 33.3431 80.518 33.287 80.3445 33.2829H80.1886V33.2582V33.057H80.2153C80.4946 33.057 80.7681 33.0793 81.044 33.0793C81.2875 33.0793 81.5294 33.057 81.7754 33.057H81.8009V33.0821V33.2829H81.7754H81.6856C81.4417 33.2899 81.1893 33.3118 81.1843 34.0025V36.6704C81.1843 36.8752 81.1888 37.0797 81.2177 37.2589L81.2226 37.2874H81.1943V37.2874ZM80.969 37.2361H81.1631C81.1372 37.0601 81.1326 36.865 81.1326 36.6703V34.0024C81.1326 33.2975 81.4317 33.2337 81.6859 33.2316H81.75V33.1077C81.516 33.1093 81.2816 33.1304 81.0443 33.1304C80.7744 33.1304 80.5091 33.1093 80.2406 33.1077V33.2316H80.3446C80.5285 33.2337 80.8863 33.3138 80.8863 33.8097L80.8798 36.0252L80.8686 36.0374L80.8497 36.056L78.21 33.1077C78.0352 33.1077 77.862 33.1305 77.6819 33.1305C77.4634 33.1305 77.2409 33.1093 77.025 33.1077V33.2317H77.0772C77.3557 33.2337 77.6423 33.4414 77.6423 33.7849V36.2545C77.6423 36.7232 77.5099 37.0232 77.0834 37.0248L77.025 37.0243V37.1484C77.2824 37.1471 77.5465 37.126 77.8073 37.126C78.0545 37.126 78.3 37.1471 78.5464 37.1484V37.0248H78.4699C78.0044 37.0243 77.888 36.8223 77.888 36.3126V33.8308L80.969 37.2361ZM80.8497 36.0186L80.8685 36.002L80.8497 36.0186ZM80.8357 36.0077V36.0056L80.8307 36.0012L80.8357 36.0077Z" fill="#211E1F"/><path d="M82.7292 36.336C82.6712 36.5348 82.5992 36.6885 82.5992 36.793C82.5992 36.9694 82.8489 36.9978 83.0435 36.9978H83.1097V37.1747C82.8724 37.162 82.6289 37.1515 82.3916 37.1515C82.1772 37.1515 81.9646 37.1621 81.752 37.1747V36.9978H81.7857C82.0181 36.9978 82.2147 36.8632 82.3023 36.6165L83.2524 33.9262C83.3289 33.7092 83.4363 33.4161 83.4709 33.1986C83.6609 33.1348 83.8978 33.0177 84.0117 32.947C84.0285 32.941 84.0405 32.9348 84.0586 32.9348C84.0763 32.9348 84.0874 32.9348 84.0993 32.9531C84.1174 32.9994 84.136 33.0527 84.1536 33.0994L85.2444 36.1661C85.3156 36.371 85.3863 36.5877 85.4645 36.7641C85.5356 36.9283 85.6607 36.9978 85.8556 36.9978H85.8918V37.1747C85.6245 37.1621 85.3576 37.1515 85.0725 37.1515C84.7825 37.1515 84.4856 37.1621 84.1828 37.1747V36.9978H84.2487C84.384 36.9978 84.6168 36.9751 84.6168 36.8283C84.6168 36.7523 84.5629 36.5942 84.4967 36.406L84.2664 35.7259H82.9197L82.7292 36.336ZM83.5963 33.7385H83.5844L83.032 35.3978H84.142L83.5963 33.7385Z" fill="#211E1F"/><path d="M85.8879 37.1998C85.621 37.1892 85.3545 37.1762 85.0711 37.1762C84.7819 37.1762 84.485 37.1892 84.1822 37.1998L84.1559 37.2014V37.1746V36.973H84.1814H84.246C84.3841 36.973 84.5886 36.9413 84.589 36.8287C84.5902 36.762 84.5368 36.6022 84.4706 36.4144L84.2452 35.7514H82.936L82.7525 36.3437C82.6933 36.5445 82.6225 36.6985 82.6238 36.7933C82.6238 36.9372 82.8458 36.973 83.0421 36.973H83.1326V36.9982V37.2014L83.1063 37.1998C82.8689 37.1892 82.6262 37.1762 82.3902 37.1762C82.1775 37.1762 81.9644 37.1892 81.7506 37.1998L81.7246 37.2014V37.1746V36.973H81.7506H81.7843C82.0055 36.9721 82.1906 36.8465 82.277 36.6087L83.2263 33.9181C83.302 33.7006 83.4089 33.4083 83.4616 33.1754C83.6479 33.1116 83.886 32.9945 84.0012 32.9229C84.0168 32.9176 84.0329 32.9107 84.0571 32.9107C84.0728 32.9091 84.1032 32.9127 84.1221 32.9449C84.1398 32.9908 84.1571 33.0441 84.1768 33.0916L85.2676 36.1579C85.3384 36.3636 85.4096 36.5803 85.4864 36.7547C85.5559 36.91 85.6641 36.9713 85.8533 36.973H85.915V36.9982V37.2014L85.8879 37.1998ZM84.2069 37.1481C84.5002 37.1372 84.7889 37.1258 85.0711 37.1258C85.347 37.1258 85.6058 37.1372 85.864 37.1473L85.8632 37.0249H85.8534C85.6526 37.0254 85.5124 36.9473 85.4388 36.7746C85.3606 36.5965 85.2899 36.379 85.2191 36.1745L84.1275 33.1079C84.1098 33.0611 84.0917 33.0079 84.0773 32.968C84.0724 32.9607 84.0728 32.9607 84.0682 32.9607H84.0571C84.0448 32.9607 84.0382 32.9648 84.0238 32.9688C83.9082 33.0408 83.6705 33.1578 83.4949 33.203C83.4582 33.4249 83.3505 33.7172 83.274 33.9347L82.3243 36.6258C82.2342 36.8802 82.027 37.0254 81.7842 37.0249H81.7756V37.1473C81.9796 37.1372 82.1836 37.1258 82.3901 37.1258C82.62 37.1258 82.854 37.1372 83.0823 37.1473V37.0249H83.042C82.8492 37.0225 82.5785 37.0018 82.5715 36.7933C82.5727 36.677 82.6463 36.5278 82.7035 36.329L82.7278 36.3367L82.7035 36.3282L82.8989 35.7013H84.2822L84.5199 36.3981C84.5853 36.5868 84.6391 36.7424 84.6391 36.8286C84.6305 37.0087 84.3817 37.0213 84.2459 37.0249H84.2068V37.1481H84.2069ZM82.9952 35.423L83.564 33.7132H83.5821H83.5949V33.7388L83.5887 33.74L83.5949 33.7388V33.7132H83.6134L84.174 35.423H82.9952ZM83.0663 35.3725H84.1037L83.5879 33.8022L83.0663 35.3725ZM83.5702 33.7461L83.5821 33.7417L83.5702 33.7461Z" fill="#211E1F"/><path d="M87.3834 36.6002C87.3834 36.8348 87.5479 36.9047 87.738 36.9286C87.9811 36.9465 88.248 36.9465 88.522 36.9168C88.7704 36.8872 88.9843 36.7466 89.0904 36.6002C89.185 36.4709 89.2385 36.3067 89.2742 36.1778H89.4462C89.3812 36.512 89.2981 36.8412 89.2265 37.175C88.7058 37.175 88.1827 37.1518 87.6615 37.1518C87.1387 37.1518 86.6176 37.175 86.0957 37.175V36.9981H86.1771C86.3918 36.9981 86.6238 36.9697 86.6238 36.6059V33.5928C86.6238 33.2871 86.3918 33.2583 86.1771 33.2583H86.0957V33.0823C86.4091 33.0823 86.718 33.1054 87.0318 33.1054C87.3353 33.1054 87.6315 33.0823 87.9342 33.0823V33.2583H87.7849C87.5603 33.2583 87.3834 33.2648 87.3834 33.5746V36.6002Z" fill="#211E1F"/><path d="M89.2275 37.1993C88.7048 37.1993 88.1829 37.1757 87.6625 37.1757C87.1401 37.1757 86.6182 37.1993 86.0954 37.1993H86.0703V37.1741V36.9725H86.0954H86.1781C86.3932 36.9676 86.5964 36.953 86.5989 36.6054V33.5912C86.5964 33.3062 86.3944 33.2867 86.1781 33.2826H86.0703V33.2579V33.0566H86.0954C86.4109 33.0566 86.7198 33.079 87.0332 33.079C87.3343 33.079 87.6304 33.0566 87.9352 33.0566H87.9595V33.0818V33.2826H87.9352H87.7863C87.5564 33.2891 87.4133 33.2786 87.4087 33.5741V36.5997C87.4104 36.818 87.5552 36.877 87.7403 36.9026C87.8451 36.9099 87.955 36.9144 88.0694 36.9144C88.2145 36.9144 88.3655 36.9075 88.5185 36.8912C88.7603 36.8632 88.9684 36.7254 89.0705 36.5855C89.1617 36.4603 89.2144 36.2993 89.2498 36.1713L89.2551 36.1518H89.2749H89.4785L89.4731 36.1827C89.4061 36.5181 89.3247 36.8457 89.2527 37.1795L89.2478 37.1994H89.2276H89.2275V37.1993ZM89.2061 37.1481C89.2748 36.8302 89.3526 36.5192 89.4163 36.2021H89.2946C89.2575 36.3297 89.2049 36.4871 89.1116 36.6151C89.0009 36.7671 88.7812 36.9102 88.5242 36.9415C88.3687 36.9574 88.2149 36.9655 88.0693 36.9655C87.9545 36.9655 87.8431 36.9602 87.7357 36.9529C87.5428 36.9317 87.3556 36.8504 87.3565 36.5997V33.574C87.3565 33.2484 87.565 33.2318 87.7863 33.2318H87.9089V33.1074C87.6165 33.109 87.3285 33.1305 87.0331 33.1305C86.7259 33.1305 86.4256 33.109 86.1213 33.1074V33.2318H86.1781C86.3899 33.2318 86.649 33.2683 86.649 33.5911V36.6054C86.649 36.9846 86.3911 37.0241 86.1781 37.0241H86.1213V37.148C86.6342 37.1476 87.1471 37.1257 87.6625 37.1257C88.1779 37.1257 88.6929 37.1476 89.2061 37.1481Z" fill="#211E1F"/><path d="M89.3748 32.9155C89.7322 32.9155 89.9992 33.1871 89.9992 33.535C89.9992 33.8814 89.7322 34.1505 89.3748 34.1505C89.0174 34.1505 88.75 33.8814 88.75 33.535C88.75 33.1871 89.0173 32.9155 89.3748 32.9155ZM89.3748 34.0355C89.6541 34.0355 89.8688 33.7997 89.8688 33.535C89.8688 33.2688 89.6573 33.031 89.3748 33.031C89.0939 33.031 88.8792 33.2688 88.8792 33.535C88.8792 33.7997 89.0939 34.0355 89.3748 34.0355ZM89.0638 33.8602V33.8298C89.1407 33.8192 89.1547 33.8216 89.1547 33.7745V33.3176C89.1547 33.2534 89.1477 33.2314 89.0667 33.2346V33.2033H89.3863C89.4965 33.2033 89.5973 33.255 89.5973 33.3672C89.5973 33.459 89.5356 33.5269 89.4496 33.5533L89.552 33.6948C89.6001 33.759 89.654 33.8192 89.6898 33.8403V33.8602H89.5681C89.5097 33.8602 89.4587 33.7387 89.3435 33.5757H89.2744V33.7809C89.2744 33.8216 89.2888 33.8191 89.3657 33.8297V33.8602H89.0638V33.8602ZM89.2744 33.535H89.348C89.4286 33.535 89.4665 33.4745 89.4665 33.3773C89.4665 33.2789 89.408 33.2443 89.3439 33.2443H89.2744V33.535Z" fill="#211E1F"/><path d="M25.329 40.4879C30.9948 40.5147 36.1662 35.9212 36.1662 30.333C36.1662 24.222 30.9948 19.998 25.329 20H20.453C14.7193 19.998 10 24.2232 10 30.333C10 35.9224 14.7193 40.5147 20.453 40.4879H25.329Z" fill="#0079BE"/><path d="M20.4743 20.8467C15.235 20.8483 10.9895 25.0455 10.9883 30.2256C10.9895 35.4049 15.235 39.6016 20.4743 39.6033C25.7147 39.6016 29.9611 35.4049 29.9619 30.2256C29.9611 25.0455 25.7147 20.8483 20.4743 20.8467ZM14.4614 30.2256C14.4663 27.6943 16.0659 25.5358 18.3215 24.678V35.772C16.0659 34.9147 14.4663 32.7573 14.4614 30.2256ZM22.6262 35.7744V24.6776C24.8827 25.5333 26.4847 27.6931 26.4888 30.2256C26.4847 32.7589 24.8827 34.9171 22.6262 35.7744Z" fill="white"/><path d="M39.4879 24.4076C39.4879 23.4385 38.9766 23.5023 38.4864 23.4918V23.2117C38.9112 23.2324 39.3468 23.2324 39.7726 23.2324C40.2304 23.2324 40.8518 23.2117 41.6588 23.2117C44.4812 23.2117 46.0182 25.0751 46.0182 26.9832C46.0182 28.0503 45.3865 30.7328 41.5276 30.7328C40.9719 30.7328 40.459 30.7116 39.9469 30.7116C39.4566 30.7116 38.9766 30.7222 38.4863 30.7328V30.4531C39.1399 30.388 39.4566 30.3665 39.4879 29.6336V24.4076H39.4879ZM40.5565 29.4617C40.5565 30.2913 41.1566 30.3881 41.6905 30.3881C44.0456 30.3881 44.8189 28.6316 44.8189 27.0259C44.8189 25.0116 43.5105 23.5572 41.4071 23.5572C40.9596 23.5572 40.754 23.5889 40.5566 23.6003L40.5565 29.4617Z" fill="#211E1F"/><path d="M46.4004 30.4534H46.6069C46.9116 30.4534 47.1301 30.4534 47.1301 30.0969V27.1774C47.1301 26.7038 46.9668 26.638 46.5633 26.4237V26.251C47.0754 26.0989 47.6866 25.8957 47.7294 25.8632C47.8063 25.8201 47.8713 25.8087 47.926 25.8087C47.9799 25.8087 48.0025 25.8737 48.0025 25.9603V30.0969C48.0025 30.4534 48.2423 30.4534 48.5475 30.4534H48.7325V30.7335C48.3615 30.7335 47.9799 30.712 47.5883 30.712C47.1959 30.712 46.8031 30.7226 46.4004 30.7335V30.4534H46.4004ZM47.5664 24.1497C47.2827 24.1497 47.0326 23.8912 47.0326 23.6111C47.0326 23.3411 47.2942 23.0928 47.5664 23.0928C47.849 23.0928 48.1007 23.3201 48.1007 23.6111C48.1007 23.9021 47.8602 24.1497 47.5664 24.1497Z" fill="#211E1F"/><path d="M49.7683 27.2413C49.7683 26.8429 49.6477 26.7356 49.1365 26.5307V26.3263C49.605 26.1755 50.0513 26.0352 50.5748 25.8084C50.6074 25.8084 50.6394 25.8303 50.6394 25.9161V26.6169C51.2617 26.1755 51.796 25.8083 52.5273 25.8083C53.4527 25.8083 53.7797 26.4766 53.7797 27.3169V30.0966C53.7797 30.4531 54.0195 30.4531 54.3251 30.4531H54.5213V30.7332C54.1388 30.7332 53.7575 30.7117 53.366 30.7117C52.9731 30.7117 52.5803 30.7222 52.1883 30.7332V30.4531H52.3841C52.6901 30.4531 52.9069 30.4531 52.9069 30.0966V27.3067C52.9069 26.6916 52.5273 26.3904 51.9049 26.3904C51.5566 26.3904 51.0005 26.6705 50.6394 26.9079V30.0965C50.6394 30.453 50.8803 30.453 51.186 30.453H51.3818V30.7331C51.0005 30.7331 50.6184 30.7116 50.226 30.7116C49.834 30.7116 49.4408 30.7222 49.0488 30.7331V30.453H49.2454C49.5506 30.453 49.7682 30.453 49.7682 30.0965V27.2413H49.7683Z" fill="#211E1F"/><path d="M55.3529 27.7592C55.3303 27.8564 55.3303 28.0177 55.3529 28.3844C55.4171 29.4076 56.0838 30.2478 56.9545 30.2478C57.5546 30.2478 58.0243 29.9247 58.427 29.5263L58.5792 29.6775C58.0774 30.3344 57.4563 30.8946 56.563 30.8946C54.8293 30.8946 54.4805 29.2348 54.4805 28.5458C54.4805 26.4336 55.9192 25.8083 56.6818 25.8083C57.5653 25.8083 58.5142 26.3576 58.5245 27.4998C58.5245 27.5653 58.5245 27.6291 58.5142 27.6945L58.4155 27.7592H55.3529ZM57.2828 27.4141C57.5546 27.4141 57.5868 27.2738 57.5868 27.145C57.5868 26.5953 57.2491 26.1535 56.6383 26.1535C55.974 26.1535 55.5162 26.6376 55.3854 27.4141H57.2828Z" fill="#211E1F"/><path d="M58.7715 30.4531H59.066C59.3703 30.4531 59.5883 30.4531 59.5883 30.0966V27.0693C59.5883 26.7356 59.1857 26.6705 59.0216 26.5844V26.4234C59.8174 26.0888 60.2538 25.8083 60.3529 25.8083C60.4175 25.8083 60.4496 25.8409 60.4496 25.949V26.9185H60.4727C60.7445 26.4986 61.2031 25.8083 61.8674 25.8083C62.14 25.8083 62.4885 25.9913 62.4885 26.3795C62.4885 26.6705 62.282 26.9299 61.9768 26.9299C61.6375 26.9299 61.6375 26.6705 61.2566 26.6705C61.0711 26.6705 60.4612 26.9185 60.4612 27.5653V30.0966C60.4612 30.4531 60.6787 30.4531 60.9843 30.4531H61.5943V30.7332C60.9946 30.7222 60.5385 30.7117 60.0687 30.7117C59.6221 30.7117 59.1639 30.7222 58.7715 30.7332V30.4531H58.7715Z" fill="#211E1F"/><path d="M62.9701 29.2347C63.112 29.9461 63.5476 30.5498 64.3439 30.5498C64.9855 30.5498 65.2257 30.162 65.2257 29.7848C65.2257 28.5132 62.8499 28.9226 62.8499 27.188C62.8499 26.5844 63.341 25.8083 64.5396 25.8083C64.888 25.8083 65.3564 25.9059 65.7813 26.1218L65.8587 27.2198H65.6074C65.4988 26.5417 65.1175 26.1535 64.4191 26.1535C63.9831 26.1535 63.5693 26.4015 63.5693 26.8645C63.5693 28.1263 66.098 27.7373 66.098 29.4287C66.098 30.1397 65.5201 30.8946 64.2229 30.8946C63.7869 30.8946 63.2748 30.7438 62.8935 30.5287L62.7734 29.2893L62.9701 29.2347Z" fill="#211E1F"/><path d="M75.9387 25.1622H75.6668C75.4595 23.902 74.5546 23.3951 73.3343 23.3951C72.0798 23.3951 70.2594 24.2243 70.2594 26.8101C70.2594 28.9882 71.8301 30.55 73.5083 30.55C74.5871 30.55 75.4817 29.8174 75.6997 28.6858L75.9498 28.75L75.6997 30.3231C75.2419 30.604 74.01 30.8947 73.2898 30.8947C70.7397 30.8947 69.127 29.2675 69.127 26.8431C69.127 24.6341 71.1214 23.0496 73.2577 23.0496C74.1404 23.0496 74.9906 23.3309 75.8301 23.6219L75.9387 25.1622Z" fill="#211E1F"/><path d="M76.336 30.4534H76.5425C76.8481 30.4534 77.0669 30.4534 77.0669 30.0969V24.0961C77.0669 23.3952 76.9032 23.3737 76.4886 23.2554V23.083C76.9246 22.9432 77.3823 22.7489 77.6115 22.6192C77.7303 22.555 77.8183 22.5005 77.8504 22.5005C77.9171 22.5005 77.9388 22.5656 77.9388 22.6521V30.0969C77.9388 30.4534 78.1782 30.4534 78.4838 30.4534H78.6677V30.7335C78.2987 30.7335 77.9171 30.7119 77.5242 30.7119C77.1323 30.7119 76.7399 30.7226 76.3359 30.7335V30.4534H76.336Z" fill="#211E1F"/><path d="M83.3338 30.1399C83.3338 30.3347 83.4531 30.3452 83.6382 30.3452C83.7694 30.3452 83.9323 30.3347 84.0746 30.3347V30.5615C83.6053 30.6042 82.7115 30.8306 82.5042 30.8948L82.4495 30.8623V29.9904C81.7964 30.518 81.2941 30.8948 80.5196 30.8948C79.9311 30.8948 79.3208 30.518 79.3208 29.6135V26.8541C79.3208 26.574 79.2775 26.3045 78.668 26.2509V26.046C79.0608 26.0354 79.9311 25.9707 80.0734 25.9707C80.1944 25.9707 80.1944 26.046 80.1944 26.283V29.0622C80.1944 29.3862 80.1944 30.3126 81.142 30.3126C81.5126 30.3126 82.0028 30.0326 82.4603 29.6565V26.7565C82.4603 26.5419 81.9375 26.4236 81.5459 26.3154V26.1215C82.5257 26.0565 83.1372 25.9707 83.2454 25.9707C83.3338 25.9707 83.3338 26.0459 83.3338 26.165V30.1399H83.3338Z" fill="#211E1F"/><path d="M85.5031 26.5847C85.9387 26.2184 86.5272 25.8087 87.1273 25.8087C88.3921 25.8087 89.1543 26.8981 89.1543 28.0717C89.1543 29.4831 88.1083 30.8948 86.5486 30.8948C85.7424 30.8948 85.3175 30.6359 85.0337 30.518L84.7072 30.7651L84.4789 30.6473C84.5756 30.0115 84.6311 29.3863 84.6311 28.7294V24.096C84.6311 23.3952 84.4666 23.3737 84.0527 23.2554V23.083C84.49 22.9432 84.9465 22.7489 85.1756 22.6192C85.2957 22.555 85.3825 22.5005 85.4163 22.5005C85.4812 22.5005 85.503 22.5656 85.503 22.6521V26.5847H85.5031V26.5847ZM85.5031 29.5152C85.5031 29.925 85.8951 30.6152 86.6255 30.6152C87.792 30.6152 88.2823 29.4831 88.2823 28.5238C88.2823 27.3603 87.3893 26.3908 86.5388 26.3908C86.1344 26.3908 85.7971 26.6498 85.5031 26.8981V29.5152H85.5031Z" fill="#211E1F"/><path d="M38.4746 36.9981H38.5581C38.7712 36.9981 38.9966 36.9697 38.9966 36.6644V33.5928C38.9966 33.2871 38.7712 33.2583 38.5581 33.2583H38.4746V33.0823C38.7062 33.0823 39.062 33.1054 39.3536 33.1054C39.6497 33.1054 40.0051 33.0823 40.284 33.0823V33.2583H40.2005C39.9878 33.2583 39.762 33.2872 39.762 33.5928V36.6644C39.762 36.9697 39.9878 36.9981 40.2005 36.9981H40.284V37.175C39.9993 37.175 39.6427 37.1518 39.347 37.1518C39.0562 37.1518 38.7062 37.175 38.4746 37.175V36.9981Z" fill="#211E1F"/><path d="M40.284 37.1997C39.9973 37.1997 39.642 37.1761 39.3466 37.1761C39.0567 37.1761 38.7079 37.1997 38.4747 37.1997H38.4492V37.1745V36.9985V36.9729H38.4747H38.5578C38.7729 36.968 38.9687 36.9509 38.9708 36.6643V33.5927C38.9687 33.3062 38.7729 33.287 38.5578 33.283H38.4492V33.2582V33.0562H38.4747C38.7079 33.0562 39.0633 33.0793 39.3532 33.0793C39.6486 33.0793 40.0036 33.0562 40.284 33.0562H40.3104V33.083V33.283H40.284H40.2009C39.9858 33.287 39.7888 33.3062 39.7876 33.5927V36.6643C39.7888 36.9509 39.9858 36.968 40.2009 36.9729H40.3103V36.9985V37.1997H40.284ZM40.2585 37.1497V37.0245H40.201C39.9892 37.0245 39.737 36.9883 39.7357 36.6643V33.5927C39.737 33.2688 39.9891 33.2322 40.201 33.2322H40.2585V33.1078C39.9846 33.1078 39.6411 33.1305 39.3532 33.1305C39.0715 33.1305 38.7305 33.1094 38.501 33.1078V33.2322H38.5578C38.7692 33.2322 39.0221 33.2688 39.0221 33.5927V36.6643C39.0221 36.9883 38.7692 37.0245 38.5578 37.0245H38.501V37.1497C38.7305 37.1472 39.0657 37.1261 39.3466 37.1261C39.6354 37.1261 39.9788 37.148 40.2585 37.1497Z" fill="#211E1F"/><path d="M44.3596 36.0193L44.3715 36.0079V33.8096C44.3715 33.3283 44.0331 33.2583 43.8554 33.2583H43.7245V33.0823C44.0038 33.0823 44.2765 33.1054 44.555 33.1054C44.798 33.1054 45.0424 33.0823 45.285 33.0823V33.2583H45.1962C44.9465 33.2583 44.6677 33.305 44.6677 34.0026V36.671C44.6677 36.8759 44.6738 37.0807 44.703 37.2625H44.4772L41.4233 33.897V36.3129C41.4233 36.823 41.5232 36.9982 41.9806 36.9982H42.0809V37.1751C41.8264 37.1751 41.5717 37.1519 41.3163 37.1519C41.0502 37.1519 40.7771 37.1751 40.5098 37.1751V36.9982H40.5928C41.0021 36.9982 41.1264 36.7234 41.1264 36.2547V33.7852C41.1264 33.4572 40.8528 33.2584 40.5871 33.2584H40.5098V33.0824C40.7352 33.0824 40.9664 33.1055 41.1913 33.1055C41.3694 33.1055 41.5418 33.0824 41.7194 33.0824L44.3596 36.0193Z" fill="#211E1F"/><path d="M44.7021 37.2878L44.4574 37.2788L41.4474 33.963V36.3126C41.4544 36.8223 41.533 36.9671 41.9797 36.9728H42.1068V36.998V37.1996H42.0804C41.8238 37.1996 41.5684 37.176 41.3154 37.176C41.0497 37.176 40.7774 37.1996 40.5084 37.1996H40.4825V37.1744V36.9728H40.5084H40.5919C40.9838 36.9707 41.0957 36.7219 41.1002 36.2545V33.7853C41.0994 33.4731 40.8403 33.2837 40.5861 33.2829H40.4824V33.2569V33.0569H40.5083C40.735 33.0569 40.9674 33.0792 41.1899 33.0792C41.3663 33.0792 41.5383 33.0569 41.7381 33.0654L44.345 35.9659V33.8098C44.3417 33.3431 44.0271 33.287 43.8543 33.2829H43.6972V33.2569V33.0569H43.7235C44.0037 33.0569 44.2767 33.0792 44.554 33.0792C44.7954 33.0792 45.0385 33.0569 45.2836 33.0569H45.3095V33.0821V33.2829H45.2836H45.1952C44.9505 33.2898 44.6991 33.3109 44.6922 34.0024V36.6703C44.6922 36.8752 44.6983 37.08 44.7272 37.2577L44.7329 37.2878H44.7021V37.2878ZM44.4768 37.2361H44.6729C44.6463 37.0601 44.6417 36.865 44.6417 36.6703V34.0024C44.6417 33.2987 44.9399 33.2321 45.1953 33.2321H45.2578V33.1077C45.0242 33.1093 44.7898 33.1304 44.5541 33.1304C44.2827 33.1304 44.0186 33.1093 43.75 33.1077L43.7496 33.2321H43.8545C44.0367 33.2321 44.3966 33.3125 44.3966 33.8097L44.3884 36.0252L44.3764 36.0374L44.3563 36.0557L41.7186 33.1077C41.5426 33.1077 41.3706 33.1304 41.19 33.1304C40.9725 33.1304 40.7499 33.1093 40.5348 33.1077L40.5336 33.232H40.5862C40.8647 33.232 41.1505 33.4422 41.1505 33.7853V36.2544C41.1505 36.7231 41.0185 37.0231 40.592 37.0247L40.5348 37.0231V37.1495C40.7919 37.1471 41.0559 37.1259 41.3154 37.1259C41.5631 37.1259 41.8095 37.1471 42.0546 37.1495V37.0247H41.9797C41.5129 37.0231 41.3969 36.8223 41.3965 36.3125V33.8308L44.4768 37.2361ZM44.3587 36.0186L44.3776 36.0016L44.3587 36.0186ZM44.3451 36.0073V36.0053L44.3402 36.0012L44.3451 36.0073Z" fill="#211E1F"/><path d="M46.1726 33.3747C45.7272 33.3747 45.7103 33.4804 45.6215 33.908H45.4434C45.4668 33.7442 45.4964 33.5804 45.5145 33.4096C45.5383 33.2454 45.5498 33.0819 45.5498 32.9121H45.6926C45.7403 33.0881 45.8884 33.082 46.0492 33.082H49.1089C49.2693 33.082 49.4174 33.0763 49.4298 32.8999L49.5712 32.9235C49.5482 33.082 49.5243 33.2401 49.5062 33.3986C49.4955 33.5568 49.4955 33.7153 49.4955 33.873L49.317 33.9385C49.3047 33.7218 49.2751 33.3747 48.8781 33.3747H47.9054V36.4942C47.9054 36.9462 48.1132 36.9979 48.3969 36.9979H48.51V37.1747C48.2789 37.1747 47.8631 37.1515 47.5435 37.1515C47.1877 37.1515 46.7718 37.1747 46.5403 37.1747V36.9979H46.6534C46.9804 36.9979 47.1457 36.969 47.1457 36.5064V33.3747H46.1726Z" fill="#211E1F"/><path d="M48.5113 37.2C48.2776 37.2 47.8626 37.1764 47.5438 37.1764C47.1884 37.1764 46.7735 37.2 46.5406 37.2H46.516V37.1752V36.9731H46.5406H46.6537C46.9807 36.9654 47.1123 36.9614 47.1198 36.5068V33.4008H46.1729V33.3751V33.3491H47.1712V36.5068C47.1712 36.9772 46.9795 37.0247 46.6538 37.0251H46.5666V37.1487C46.8006 37.1475 47.1996 37.1264 47.5439 37.1264C47.8532 37.1264 48.2497 37.1475 48.4841 37.1487V37.0251H48.3973C48.1106 37.0247 47.8799 36.9552 47.8799 36.4946V33.3491H48.8785C49.2767 33.3507 49.3285 33.6853 49.3417 33.9028L49.4696 33.856C49.4696 33.7032 49.4704 33.5499 49.4811 33.3954C49.4984 33.2446 49.5202 33.095 49.5424 32.9454L49.4519 32.9304C49.4244 33.1011 49.2577 33.1097 49.1084 33.108H46.0495H46.0187C45.8793 33.108 45.7267 33.1015 45.6736 32.9378H45.5757C45.5748 33.1 45.5633 33.2573 45.5407 33.4133C45.5234 33.5743 45.4963 33.7292 45.4741 33.8841H45.6012C45.6793 33.4755 45.7304 33.343 46.1729 33.3491V33.3752V33.4008C45.7344 33.4085 45.7435 33.4817 45.6468 33.915L45.6423 33.9349H45.6218H45.4141L45.4174 33.9044C45.4412 33.7402 45.4713 33.5767 45.4889 33.406C45.5136 33.2434 45.5251 33.0808 45.5251 32.9125V32.8869H45.5502H45.7131L45.7172 32.9052C45.7579 33.0532 45.8677 33.054 46.0187 33.0564H46.0495H49.1084C49.2738 33.054 49.3939 33.0515 49.4042 32.8982L49.4066 32.8706L49.4334 32.8763L49.6008 32.9024L49.597 32.928C49.5732 33.0849 49.5498 33.2434 49.5325 33.4007C49.5206 33.5568 49.5206 33.7154 49.5206 33.8735V33.8918L49.5041 33.8983L49.2939 33.9739L49.2923 33.9397C49.2767 33.7194 49.2532 33.4007 48.8785 33.4007H47.9317V36.4946C47.937 36.9369 48.1147 36.9674 48.3972 36.9731H48.5363V36.9983V37.1999L48.5113 37.2Z" fill="#211E1F"/><path d="M49.7598 36.9981H49.8433C50.0564 36.9981 50.2821 36.9697 50.2821 36.6644V33.5928C50.2821 33.2871 50.0564 33.2583 49.8433 33.2583H49.7598V33.0823C50.1209 33.0823 50.7387 33.1054 51.2359 33.1054C51.7353 33.1054 52.351 33.0823 52.754 33.0823C52.7443 33.3339 52.7496 33.7217 52.7672 33.9791L52.5883 34.0262C52.5599 33.6453 52.4888 33.3409 51.8656 33.3409H51.0418V34.8762H51.7468C52.1025 34.8762 52.1803 34.6774 52.2153 34.36H52.393C52.3815 34.5896 52.3753 34.8181 52.3753 35.0466C52.3753 35.2698 52.3814 35.4921 52.393 35.7149L52.2153 35.7498C52.1803 35.3982 52.1623 35.1697 51.7526 35.1697H51.0419V36.5352C51.0419 36.9169 51.3845 36.9169 51.7645 36.9169C52.4765 36.9169 52.7903 36.8693 52.9684 36.2018L53.1346 36.2421C53.0569 36.5535 52.9861 36.8636 52.9335 37.175C52.5534 37.175 51.871 37.1518 51.338 37.1518C50.8033 37.1518 50.0979 37.175 49.7598 37.175V36.9981Z" fill="#211E1F"/><path d="M52.9327 37.1996C52.5518 37.1996 51.8698 37.1756 51.3372 37.1756C50.803 37.1756 50.0979 37.1996 49.7594 37.1996H49.7344V37.1748V36.998V36.9728H49.7594H49.8425C50.0576 36.9695 50.2526 36.9508 50.2555 36.6642V33.5926C50.2526 33.3064 50.0576 33.2873 49.8425 33.2829H49.7344V33.2581V33.0569H49.7594C50.1214 33.0569 50.7383 33.0792 51.2356 33.0792C51.7345 33.0792 52.3498 33.0569 52.7537 33.0569H52.7805L52.7792 33.0829C52.7751 33.1711 52.7735 33.2751 52.7735 33.3857C52.7735 33.5886 52.7792 33.8101 52.7912 33.9772L52.792 33.9984L52.7723 34.0041L52.5637 34.0577L52.5625 34.0277C52.5276 33.6472 52.4762 33.3712 51.8654 33.3655H51.0662L51.0654 34.8496H51.7465C52.088 34.8464 52.1492 34.6736 52.1895 34.3577L52.1916 34.3346H52.2146H52.4191L52.4186 34.361C52.4072 34.5894 52.3997 34.8179 52.3997 35.0463C52.3997 35.2683 52.4072 35.4906 52.4186 35.7138L52.4191 35.7346L52.3977 35.7394L52.1916 35.7801L52.1895 35.7524C52.1488 35.3947 52.1459 35.1988 51.7518 35.1943L51.0662 35.1939V36.5349C51.0667 36.891 51.3775 36.889 51.7642 36.891C52.4782 36.887 52.7645 36.8529 52.9434 36.1943L52.9492 36.1707L52.9743 36.1752L53.1644 36.2235L53.1586 36.248C53.0821 36.5585 53.0109 36.8683 52.9578 37.1788L52.9529 37.1996H52.9327ZM52.9109 37.1484C52.9623 36.8528 53.0301 36.5561 53.103 36.2609L52.9858 36.2317C52.8081 36.8878 52.4641 36.9463 51.7641 36.9419C51.3907 36.9419 51.0164 36.9419 51.0147 36.5349V35.1438H51.7518C52.1659 35.1394 52.2084 35.3865 52.2376 35.7203L52.3659 35.6939C52.3544 35.478 52.3491 35.2613 52.3491 35.0463C52.3491 34.8256 52.3544 34.6061 52.3659 34.3853H52.2376C52.2047 34.6906 52.108 34.9052 51.7465 34.9012H51.0147V33.3142H51.8654C52.4824 33.3101 52.5847 33.6247 52.6111 33.9934L52.739 33.9593C52.7287 33.7938 52.7217 33.5816 52.7217 33.3857C52.7217 33.2853 52.7242 33.1906 52.7275 33.1077C52.3244 33.1093 51.7239 33.1304 51.2356 33.1304C50.7482 33.1304 50.1482 33.1093 49.785 33.1077V33.232H49.8425C50.0539 33.232 50.3065 33.2686 50.3073 33.5926V36.6642C50.3065 36.9874 50.0539 37.0232 49.8425 37.0248H49.785V37.1484C50.1309 37.1479 50.8162 37.126 51.3372 37.126C51.8604 37.126 52.5283 37.1479 52.9109 37.1484Z" fill="#211E1F"/><path d="M53.9383 33.7033C53.9383 33.2757 53.7014 33.2582 53.5167 33.2582H53.4102V33.0818C53.6001 33.0818 53.9674 33.1054 54.3294 33.1054C54.6852 33.1054 54.9702 33.0818 55.2841 33.0818C56.031 33.0818 56.6961 33.2814 56.6961 34.1147C56.6961 34.6411 56.3404 34.9639 55.8718 35.1464L56.8857 36.6464C57.0518 36.8944 57.1699 36.9639 57.4611 36.998V37.1749C57.2653 37.1749 57.0753 37.1517 56.8799 37.1517C56.6961 37.1517 56.5056 37.1749 56.3225 37.1749C55.866 36.5826 55.4736 35.9493 55.0882 35.2745H54.698V36.5298C54.698 36.9818 54.9106 36.9981 55.1833 36.9981H55.2902V37.1749C54.9513 37.1749 54.6087 37.1518 54.2702 37.1518C53.9852 37.1518 53.7063 37.1749 53.4102 37.1749V36.9981H53.5167C53.7371 36.9981 53.9383 36.8997 53.9383 36.6822V33.7033ZM54.6979 35.0635H54.9875C55.581 35.0635 55.9005 34.8408 55.9005 34.1489C55.9005 33.6277 55.5629 33.2932 55.0344 33.2932C54.8563 33.2932 54.7806 33.3115 54.6978 33.3167V35.0635H54.6979Z" fill="#211E1F"/><path d="M57.4578 37.1996C57.2592 37.1996 57.0704 37.176 56.8754 37.176C56.6944 37.176 56.5052 37.1996 56.2984 37.1898C55.8434 36.6 55.4535 35.9703 55.0702 35.3004H54.7197V36.5289C54.7259 36.97 54.9052 36.9663 55.1796 36.9728H55.3124V36.998V37.1996H55.2861C54.9472 37.1996 54.6029 37.176 54.2661 37.176C53.9826 37.176 53.7046 37.1996 53.4068 37.1996H53.3809V37.1744V36.9728H53.4068H53.5133C53.7272 36.9716 53.9074 36.8797 53.9082 36.6821V33.7033C53.9037 33.287 53.6977 33.2894 53.5133 33.2834H53.3809V33.2582V33.0562H53.4068C53.5989 33.0562 53.965 33.0793 54.3261 33.0793C54.6802 33.0793 54.9653 33.0562 55.2812 33.0562C56.0285 33.0578 56.7171 33.2618 56.7191 34.1131C56.7191 34.6427 56.365 34.9732 55.9072 35.1578L56.9038 36.6325C57.0695 36.8756 57.1728 36.9363 57.4615 36.9728L57.4833 36.976V36.998V37.1996H57.4578V37.1996ZM54.6939 35.2491H55.0994L55.1064 35.2621C55.493 35.9357 55.8825 36.5682 56.3193 37.1495C56.5003 37.1495 56.6907 37.1256 56.8754 37.1256C57.065 37.1256 57.2476 37.1459 57.4323 37.1487V37.0203C57.1538 36.9861 57.0235 36.904 56.8614 36.6605L55.8295 35.134L55.8586 35.1223C56.3226 34.9418 56.6661 34.6284 56.6665 34.1129C56.6661 33.2995 56.0268 33.1109 55.2812 33.1077C54.9681 33.1077 54.6835 33.1308 54.3261 33.1308C53.9778 33.1308 53.626 33.1093 53.4319 33.1077V33.232H53.5133C53.6976 33.2325 53.96 33.2625 53.96 33.7032V36.6821C53.96 36.9174 53.7366 37.0247 53.5133 37.0252H53.4319V37.1487C53.7174 37.1479 53.9876 37.1256 54.2661 37.1256C54.5979 37.1256 54.9324 37.1479 55.2606 37.1487V37.0252H55.1796C54.9089 37.0247 54.6679 36.9914 54.6679 36.5288V35.2491H54.6938H54.6939ZM54.6939 35.0882H54.6679V33.293L54.6905 33.291C54.7716 33.2849 54.8518 33.2682 55.0311 33.2682C55.5716 33.2682 55.9228 33.6154 55.9236 34.1499C55.922 34.8499 55.5823 35.0877 54.9842 35.0881H54.6939V35.0882ZM54.9842 35.0378C55.5715 35.0329 55.8669 34.8313 55.8731 34.1499C55.8698 33.6377 55.5477 33.3199 55.0311 33.3178C54.8707 33.3178 54.7954 33.3325 54.7197 33.339V35.0378H54.9842Z" fill="#211E1F"/><path d="M61.4861 36.0193L61.4968 36.0079V33.8096C61.4968 33.3283 61.1592 33.2583 60.9815 33.2583H60.8515V33.0823C61.13 33.0823 61.4023 33.1054 61.6815 33.1054C61.925 33.1054 62.1673 33.0823 62.412 33.0823V33.2583H62.3227C62.0735 33.2583 61.7946 33.305 61.7946 34.0026V36.671C61.7946 36.8759 61.8004 37.0807 61.8296 37.2625H61.6046L58.5503 33.897V36.3129C58.5503 36.823 58.651 36.9982 59.1076 36.9982H59.2084V37.1751C58.9537 37.1751 58.6983 37.1519 58.4437 37.1519C58.1759 37.1519 57.9032 37.1751 57.6367 37.1751V36.9982H57.719C58.1287 36.9982 58.2533 36.7234 58.2533 36.2547V33.7852C58.2533 33.4572 57.9805 33.2584 57.7141 33.2584H57.6367V33.0824C57.8613 33.0824 58.0937 33.1055 58.3187 33.1055C58.4956 33.1055 58.6683 33.0824 58.8464 33.0824L61.4861 36.0193Z" fill="#211E1F"/><path d="M61.8313 37.2874L61.587 37.2793L58.5767 33.9631V36.3123C58.5837 36.8224 58.6618 36.9671 59.1093 36.9728H59.2348V36.998V37.1997H59.2088C58.9523 37.1997 58.698 37.1756 58.4438 37.1756C58.179 37.1756 57.905 37.1997 57.6381 37.1997H57.6113V37.1749V36.9728H57.6381H57.7203C58.1119 36.9712 58.2242 36.722 58.2279 36.2529V33.785C58.2275 33.4728 57.9688 33.2834 57.7154 33.2829H57.6113V33.2582V33.0562H57.6381C57.8643 33.0562 58.0963 33.0793 58.32 33.0793C58.4944 33.0793 58.6663 33.0562 58.8654 33.0642L61.4727 35.9659V33.809C61.471 33.3431 61.1552 33.2854 60.9829 33.283H60.8261V33.2582V33.0562H60.8521C61.1326 33.0562 61.4056 33.0793 61.6829 33.0793C61.9248 33.0793 62.1678 33.0562 62.4121 33.0562H62.438V33.0826V33.283H62.4121H62.324C62.0794 33.2895 61.8272 33.311 61.821 34.0025V36.6704C61.821 36.8752 61.8264 37.0785 61.8564 37.259L61.8597 37.2874H61.8313ZM61.6059 37.2362H61.8009C61.775 37.0602 61.7692 36.8651 61.7692 36.6704V34.0025C61.7696 33.2988 62.0699 33.2338 62.324 33.2317H62.3862V33.1077C62.1534 33.1094 61.9185 33.1305 61.6828 33.1305C61.4106 33.1305 61.146 33.1094 60.8775 33.1077V33.2317H60.9828C61.1654 33.2338 61.5249 33.3126 61.5249 33.809L61.5167 36.0252L61.5052 36.0374L61.4871 36.0561L58.8473 33.1078C58.6713 33.1078 58.4993 33.1305 58.3201 33.1305C58.1004 33.1305 57.8787 33.1094 57.6628 33.1078V33.2318H57.7154C57.9939 33.2338 58.2797 33.4415 58.2797 33.785V36.2529C58.2797 36.7236 58.1457 37.0232 57.7204 37.0248L57.6628 37.0244V37.1484C57.919 37.1472 58.1835 37.126 58.4439 37.126C58.6927 37.126 58.9391 37.1472 59.1842 37.1484V37.0248H59.1093C58.6421 37.0244 58.5253 36.8224 58.5245 36.3122V33.8317L61.6059 37.2362ZM61.4874 36.0187L61.5055 36.0021L61.4874 36.0187ZM61.4727 36.0078V36.0057L61.4681 36.0012L61.4727 36.0078Z" fill="#211E1F"/><path d="M63.366 36.336C63.306 36.5348 63.2344 36.6885 63.2344 36.793C63.2344 36.9694 63.484 36.9978 63.679 36.9978H63.7452V37.1747C63.5075 37.162 63.2652 37.1515 63.0263 37.1515C62.8128 37.1515 62.6006 37.1621 62.3867 37.1747V36.9978H62.4225C62.6536 36.9978 62.8499 36.8632 62.9374 36.6165L63.8875 33.9262C63.9641 33.7092 64.0718 33.4161 64.1077 33.1986C64.2965 33.1348 64.5342 33.0177 64.6465 32.947C64.665 32.941 64.6752 32.9348 64.6938 32.9348C64.7115 32.9348 64.7229 32.9348 64.7361 32.9531C64.7534 32.9994 64.7707 33.0527 64.7896 33.0994L65.8808 36.1661C65.9519 36.371 66.0222 36.5877 66.0992 36.7641C66.1708 36.9283 66.2958 36.9978 66.492 36.9978H66.5269V37.1747C66.2601 37.1621 65.9927 37.1515 65.7089 37.1515C65.4181 37.1515 65.1207 37.1621 64.8184 37.1747V36.9978H64.8842C65.02 36.9978 65.252 36.9751 65.252 36.8283C65.252 36.7523 65.1985 36.5942 65.1323 36.406L64.9015 35.7259H63.5553L63.366 36.336ZM64.2314 33.7385H64.2194L63.6679 35.3978H64.7764L64.2314 33.7385Z" fill="#211E1F"/><path d="M66.5258 37.1999C66.2588 37.1881 65.9919 37.1759 65.7093 37.1759C65.4185 37.1759 65.1232 37.1881 64.8196 37.1999L64.7929 37.2015V37.1751V36.9723H64.8189H64.8843C65.0216 36.9723 65.2256 36.9414 65.2256 36.8288C65.2273 36.7621 65.1738 36.6011 65.1084 36.4146L64.8826 35.7516H63.5742L63.39 36.3438C63.3299 36.5438 63.2588 36.6987 63.2592 36.7942C63.2612 36.9374 63.4829 36.9723 63.6795 36.9723H63.7708V36.9987V37.2015L63.7441 37.1999C63.5068 37.1881 63.2645 37.1759 63.028 37.1759C62.8154 37.1759 62.6015 37.1881 62.3889 37.1999L62.3613 37.2015V37.1751V36.9723H62.3872H62.4226C62.6434 36.9715 62.8278 36.8475 62.9133 36.6089L63.863 33.9182C63.9408 33.7008 64.0477 33.4085 64.0991 33.1747C64.285 33.1125 64.5231 32.9947 64.6375 32.9231C64.654 32.9178 64.6705 32.9097 64.6947 32.9097C64.7091 32.9093 64.7412 32.9129 64.7601 32.9439C64.777 32.9922 64.7954 33.0443 64.8135 33.0919L65.906 36.1582C65.976 36.3639 66.0467 36.5805 66.1241 36.7537C66.1927 36.9102 66.3017 36.9715 66.4925 36.9724H66.5531V36.9988V37.2016L66.5258 37.1999ZM64.8447 37.1475C65.1384 37.1373 65.4259 37.1259 65.7093 37.1259C65.9849 37.1259 66.2428 37.1373 66.5006 37.1475V37.0251H66.4924C66.2893 37.0263 66.149 36.9475 66.0761 36.7747C65.9989 36.5967 65.9265 36.3792 65.857 36.1739L64.7649 33.108C64.7469 33.0613 64.7296 33.008 64.7139 32.9666C64.709 32.9609 64.7102 32.9609 64.7053 32.9609H64.6946C64.6823 32.9609 64.6753 32.9645 64.66 32.9686C64.5457 33.0422 64.3076 33.1572 64.1319 33.2032C64.0953 33.4251 63.9888 33.7178 63.9115 33.9349L62.9622 36.6259C62.8717 36.8804 62.664 37.0255 62.4226 37.0251H62.4131V37.1475C62.6163 37.1373 62.8219 37.1259 63.028 37.1259C63.2571 37.1259 63.4915 37.1373 63.7177 37.1475V37.0251H63.6795C63.4866 37.0226 63.2168 37.0011 63.2094 36.7942C63.2098 36.6771 63.2826 36.5272 63.3405 36.3292L63.3665 36.3369L63.3405 36.3283L63.5359 35.7015H64.9188L65.1569 36.3983C65.2235 36.5865 65.2774 36.7426 65.2774 36.8288C65.2692 37.0089 65.0187 37.0215 64.8842 37.0251H64.8447V37.1475H64.8447ZM63.6322 35.4234L64.2002 33.7133H64.2199H64.2323V33.7389L64.2257 33.7401L64.2323 33.7389V33.7133H64.25L64.8131 35.4234H63.6322ZM63.7033 35.3726H64.7415L64.2253 33.8015L63.7033 35.3726ZM64.2064 33.7462L64.2199 33.7418L64.2064 33.7462Z" fill="#211E1F"/><path d="M66.7887 33.3747C66.3437 33.3747 66.326 33.4804 66.2367 33.908H66.0586C66.082 33.7442 66.1121 33.5804 66.1307 33.4096C66.1544 33.2454 66.1652 33.0819 66.1652 32.9121H66.3083C66.3556 33.0881 66.5045 33.082 66.6637 33.082H69.7251C69.8843 33.082 70.0324 33.0763 70.0447 32.8999L70.1866 32.9235C70.1639 33.082 70.1405 33.2401 70.1224 33.3986C70.1096 33.5568 70.1096 33.7153 70.1096 33.873L69.932 33.9385C69.9208 33.7218 69.8912 33.3747 69.4935 33.3747H68.5208V36.4942C68.5208 36.9462 68.7289 36.9979 69.0127 36.9979H69.1253V37.1747C68.8942 37.1747 68.4796 37.1515 68.1588 37.1515C67.8034 37.1515 67.3876 37.1747 67.1565 37.1747V36.9979H67.2687C67.5957 36.9979 67.7619 36.969 67.7619 36.5064V33.3747H66.7887Z" fill="#211E1F"/><path d="M69.1262 37.1999C68.8934 37.1999 68.4779 37.1764 68.1596 37.1764C67.805 37.1764 67.3896 37.1999 67.1572 37.1999H67.1309V37.1751V36.9731H67.1572H67.2695C67.5964 36.9654 67.7277 36.9613 67.7359 36.5068L67.7351 33.4007H66.7895V33.3751V33.3491H67.7873V36.5068C67.7873 36.9771 67.5952 37.0235 67.2695 37.0247H67.1823V37.1499C67.4171 37.1474 67.8153 37.1263 68.1596 37.1263C68.4693 37.1263 68.8658 37.1475 69.1002 37.1499V37.0247H69.0126C68.7275 37.0235 68.4964 36.9556 68.4956 36.4946V33.3491H69.4942C69.8924 33.3507 69.9446 33.6852 69.9558 33.9027L70.0853 33.856C70.0853 33.7031 70.0857 33.5499 70.0972 33.3962C70.1137 33.2454 70.1358 33.095 70.1577 32.9454L70.068 32.9303C70.0409 33.1011 69.8735 33.1104 69.7258 33.108H66.6644H66.6344C66.4946 33.1096 66.3432 33.1015 66.2893 32.9368H66.1923C66.1906 33.0994 66.1795 33.2572 66.156 33.4133C66.1404 33.5747 66.1112 33.73 66.089 33.884H66.2161C66.2947 33.4754 66.3461 33.3429 66.7894 33.3491V33.3751V33.4007C66.3498 33.408 66.3597 33.4816 66.2625 33.9149L66.258 33.9348H66.2375H66.0293L66.033 33.9055C66.0577 33.7401 66.0873 33.5767 66.1046 33.4072C66.1288 33.2433 66.1404 33.0807 66.1404 32.9124V32.8868H66.1658H66.3279L66.3328 32.9051C66.3744 33.0531 66.4825 33.0539 66.6343 33.0563L66.6643 33.0572H69.7258C69.8895 33.0539 70.0091 33.0515 70.0194 32.8987L70.0211 32.8706L70.049 32.8763L70.2173 32.9024L70.2128 32.928C70.1885 33.0849 70.1659 33.2434 70.1478 33.4007C70.1358 33.5568 70.1358 33.7158 70.1358 33.8735V33.8918L70.1191 33.8983L69.9088 33.9739L69.9076 33.9397C69.8924 33.7194 69.8689 33.4007 69.4942 33.4007H68.547V36.4946C68.5532 36.9369 68.7304 36.9674 69.0126 36.9731H69.1516V36.9983V37.1999L69.1262 37.1999Z" fill="#211E1F"/><path d="M70.4023 36.9981H70.4855C70.6997 36.9981 70.9238 36.9697 70.9238 36.6644V33.5928C70.9238 33.2871 70.6997 33.2583 70.4855 33.2583H70.4023V33.0823C70.634 33.0823 70.9893 33.1054 71.2792 33.1054C71.577 33.1054 71.9329 33.0823 72.2117 33.0823V33.2583H72.1286C71.9152 33.2583 71.689 33.2872 71.689 33.5928V36.6644C71.689 36.9697 71.9152 36.9981 72.1286 36.9981H72.2117V37.175C71.9266 37.175 71.5705 37.1518 71.2748 37.1518C70.9836 37.1518 70.634 37.175 70.4023 37.175V36.9981Z" fill="#211E1F"/><path d="M72.2141 37.1996C71.9275 37.1996 71.5725 37.1756 71.2768 37.1756C70.9868 37.1756 70.6364 37.1996 70.4048 37.1996H70.3789V37.1748V36.998V36.9728H70.4048H70.4879C70.7022 36.9695 70.8988 36.9512 70.8996 36.6642V33.5926C70.8988 33.3064 70.7022 33.2869 70.4879 33.2829H70.3789V33.2581V33.0569H70.4048C70.6364 33.0569 70.9926 33.0792 71.2817 33.0792C71.5775 33.0792 71.9332 33.0569 72.2141 33.0569H72.2392V33.082V33.2829H72.2141H72.131C71.9143 33.2869 71.7197 33.3064 71.7169 33.5926V36.6642C71.7197 36.9512 71.9143 36.9695 72.131 36.9728H72.2392V36.998V37.1996H72.2141ZM72.1874 37.1484V37.0243H72.131C71.9184 37.0243 71.6667 36.9874 71.6667 36.6642V33.5926C71.6667 33.2686 71.9184 33.232 72.131 33.232H72.1874V33.1077C71.9135 33.1093 71.5709 33.1304 71.2817 33.1304C71.0008 33.1304 70.6606 33.1093 70.4307 33.1077V33.232H70.4879C70.6989 33.232 70.9515 33.2686 70.9523 33.5926V36.6642C70.9514 36.9874 70.6989 37.0243 70.4879 37.0243H70.4307V37.1484C70.6595 37.1459 70.9951 37.126 71.2768 37.126C71.5643 37.126 71.9077 37.1471 72.1874 37.1484H72.1874Z" fill="#211E1F"/><path d="M74.5803 32.9944C75.8446 32.9944 76.8523 33.7692 76.8523 35.0176C76.8523 36.3664 75.8738 37.2627 74.6111 37.2627C73.3525 37.2627 72.3926 36.4183 72.3926 35.1578C72.3926 33.9387 73.3468 32.9944 74.5803 32.9944ZM74.6699 37.0046C75.8208 37.0046 76.0211 36.0013 76.0211 35.1464C76.0211 34.2895 75.5539 33.2521 74.5688 33.2521C73.5307 33.2521 73.2226 34.1667 73.2226 34.9517C73.2226 36.0013 73.7088 37.0046 74.6699 37.0046Z" fill="#211E1F"/><path d="M72.3652 35.1578C72.3677 33.9244 73.3335 32.9704 74.5793 32.9688V32.9944V33.0191C73.3602 33.0191 72.4167 33.9513 72.4155 35.1577C72.4183 36.4041 73.3648 37.2358 74.6102 37.2362C75.8605 37.2358 76.8251 36.3521 76.8271 35.0163C76.8259 33.7838 75.8334 33.0207 74.5794 33.0191V32.9944V32.9688C75.8536 32.9696 76.8749 33.7521 76.8773 35.0163C76.8761 36.3793 75.8848 37.285 74.6102 37.2874C73.3417 37.285 72.3677 36.4321 72.3653 35.1577H72.3652V35.1578ZM73.1962 34.9517C73.1978 34.1631 73.5095 33.2257 74.5682 33.2257C75.5751 33.2281 76.0452 34.2851 76.0468 35.1464C76.0452 36.0013 75.8417 37.029 74.6695 37.029V37.0046V36.9793C75.7973 36.9778 75.9926 36.0013 75.9954 35.1464C75.9954 34.2964 75.5323 33.279 74.5682 33.2777C73.5507 33.2789 73.2495 34.1708 73.2476 34.9517C73.2484 35.996 73.73 36.9769 74.6695 36.9793V37.0046V37.029C73.6848 37.0277 73.1978 36.0074 73.1962 34.9517Z" fill="#211E1F"/><path d="M80.8498 36.0193L80.8618 36.0079V33.8096C80.8618 33.3283 80.5229 33.2583 80.3448 33.2583H80.2164V33.0823C80.4945 33.0823 80.7672 33.1054 81.0452 33.1054C81.2891 33.1054 81.5322 33.0823 81.7757 33.0823V33.2583H81.686C81.4376 33.2583 81.1583 33.305 81.1583 34.0026V36.671C81.1583 36.8759 81.1641 37.0807 81.1941 37.2625H80.9691L77.9139 33.897V36.3129C77.9139 36.823 78.0143 36.9982 78.4708 36.9982H78.5724V37.1751C78.317 37.1751 78.0624 37.1519 77.8074 37.1519C77.5404 37.1519 77.2669 37.1751 77 37.1751V36.9982H77.0835C77.4936 36.9982 77.6165 36.7234 77.6165 36.2547V33.7852C77.6165 33.4572 77.345 33.2584 77.0773 33.2584H77V33.0824C77.2254 33.0824 77.4569 33.1055 77.682 33.1055C77.86 33.1055 78.0316 33.0824 78.2101 33.0824L80.8498 36.0193Z" fill="#211E1F"/><path d="M81.1943 37.2874L80.9488 37.2788L77.9392 33.9629V36.3126C77.9457 36.8223 78.0243 36.9667 78.4698 36.9719H78.5981V36.9984V37.1996H78.5722C78.3151 37.1996 78.0605 37.176 77.8071 37.176C77.541 37.176 77.2687 37.1996 76.9993 37.1996H76.9746V37.1744V36.9719H76.9993H77.0832C77.4744 36.9708 77.5867 36.722 77.5916 36.2545V33.7849C77.5907 33.4727 77.332 33.2833 77.077 33.2829H76.9746V33.2581V33.0569H76.9993C77.2268 33.0569 77.4579 33.0793 77.6816 33.0793C77.8577 33.0793 78.0288 33.0569 78.2295 33.0655L80.8356 35.9659V33.8098C80.8339 33.3431 80.518 33.287 80.3445 33.2829H80.1886V33.2582V33.057H80.2153C80.4946 33.057 80.7681 33.0793 81.044 33.0793C81.2875 33.0793 81.5294 33.057 81.7754 33.057H81.8009V33.0821V33.2829H81.7754H81.6856C81.4417 33.2899 81.1893 33.3118 81.1843 34.0025V36.6704C81.1843 36.8752 81.1888 37.0797 81.2177 37.2589L81.2226 37.2874H81.1943V37.2874ZM80.969 37.2361H81.1631C81.1372 37.0601 81.1326 36.865 81.1326 36.6703V34.0024C81.1326 33.2975 81.4317 33.2337 81.6859 33.2316H81.75V33.1077C81.516 33.1093 81.2816 33.1304 81.0443 33.1304C80.7744 33.1304 80.5091 33.1093 80.2406 33.1077V33.2316H80.3446C80.5285 33.2337 80.8863 33.3138 80.8863 33.8097L80.8798 36.0252L80.8686 36.0374L80.8497 36.056L78.21 33.1077C78.0352 33.1077 77.862 33.1305 77.6819 33.1305C77.4634 33.1305 77.2409 33.1093 77.025 33.1077V33.2317H77.0772C77.3557 33.2337 77.6423 33.4414 77.6423 33.7849V36.2545C77.6423 36.7232 77.5099 37.0232 77.0834 37.0248L77.025 37.0243V37.1484C77.2824 37.1471 77.5465 37.126 77.8073 37.126C78.0545 37.126 78.3 37.1471 78.5464 37.1484V37.0248H78.4699C78.0044 37.0243 77.888 36.8223 77.888 36.3126V33.8308L80.969 37.2361ZM80.8497 36.0186L80.8685 36.002L80.8497 36.0186ZM80.8357 36.0077V36.0056L80.8307 36.0012L80.8357 36.0077Z" fill="#211E1F"/><path d="M82.7292 36.336C82.6712 36.5348 82.5992 36.6885 82.5992 36.793C82.5992 36.9694 82.8489 36.9978 83.0435 36.9978H83.1097V37.1747C82.8724 37.162 82.6289 37.1515 82.3916 37.1515C82.1772 37.1515 81.9646 37.1621 81.752 37.1747V36.9978H81.7857C82.0181 36.9978 82.2147 36.8632 82.3023 36.6165L83.2524 33.9262C83.3289 33.7092 83.4363 33.4161 83.4709 33.1986C83.6609 33.1348 83.8978 33.0177 84.0117 32.947C84.0285 32.941 84.0405 32.9348 84.0586 32.9348C84.0763 32.9348 84.0874 32.9348 84.0993 32.9531C84.1174 32.9994 84.136 33.0527 84.1536 33.0994L85.2444 36.1661C85.3156 36.371 85.3863 36.5877 85.4645 36.7641C85.5356 36.9283 85.6607 36.9978 85.8556 36.9978H85.8918V37.1747C85.6245 37.1621 85.3576 37.1515 85.0725 37.1515C84.7825 37.1515 84.4856 37.1621 84.1828 37.1747V36.9978H84.2487C84.384 36.9978 84.6168 36.9751 84.6168 36.8283C84.6168 36.7523 84.5629 36.5942 84.4967 36.406L84.2664 35.7259H82.9197L82.7292 36.336ZM83.5963 33.7385H83.5844L83.032 35.3978H84.142L83.5963 33.7385Z" fill="#211E1F"/><path d="M85.8879 37.1998C85.621 37.1892 85.3545 37.1762 85.0711 37.1762C84.7819 37.1762 84.485 37.1892 84.1822 37.1998L84.1559 37.2014V37.1746V36.973H84.1814H84.246C84.3841 36.973 84.5886 36.9413 84.589 36.8287C84.5902 36.762 84.5368 36.6022 84.4706 36.4144L84.2452 35.7514H82.936L82.7525 36.3437C82.6933 36.5445 82.6225 36.6985 82.6238 36.7933C82.6238 36.9372 82.8458 36.973 83.0421 36.973H83.1326V36.9982V37.2014L83.1063 37.1998C82.8689 37.1892 82.6262 37.1762 82.3902 37.1762C82.1775 37.1762 81.9644 37.1892 81.7506 37.1998L81.7246 37.2014V37.1746V36.973H81.7506H81.7843C82.0055 36.9721 82.1906 36.8465 82.277 36.6087L83.2263 33.9181C83.302 33.7006 83.4089 33.4083 83.4616 33.1754C83.6479 33.1116 83.886 32.9945 84.0012 32.9229C84.0168 32.9176 84.0329 32.9107 84.0571 32.9107C84.0728 32.9091 84.1032 32.9127 84.1221 32.9449C84.1398 32.9908 84.1571 33.0441 84.1768 33.0916L85.2676 36.1579C85.3384 36.3636 85.4096 36.5803 85.4864 36.7547C85.5559 36.91 85.6641 36.9713 85.8533 36.973H85.915V36.9982V37.2014L85.8879 37.1998ZM84.2069 37.1481C84.5002 37.1372 84.7889 37.1258 85.0711 37.1258C85.347 37.1258 85.6058 37.1372 85.864 37.1473L85.8632 37.0249H85.8534C85.6526 37.0254 85.5124 36.9473 85.4388 36.7746C85.3606 36.5965 85.2899 36.379 85.2191 36.1745L84.1275 33.1079C84.1098 33.0611 84.0917 33.0079 84.0773 32.968C84.0724 32.9607 84.0728 32.9607 84.0682 32.9607H84.0571C84.0448 32.9607 84.0382 32.9648 84.0238 32.9688C83.9082 33.0408 83.6705 33.1578 83.4949 33.203C83.4582 33.4249 83.3505 33.7172 83.274 33.9347L82.3243 36.6258C82.2342 36.8802 82.027 37.0254 81.7842 37.0249H81.7756V37.1473C81.9796 37.1372 82.1836 37.1258 82.3901 37.1258C82.62 37.1258 82.854 37.1372 83.0823 37.1473V37.0249H83.042C82.8492 37.0225 82.5785 37.0018 82.5715 36.7933C82.5727 36.677 82.6463 36.5278 82.7035 36.329L82.7278 36.3367L82.7035 36.3282L82.8989 35.7013H84.2822L84.5199 36.3981C84.5853 36.5868 84.6391 36.7424 84.6391 36.8286C84.6305 37.0087 84.3817 37.0213 84.2459 37.0249H84.2068V37.1481H84.2069ZM82.9952 35.423L83.564 33.7132H83.5821H83.5949V33.7388L83.5887 33.74L83.5949 33.7388V33.7132H83.6134L84.174 35.423H82.9952ZM83.0663 35.3725H84.1037L83.5879 33.8022L83.0663 35.3725ZM83.5702 33.7461L83.5821 33.7417L83.5702 33.7461Z" fill="#211E1F"/><path d="M87.3834 36.6002C87.3834 36.8348 87.5479 36.9047 87.738 36.9286C87.9811 36.9465 88.248 36.9465 88.522 36.9168C88.7704 36.8872 88.9843 36.7466 89.0904 36.6002C89.185 36.4709 89.2385 36.3067 89.2742 36.1778H89.4462C89.3812 36.512 89.2981 36.8412 89.2265 37.175C88.7058 37.175 88.1827 37.1518 87.6615 37.1518C87.1387 37.1518 86.6176 37.175 86.0957 37.175V36.9981H86.1771C86.3918 36.9981 86.6238 36.9697 86.6238 36.6059V33.5928C86.6238 33.2871 86.3918 33.2583 86.1771 33.2583H86.0957V33.0823C86.4091 33.0823 86.718 33.1054 87.0318 33.1054C87.3353 33.1054 87.6315 33.0823 87.9342 33.0823V33.2583H87.7849C87.5603 33.2583 87.3834 33.2648 87.3834 33.5746V36.6002Z" fill="#211E1F"/><path d="M89.2275 37.1993C88.7048 37.1993 88.1829 37.1757 87.6625 37.1757C87.1401 37.1757 86.6182 37.1993 86.0954 37.1993H86.0703V37.1741V36.9725H86.0954H86.1781C86.3932 36.9676 86.5964 36.953 86.5989 36.6054V33.5912C86.5964 33.3062 86.3944 33.2867 86.1781 33.2826H86.0703V33.2579V33.0566H86.0954C86.4109 33.0566 86.7198 33.079 87.0332 33.079C87.3343 33.079 87.6304 33.0566 87.9352 33.0566H87.9595V33.0818V33.2826H87.9352H87.7863C87.5564 33.2891 87.4133 33.2786 87.4087 33.5741V36.5997C87.4104 36.818 87.5552 36.877 87.7403 36.9026C87.8451 36.9099 87.955 36.9144 88.0694 36.9144C88.2145 36.9144 88.3655 36.9075 88.5185 36.8912C88.7603 36.8632 88.9684 36.7254 89.0705 36.5855C89.1617 36.4603 89.2144 36.2993 89.2498 36.1713L89.2551 36.1518H89.2749H89.4785L89.4731 36.1827C89.4061 36.5181 89.3247 36.8457 89.2527 37.1795L89.2478 37.1994H89.2276H89.2275V37.1993ZM89.2061 37.1481C89.2748 36.8302 89.3526 36.5192 89.4163 36.2021H89.2946C89.2575 36.3297 89.2049 36.4871 89.1116 36.6151C89.0009 36.7671 88.7812 36.9102 88.5242 36.9415C88.3687 36.9574 88.2149 36.9655 88.0693 36.9655C87.9545 36.9655 87.8431 36.9602 87.7357 36.9529C87.5428 36.9317 87.3556 36.8504 87.3565 36.5997V33.574C87.3565 33.2484 87.565 33.2318 87.7863 33.2318H87.9089V33.1074C87.6165 33.109 87.3285 33.1305 87.0331 33.1305C86.7259 33.1305 86.4256 33.109 86.1213 33.1074V33.2318H86.1781C86.3899 33.2318 86.649 33.2683 86.649 33.5911V36.6054C86.649 36.9846 86.3911 37.0241 86.1781 37.0241H86.1213V37.148C86.6342 37.1476 87.1471 37.1257 87.6625 37.1257C88.1779 37.1257 88.6929 37.1476 89.2061 37.1481Z" fill="#211E1F"/><path d="M89.3748 32.9155C89.7322 32.9155 89.9992 33.1871 89.9992 33.535C89.9992 33.8814 89.7322 34.1505 89.3748 34.1505C89.0174 34.1505 88.75 33.8814 88.75 33.535C88.75 33.1871 89.0173 32.9155 89.3748 32.9155ZM89.3748 34.0355C89.6541 34.0355 89.8688 33.7997 89.8688 33.535C89.8688 33.2688 89.6573 33.031 89.3748 33.031C89.0939 33.031 88.8792 33.2688 88.8792 33.535C88.8792 33.7997 89.0939 34.0355 89.3748 34.0355ZM89.0638 33.8602V33.8298C89.1407 33.8192 89.1547 33.8216 89.1547 33.7745V33.3176C89.1547 33.2534 89.1477 33.2314 89.0667 33.2346V33.2033H89.3863C89.4965 33.2033 89.5973 33.255 89.5973 33.3672C89.5973 33.459 89.5356 33.5269 89.4496 33.5533L89.552 33.6948C89.6001 33.759 89.654 33.8192 89.6898 33.8403V33.8602H89.5681C89.5097 33.8602 89.4587 33.7387 89.3435 33.5757H89.2744V33.7809C89.2744 33.8216 89.2888 33.8191 89.3657 33.8297V33.8602H89.0638V33.8602ZM89.2744 33.535H89.348C89.4286 33.535 89.4665 33.4745 89.4665 33.3773C89.4665 33.2789 89.408 33.2443 89.3439 33.2443H89.2744V33.535Z" fill="#211E1F"/></svg>